<?xml version="1.0" encoding="UTF-8"?>
<svg version="1.1" xmlns="http://www.w3.org/2000/svg" width="239" height="224">
<path d="M0 0 C78.87 0 157.74 0 239 0 C239 73.92 239 147.84 239 224 C160.13 224 81.26 224 0 224 C0 150.08 0 76.16 0 0 Z " fill="#250070" transform="translate(0,0)"/>
<path d="M0 0 C5.36166299 1.21247592 8.60991538 4.02620119 11.66015625 8.6015625 C11.87286363 11.19697716 11.97139444 13.68877204 11.97900391 16.28588867 C11.98904953 17.0666124 11.99909515 17.84733612 12.00944519 18.65171814 C12.04033946 21.23264834 12.05732954 23.81347452 12.07421875 26.39453125 C12.09292539 28.18387247 12.11249842 29.97320482 12.13290405 31.76252747 C12.18428456 36.47247089 12.22387856 41.18244293 12.26104736 45.89251709 C12.30104994 50.69859938 12.35215935 55.50456202 12.40234375 60.31054688 C12.49917309 69.74080143 12.58355543 79.17112346 12.66015625 88.6015625 C14.14515625 89.0965625 14.14515625 89.0965625 15.66015625 89.6015625 C15.65571503 88.61041946 15.6512738 87.61927643 15.646698 86.59809875 C15.60614459 77.25491893 15.57616831 67.91175699 15.55653191 58.5685091 C15.54609726 53.76511782 15.53194381 48.96179763 15.50927734 44.15844727 C15.4875377 39.52246083 15.47558522 34.88654274 15.47040176 30.25050926 C15.46670803 28.48229077 15.45949512 26.71407599 15.44869614 24.94588661 C15.43416633 22.46815548 15.43217893 19.99070637 15.43310547 17.51293945 C15.42591492 16.78285675 15.41872437 16.05277405 15.41131592 15.30056763 C15.43218819 10.13812058 16.39459993 6.63745746 19.09765625 2.2890625 C23.33035243 -0.49832279 27.75507847 -0.10119105 32.66015625 0.6015625 C36.15389274 2.25649031 37.98959897 3.3284036 39.79257202 6.75163269 C40.89071703 10.35893225 40.96795269 13.77793854 40.97900391 17.51293945 C40.99407234 18.68446312 40.99407234 18.68446312 41.00944519 19.87965393 C41.04022591 22.44971003 41.05729799 25.01966219 41.07421875 27.58984375 C41.09293452 29.37632641 41.11250824 31.16280026 41.13290405 32.94926453 C41.18418805 37.64273892 41.22383375 42.33624196 41.26104736 47.02984619 C41.3011104 51.82270371 41.35219226 56.61544243 41.40234375 61.40820312 C41.49905885 70.80590609 41.58347779 80.20367619 41.66015625 89.6015625 C42.65015625 89.9315625 43.64015625 90.2615625 44.66015625 90.6015625 C44.64905319 89.90078583 44.63795013 89.20000916 44.62651062 88.47799683 C44.52611815 81.85772484 44.4500956 75.23766679 44.40109539 68.61680412 C44.37505601 65.21327994 44.33976533 61.81038731 44.28295898 58.40722656 C44.21798985 54.49031261 44.19392872 50.57364992 44.171875 46.65625 C44.14606857 45.44041229 44.12026215 44.22457458 44.09367371 42.97189331 C44.09054936 33.53463244 44.09054936 33.53463244 47.05029297 29.84472656 C50.37165236 26.99003525 52.20115673 26.57138748 56.44140625 26.359375 C59.97578359 26.74516971 62.03672037 28.29805783 64.66015625 30.6015625 C66.79825602 33.80871216 66.91187997 34.63138513 66.92085266 38.31661987 C66.92793747 39.28641281 66.93502228 40.25620575 66.94232178 41.25538635 C66.93984436 42.31821335 66.93736694 43.38104034 66.93481445 44.47607422 C66.93992538 45.59679825 66.94503632 46.71752228 66.95030212 47.87220764 C66.96424448 51.59194224 66.96323664 55.31149231 66.9609375 59.03125 C66.96482431 61.61898874 66.96915895 64.20672684 66.97392273 66.79446411 C66.98139669 72.23018727 66.98122517 77.66583893 66.97583008 83.1015625 C66.96981667 89.35611275 66.98203155 95.61043654 67.00340015 101.86494815 C67.02326147 107.90321827 67.02617459 113.9413715 67.02266502 119.97967911 C67.02317621 122.53673964 67.02837568 125.09380394 67.03847694 127.65084457 C67.05092318 131.2451039 67.04399844 134.83885325 67.0324707 138.43310547 C67.04011444 139.47569016 67.04775818 140.51827484 67.05563354 141.592453 C67.00186499 149.2426031 65.62543706 156.21923247 63.66015625 163.6015625 C63.00015625 163.6015625 62.34015625 163.6015625 61.66015625 163.6015625 C61.41910156 164.62378906 61.17804688 165.64601562 60.9296875 166.69921875 C57.84466516 177.39593527 49.11635386 184.81563214 39.76953125 190.015625 C38.7434375 190.53898438 37.71734375 191.06234375 36.66015625 191.6015625 C35.8196875 192.04242188 34.97921875 192.48328125 34.11328125 192.9375 C19.52361184 200.03109788 0.55879318 197.45111882 -14.33984375 192.6015625 C-17.46568917 191.45784938 -20.39790431 190.15440961 -23.33984375 188.6015625 C-24.16613281 188.17488281 -24.99242188 187.74820313 -25.84375 187.30859375 C-32.17588964 183.92947072 -32.17588964 183.92947072 -33.33984375 181.6015625 C-34.07460937 181.17230469 -34.809375 180.74304688 -35.56640625 180.30078125 C-38.7622231 178.34278079 -41.08677906 176.08354369 -43.71484375 173.4140625 C-44.19598633 172.92574951 -44.67712891 172.43743652 -45.17285156 171.93432617 C-49.70265242 167.30198958 -53.92975695 162.45323253 -58.109375 157.5078125 C-60.76245795 154.40965899 -63.31480651 151.5030051 -66.52734375 148.9765625 C-69.33984375 146.6015625 -69.33984375 146.6015625 -71.21484375 143.7265625 C-73.59933414 140.21995899 -76.29272179 137.96852444 -79.51953125 135.265625 C-81.68104633 133.28964769 -82.90154305 131.13571134 -84.33984375 128.6015625 C-85.9951837 127.25419277 -87.65997148 125.91821914 -89.33984375 124.6015625 C-89.33984375 123.9415625 -89.33984375 123.2815625 -89.33984375 122.6015625 C-90.32984375 122.2715625 -91.31984375 121.9415625 -92.33984375 121.6015625 C-92.33984375 118.9615625 -92.33984375 116.3215625 -92.33984375 113.6015625 C-90.85484375 113.1065625 -90.85484375 113.1065625 -89.33984375 112.6015625 C-89.33984375 111.9415625 -89.33984375 111.2815625 -89.33984375 110.6015625 C-83.17244891 107.33561346 -78.30994673 105.84446511 -71.33984375 106.6015625 C-70.5509375 106.67246094 -69.76203125 106.74335937 -68.94921875 106.81640625 C-65.75052019 107.28773766 -63.24481973 107.66363221 -60.9453125 110.046875 C-60.1533724 111.22816358 -59.39351134 112.43147675 -58.6640625 113.65234375 C-56.20895085 117.26621016 -52.6828131 119.83658318 -49.33984375 122.6015625 C-49.00984375 122.9315625 -48.67984375 123.2615625 -48.33984375 123.6015625 C-45.5273946 123.73723326 -42.73610641 123.81222476 -39.921875 123.84765625 C-38.17512556 123.88061379 -36.42838089 123.91382509 -34.68164062 123.94726562 C-31.92117835 123.99455983 -29.16073273 124.03894269 -26.40014648 124.07836914 C-23.74050772 124.11825775 -21.08128297 124.16978298 -18.421875 124.22265625 C-17.60290237 124.2310704 -16.78392975 124.23948456 -15.94013977 124.24815369 C-11.3975336 124.34543239 -7.56741017 124.73537675 -3.33984375 126.6015625 C-3.00984375 127.2615625 -2.67984375 127.9215625 -2.33984375 128.6015625 C-0.34877127 129.61922177 1.65234448 130.61734104 3.66015625 131.6015625 C6.03515625 133.1640625 6.03515625 133.1640625 7.66015625 134.6015625 C7.66015625 135.2615625 7.66015625 135.9215625 7.66015625 136.6015625 C8.65015625 136.2715625 9.64015625 135.9415625 10.66015625 135.6015625 C10.31907823 132.72766434 9.81912912 131.74317627 7.62109375 129.78515625 C-1.84639371 123.39245702 -9.15114913 120.6194173 -20.70703125 120.28515625 C-21.72641281 120.2539846 -21.72641281 120.2539846 -22.76638794 120.22218323 C-24.91578041 120.1573262 -27.06528445 120.09810309 -29.21484375 120.0390625 C-30.68100065 119.99581638 -32.14714669 119.95220025 -33.61328125 119.90820312 C-37.1886865 119.80171146 -40.76421412 119.70026841 -44.33984375 119.6015625 C-44.38619861 107.44912522 -44.42172904 95.29670899 -44.44346809 83.14420128 C-44.45390211 77.50121308 -44.46805445 71.8582854 -44.49072266 66.21533203 C-44.51246448 60.76886017 -44.52441526 55.32244651 -44.52959824 49.8759346 C-44.53329157 47.79873361 -44.5405037 45.72153578 -44.55130386 43.64435959 C-44.56583645 40.73337691 -44.56782093 37.82263425 -44.56689453 34.91162109 C-44.57408508 34.05422333 -44.58127563 33.19682556 -44.58868408 32.31344604 C-44.57045744 27.01530156 -44.33288798 22.11453131 -40.90234375 17.7890625 C-37.94826294 15.54396108 -35.21313709 15.4874568 -31.65234375 15.5390625 C-30.43998047 15.55259766 -30.43998047 15.55259766 -29.203125 15.56640625 C-28.28080078 15.58380859 -28.28080078 15.58380859 -27.33984375 15.6015625 C-27.33984375 16.2615625 -27.33984375 16.9215625 -27.33984375 17.6015625 C-26.74171875 17.8696875 -26.14359375 18.1378125 -25.52734375 18.4140625 C-23.20668481 19.67384878 -21.93906273 20.50148951 -20.33984375 22.6015625 C-19.94111633 25.46794128 -19.94111633 25.46794128 -19.9074707 29.00073242 C-19.89218323 29.96699303 -19.89218323 29.96699303 -19.87658691 30.95277405 C-19.84642336 33.07928119 -19.83718644 35.20533816 -19.828125 37.33203125 C-19.81128069 38.80749513 -19.79313078 40.28294463 -19.77372742 41.75837708 C-19.72619382 45.63975534 -19.69640649 49.52107535 -19.67028809 53.40264893 C-19.64049931 57.36425281 -19.59396327 61.32565587 -19.54882812 65.28710938 C-19.46275692 73.05849418 -19.39542894 80.82989352 -19.33984375 88.6015625 C-17.35984375 89.0965625 -17.35984375 89.0965625 -15.33984375 89.6015625 C-15.36316017 88.10604858 -15.36316017 88.10604858 -15.38694763 86.58032227 C-15.52911454 77.16468375 -15.63390886 67.74926418 -15.70252895 58.33279419 C-15.73899455 53.49207681 -15.78842114 48.65222879 -15.86791992 43.81201172 C-15.94422047 39.13702915 -15.98588421 34.46288038 -16.00398445 29.787323 C-16.01687572 28.0075061 -16.04205059 26.22773265 -16.07995415 24.44827271 C-16.40071247 8.75949561 -16.40071247 8.75949561 -11.97485352 3.50512695 C-8.05766987 -0.11650797 -5.19869599 -0.38614798 0 0 Z " fill="#02DEB9" transform="translate(122.33984375,9.3984375)"/>
<path d="M0 0 C2.5 2.25 2.5 2.25 4.125 4.5 C4.57875 5.0775 5.0325 5.655 5.5 6.25 C6.82 6.25 8.14 6.25 9.5 6.25 C9.17 33.64 8.84 61.03 8.5 89.25 C6.52 88.755 6.52 88.755 4.5 88.25 C4.49857498 87.25885696 4.49714996 86.26771393 4.49568176 85.24653625 C4.47900781 75.90311771 4.43622222 66.56013448 4.36790943 57.2169466 C4.33362739 52.41352922 4.30852757 47.61043028 4.30444336 42.80688477 C4.300163 38.17059119 4.27172233 33.53501614 4.22656822 28.89894676 C4.21358478 27.13078179 4.20928855 25.36253087 4.21384621 23.59432411 C4.21874642 21.11588719 4.19268882 18.63955503 4.15942383 16.16137695 C4.17236229 15.0662529 4.17236229 15.0662529 4.18556213 13.94900513 C4.0985359 10.07797148 3.6323155 8.41130855 1.14628601 5.38053894 C-2.68480073 2.29611063 -4.91046935 0.89768389 -9.8125 0.6875 C-10.73675781 0.62433594 -11.66101563 0.56117187 -12.61328125 0.49609375 C-16.06579387 1.39776484 -17.96096206 2.82780951 -20.21238708 5.58390808 C-23.25991867 11.89403378 -22.34313811 19.77930454 -22.3046875 26.65234375 C-22.31594483 28.45839709 -22.32982861 30.2644358 -22.34622192 32.07044983 C-22.38219733 36.80687186 -22.38264142 41.54264757 -22.37554932 46.2791748 C-22.37463515 51.11917619 -22.40751281 55.958937 -22.4375 60.79882812 C-22.49130334 70.28261981 -22.50755116 79.76607251 -22.5 89.25 C-24.15 88.92 -25.8 88.59 -27.5 88.25 C-27.49920441 87.43425003 -27.49840881 86.61850006 -27.49758911 85.7780304 C-27.49537946 78.08266888 -27.52181732 70.38818728 -27.5802784 62.6930666 C-27.60932679 58.73703119 -27.62737243 54.78158807 -27.62011719 50.82543945 C-27.61352001 47.00595516 -27.63602834 43.18764084 -27.67855453 39.36839867 C-27.68967927 37.91283522 -27.69039139 36.45715302 -27.68042374 35.00158119 C-27.29764012 27.25925307 -27.29764012 27.25925307 -29.88909912 20.28768921 C-31.68165637 18.76269809 -31.68165637 18.76269809 -34.5 17.25 C-34.5 16.59 -34.5 15.93 -34.5 15.25 C-36.43956814 15.505602 -38.37665989 15.78004646 -40.3125 16.0625 C-41.93091797 16.28873047 -41.93091797 16.28873047 -43.58203125 16.51953125 C-46.6414765 17.28541647 -47.75351378 17.66798549 -49.5 20.25 C-50.78918388 24.9267169 -50.67314981 29.63366898 -50.70532227 34.4465332 C-50.72017166 35.82288185 -50.72017166 35.82288185 -50.73532104 37.22703552 C-50.76683901 40.25159143 -50.79165507 43.27616303 -50.81640625 46.30078125 C-50.83698415 48.40114239 -50.85798085 50.50149947 -50.87937927 52.60185242 C-50.93451352 58.1239187 -50.9839609 63.64602183 -51.03222656 69.16815186 C-51.08250476 74.80549388 -51.13815783 80.44278255 -51.19335938 86.08007812 C-51.30083517 97.13667315 -51.40230359 108.19331454 -51.5 119.25 C-50.59757568 119.23952637 -49.69515137 119.22905273 -48.76538086 119.21826172 C-45.39019167 119.18400464 -42.01518955 119.15901633 -38.63989258 119.14013672 C-37.18413359 119.1301315 -35.72839443 119.11652304 -34.27270508 119.09912109 C-32.1700346 119.07462956 -30.06763176 119.06346206 -27.96484375 119.0546875 C-26.702771 119.04421387 -25.44069824 119.03374023 -24.14038086 119.02294922 C-12.87486764 119.72557998 -3.91748336 125.16578232 4.5 132.25 C4.17 133.57 3.84 134.89 3.5 136.25 C2.51 136.25 1.52 136.25 0.5 136.25 C-1.16666667 134.58333333 -2.83333333 132.91666667 -4.5 131.25 C-6.48450156 130.21958573 -8.48199105 129.21314063 -10.5 128.25 C-10.83 127.59 -11.16 126.93 -11.5 126.25 C-15.98714471 124.86741553 -20.62806174 125.14942125 -25.2734375 125.1796875 C-27.00261424 125.17110418 -28.73178243 125.1606286 -30.4609375 125.1484375 C-33.16927574 125.13174966 -35.87569033 125.12500647 -38.58398438 125.15039062 C-53.7189944 125.27164708 -53.7189944 125.27164708 -58.18725586 122.70849609 C-59.90536752 120.97485322 -61.17060279 119.28466701 -62.5 117.25 C-63.8921875 116.198125 -63.8921875 116.198125 -65.3125 115.125 C-67.5 113.25 -67.5 113.25 -68.4375 110.5625 C-68.9634375 109.4178125 -68.9634375 109.4178125 -69.5 108.25 C-72.55272465 107.35169161 -72.55272465 107.35169161 -75.5 107.25 C-75.5 106.92 -75.5 106.59 -75.5 106.25 C-72.42651834 106.32087694 -69.48761281 106.49641609 -66.5 107.25 C-64.75 109.75 -64.75 109.75 -63.5 112.25 C-60.95948786 113.22610842 -60.95948786 113.22610842 -58.5 113.25 C-53.86245287 108.61245287 -56.29861315 90.89760302 -56.23963928 84.07751083 C-56.21825113 81.6224235 -56.191276 79.16744958 -56.16296387 76.71243286 C-56.0938664 70.63014589 -56.03354049 64.54777948 -55.97393799 58.46539307 C-55.92299695 53.29089992 -55.86824836 48.1164763 -55.80812073 42.94208145 C-55.78161209 40.52520057 -55.76077777 38.10831259 -55.7401123 35.69137573 C-55.7235169 34.21726151 -55.70664574 32.74315035 -55.68945312 31.26904297 C-55.67692505 29.98254852 -55.66439697 28.69605408 -55.65148926 27.37057495 C-55.5 24.25 -55.5 24.25 -54.5 21.25 C-53.84 20.92 -53.18 20.59 -52.5 20.25 C-52.17 19.26 -51.84 18.27 -51.5 17.25 C-50.84 17.25 -50.18 17.25 -49.5 17.25 C-49.5 16.59 -49.5 15.93 -49.5 15.25 C-48.365625 14.734375 -47.23125 14.21875 -46.0625 13.6875 C-44.10110246 12.67041851 -44.10110246 12.67041851 -42.5 11.25 C-41.4434891 7.61852515 -41.4434891 7.61852515 -41.5 4.25 C-40.18 4.25 -38.86 4.25 -37.5 4.25 C-37.005 6.725 -37.005 6.725 -36.5 9.25 C-37.82 9.58 -39.14 9.91 -40.5 10.25 C-40.5 10.91 -40.5 11.57 -40.5 12.25 C-33.41942944 11.87304128 -33.41942944 11.87304128 -27.5 8.25 C-26.51 8.25 -25.52 8.25 -24.5 8.25 C-24.17 7.26 -23.84 6.27 -23.5 5.25 C-22.84 5.25 -22.18 5.25 -21.5 5.25 C-21.273125 4.46625 -21.04625 3.6825 -20.8125 2.875 C-19.5 0.25 -19.5 0.25 -17.2578125 -0.890625 C-11.36750145 -2.72613269 -5.53152424 -2.76576212 0 0 Z " fill="#0F3A77" transform="translate(129.5,9.75)"/>
<path d="M0 0 C5.36166299 1.21247592 8.60991538 4.02620119 11.66015625 8.6015625 C11.87286363 11.19697716 11.97139444 13.68877204 11.97900391 16.28588867 C11.98904953 17.0666124 11.99909515 17.84733612 12.00944519 18.65171814 C12.04033946 21.23264834 12.05732954 23.81347452 12.07421875 26.39453125 C12.09292539 28.18387247 12.11249842 29.97320482 12.13290405 31.76252747 C12.18428456 36.47247089 12.22387856 41.18244293 12.26104736 45.89251709 C12.30104994 50.69859938 12.35215935 55.50456202 12.40234375 60.31054688 C12.49917309 69.74080143 12.58355543 79.17112346 12.66015625 88.6015625 C14.14515625 89.0965625 14.14515625 89.0965625 15.66015625 89.6015625 C15.66015625 63.2015625 15.66015625 36.8015625 15.66015625 9.6015625 C15.99015625 9.6015625 16.32015625 9.6015625 16.66015625 9.6015625 C16.66015625 36.6615625 16.66015625 63.7215625 16.66015625 91.6015625 C14.68015625 91.6015625 12.70015625 91.6015625 10.66015625 91.6015625 C8.69265889 89.63406514 9.50618425 85.79001246 9.50244141 83.10009766 C9.49736069 82.31473129 9.49227997 81.52936493 9.48704529 80.72019958 C9.47631849 79.00903069 9.46770743 77.29784756 9.46092606 75.58665848 C9.4491747 72.88048115 9.42973195 70.17446615 9.4078064 67.46835327 C9.34606257 59.77225117 9.29211327 52.07616447 9.25878906 44.37988281 C9.23787714 39.6777677 9.20260034 34.97594604 9.15803146 30.27399826 C9.1438412 28.47905297 9.13514223 26.68405575 9.13197708 24.88905716 C9.12708411 22.37966337 9.1039684 19.87105199 9.07666016 17.36181641 C9.07966629 16.61676346 9.08267242 15.87171051 9.08576965 15.1040802 C9.03109643 11.12896731 9.03109643 11.12896731 7.27474976 7.65951538 C3.29025084 5.04869594 -1.7440093 5.18375937 -6.33984375 5.6015625 C-9.02642389 7.70726045 -10.44052259 9.75258075 -12.33984375 12.6015625 C-12.54723422 15.12654639 -12.64074198 17.54434282 -12.64282227 20.07055664 C-12.65548126 21.20756264 -12.65548126 21.20756264 -12.668396 22.36753845 C-12.69419386 24.8739382 -12.706318 27.38022019 -12.71875 29.88671875 C-12.73492127 31.6264286 -12.75210087 33.36612935 -12.77024841 35.1058197 C-12.81596145 39.6867757 -12.8507544 44.26774378 -12.88244629 48.84881592 C-12.93429981 56.18545278 -12.99937395 63.52195594 -13.07066154 70.85842705 C-13.09353834 73.42546784 -13.10978075 75.99249154 -13.12538147 78.55958557 C-13.13878527 80.12704659 -13.15239982 81.69450583 -13.16625977 83.26196289 C-13.16887314 83.97941681 -13.17148651 84.69687073 -13.17417908 85.43606567 C-13.22621124 90.37429747 -13.22621124 90.37429747 -14.33984375 92.6015625 C-17.21484375 92.7265625 -17.21484375 92.7265625 -20.33984375 92.6015625 C-22.33984375 90.6015625 -22.33984375 90.6015625 -22.58035278 87.81747437 C-22.57591156 86.63166779 -22.57147034 85.44586121 -22.56689453 84.22412109 C-22.56718658 83.57033981 -22.56747864 82.91655853 -22.56777954 82.2429657 C-22.5663844 80.07850954 -22.55081495 77.91439614 -22.53515625 75.75 C-22.53142677 74.25070382 -22.52857949 72.7514052 -22.52658081 71.25210571 C-22.51893923 67.30319507 -22.49928635 63.35443121 -22.47717285 59.40557861 C-22.45672565 55.37717678 -22.44758151 51.34875126 -22.4375 47.3203125 C-22.41604086 39.41399509 -22.3818987 31.50779705 -22.33984375 23.6015625 C-23.65984375 22.9415625 -24.97984375 22.2815625 -26.33984375 21.6015625 C-26.33984375 20.6115625 -26.33984375 19.6215625 -26.33984375 18.6015625 C-27.94252195 18.49331407 -29.54730123 18.41585605 -31.15234375 18.3515625 C-32.49232422 18.28195313 -32.49232422 18.28195313 -33.859375 18.2109375 C-36.50350625 18.34399567 -36.50350625 18.34399567 -37.9765625 20.6171875 C-38.42644531 21.27203125 -38.87632813 21.926875 -39.33984375 22.6015625 C-40.32984375 22.6015625 -41.31984375 22.6015625 -42.33984375 22.6015625 C-42.33984375 53.9515625 -42.33984375 85.3015625 -42.33984375 117.6015625 C-20.06484375 117.1065625 -20.06484375 117.1065625 2.66015625 116.6015625 C1.67015625 117.0965625 1.67015625 117.0965625 0.66015625 117.6015625 C0.66015625 118.2615625 0.66015625 118.9215625 0.66015625 119.6015625 C2.14515625 120.0965625 2.14515625 120.0965625 3.66015625 120.6015625 C4.34765625 122.6640625 4.34765625 122.6640625 4.66015625 124.6015625 C5.32015625 124.6015625 5.98015625 124.6015625 6.66015625 124.6015625 C6.99015625 125.2615625 7.32015625 125.9215625 7.66015625 126.6015625 C8.61921875 126.7871875 8.61921875 126.7871875 9.59765625 126.9765625 C11.66015625 127.6015625 11.66015625 127.6015625 12.97265625 129.2890625 C13.88262956 132.34988181 13.41080105 134.53074284 12.66015625 137.6015625 C11.66015625 138.6015625 11.66015625 138.6015625 9.22265625 138.8515625 C8.37703125 138.7690625 7.53140625 138.6865625 6.66015625 138.6015625 C6.00015625 137.6115625 5.34015625 136.6215625 4.66015625 135.6015625 C2.35871516 134.53020199 0.02613495 133.52166533 -2.33984375 132.6015625 C-2.33984375 131.9415625 -2.33984375 131.2815625 -2.33984375 130.6015625 C-4.64984375 129.9415625 -6.95984375 129.2815625 -9.33984375 128.6015625 C-9.33984375 127.9415625 -9.33984375 127.2815625 -9.33984375 126.6015625 C-10.51490479 126.66851318 -11.68996582 126.73546387 -12.90063477 126.80444336 C-17.28082115 127.04429323 -21.66204471 127.2358865 -26.04516602 127.41333008 C-27.93803833 127.49662746 -29.83039053 127.59282155 -31.72192383 127.70239258 C-34.44966934 127.85812022 -37.17595551 127.96657644 -39.90625 128.06640625 C-40.74507217 128.12440903 -41.58389435 128.1824118 -42.44813538 128.24217224 C-46.0581988 128.33486843 -48.39526375 128.29912637 -51.36105347 126.10891724 C-53.21459961 124.24829102 -53.21459961 124.24829102 -54.80455017 122.39112854 C-56.33764069 120.60413042 -57.92573401 119.23536043 -59.77734375 117.7890625 C-61.04578125 116.70625 -61.04578125 116.70625 -62.33984375 115.6015625 C-62.33984375 114.9415625 -62.33984375 114.2815625 -62.33984375 113.6015625 C-71.88808957 110.44261015 -78.87244491 109.96025525 -88.33984375 113.6015625 C-88.07590874 117.03386698 -88.07590874 117.03386698 -87.33984375 120.6015625 C-86.34984375 121.2615625 -85.35984375 121.9215625 -84.33984375 122.6015625 C-83.65234375 125.7265625 -83.65234375 125.7265625 -83.33984375 128.6015625 C-88.21484375 125.9765625 -88.21484375 125.9765625 -89.33984375 122.6015625 C-90.32984375 122.2715625 -91.31984375 121.9415625 -92.33984375 121.6015625 C-92.33984375 118.9615625 -92.33984375 116.3215625 -92.33984375 113.6015625 C-90.85484375 113.1065625 -90.85484375 113.1065625 -89.33984375 112.6015625 C-89.33984375 111.9415625 -89.33984375 111.2815625 -89.33984375 110.6015625 C-83.17244891 107.33561346 -78.30994673 105.84446511 -71.33984375 106.6015625 C-70.5509375 106.67246094 -69.76203125 106.74335937 -68.94921875 106.81640625 C-65.75052019 107.28773766 -63.24481973 107.66363221 -60.9453125 110.046875 C-60.1533724 111.22816358 -59.39351134 112.43147675 -58.6640625 113.65234375 C-56.20895085 117.26621016 -52.6828131 119.83658318 -49.33984375 122.6015625 C-49.00984375 122.9315625 -48.67984375 123.2615625 -48.33984375 123.6015625 C-45.5273946 123.73723326 -42.73610641 123.81222476 -39.921875 123.84765625 C-38.17512556 123.88061379 -36.42838089 123.91382509 -34.68164062 123.94726562 C-31.92117835 123.99455983 -29.16073273 124.03894269 -26.40014648 124.07836914 C-23.74050772 124.11825775 -21.08128297 124.16978298 -18.421875 124.22265625 C-17.60290237 124.2310704 -16.78392975 124.23948456 -15.94013977 124.24815369 C-11.3975336 124.34543239 -7.56741017 124.73537675 -3.33984375 126.6015625 C-3.00984375 127.2615625 -2.67984375 127.9215625 -2.33984375 128.6015625 C-0.34877127 129.61922177 1.65234448 130.61734104 3.66015625 131.6015625 C6.03515625 133.1640625 6.03515625 133.1640625 7.66015625 134.6015625 C7.66015625 135.2615625 7.66015625 135.9215625 7.66015625 136.6015625 C8.65015625 136.2715625 9.64015625 135.9415625 10.66015625 135.6015625 C10.31907823 132.72766434 9.81912912 131.74317627 7.62109375 129.78515625 C-1.84639371 123.39245702 -9.15114913 120.6194173 -20.70703125 120.28515625 C-21.72641281 120.2539846 -21.72641281 120.2539846 -22.76638794 120.22218323 C-24.91578041 120.1573262 -27.06528445 120.09810309 -29.21484375 120.0390625 C-30.68100065 119.99581638 -32.14714669 119.95220025 -33.61328125 119.90820312 C-37.1886865 119.80171146 -40.76421412 119.70026841 -44.33984375 119.6015625 C-44.38619861 107.44912522 -44.42172904 95.29670899 -44.44346809 83.14420128 C-44.45390211 77.50121308 -44.46805445 71.8582854 -44.49072266 66.21533203 C-44.51246448 60.76886017 -44.52441526 55.32244651 -44.52959824 49.8759346 C-44.53329157 47.79873361 -44.5405037 45.72153578 -44.55130386 43.64435959 C-44.56583645 40.73337691 -44.56782093 37.82263425 -44.56689453 34.91162109 C-44.57408508 34.05422333 -44.58127563 33.19682556 -44.58868408 32.31344604 C-44.57045744 27.01530156 -44.33288798 22.11453131 -40.90234375 17.7890625 C-37.94826294 15.54396108 -35.21313709 15.4874568 -31.65234375 15.5390625 C-30.43998047 15.55259766 -30.43998047 15.55259766 -29.203125 15.56640625 C-28.28080078 15.58380859 -28.28080078 15.58380859 -27.33984375 15.6015625 C-27.33984375 16.2615625 -27.33984375 16.9215625 -27.33984375 17.6015625 C-26.74171875 17.8696875 -26.14359375 18.1378125 -25.52734375 18.4140625 C-23.20668481 19.67384878 -21.93906273 20.50148951 -20.33984375 22.6015625 C-19.94111633 25.46794128 -19.94111633 25.46794128 -19.9074707 29.00073242 C-19.89218323 29.96699303 -19.89218323 29.96699303 -19.87658691 30.95277405 C-19.84642336 33.07928119 -19.83718644 35.20533816 -19.828125 37.33203125 C-19.81128069 38.80749513 -19.79313078 40.28294463 -19.77372742 41.75837708 C-19.72619382 45.63975534 -19.69640649 49.52107535 -19.67028809 53.40264893 C-19.64049931 57.36425281 -19.59396327 61.32565587 -19.54882812 65.28710938 C-19.46275692 73.05849418 -19.39542894 80.82989352 -19.33984375 88.6015625 C-17.35984375 89.0965625 -17.35984375 89.0965625 -15.33984375 89.6015625 C-15.36316017 88.10604858 -15.36316017 88.10604858 -15.38694763 86.58032227 C-15.52911454 77.16468375 -15.63390886 67.74926418 -15.70252895 58.33279419 C-15.73899455 53.49207681 -15.78842114 48.65222879 -15.86791992 43.81201172 C-15.94422047 39.13702915 -15.98588421 34.46288038 -16.00398445 29.787323 C-16.01687572 28.0075061 -16.04205059 26.22773265 -16.07995415 24.44827271 C-16.40071247 8.75949561 -16.40071247 8.75949561 -11.97485352 3.50512695 C-8.05766987 -0.11650797 -5.19869599 -0.38614798 0 0 Z " fill="#1CD3C4" transform="translate(122.33984375,9.3984375)"/>
<path d="M0 0 C3.49373649 1.65492781 5.32944272 2.7268411 7.13241577 6.15007019 C8.23056078 9.75736975 8.30779644 13.17637604 8.31884766 16.91137695 C8.32889328 17.69239273 8.3389389 18.47340851 8.34928894 19.27809143 C8.38006966 21.84814753 8.39714174 24.41809969 8.4140625 26.98828125 C8.43277827 28.77476391 8.45235199 30.56123776 8.4727478 32.34770203 C8.5240318 37.04117642 8.5636775 41.73467946 8.60089111 46.42828369 C8.64095415 51.22114121 8.69203601 56.01387993 8.7421875 60.80664062 C8.8389026 70.20434359 8.92332154 79.60211369 9 89 C10.485 89.495 10.485 89.495 12 90 C11.98889694 89.29922333 11.97779388 88.59844666 11.96635437 87.87643433 C11.8659619 81.25616234 11.78993935 74.63610429 11.74093914 68.01524162 C11.71489976 64.61171744 11.67960908 61.20882481 11.62280273 57.80566406 C11.5578336 53.88875011 11.53377247 49.97208742 11.51171875 46.0546875 C11.48591232 44.83884979 11.4601059 43.62301208 11.43351746 42.37033081 C11.43039311 32.93306994 11.43039311 32.93306994 14.39013672 29.24316406 C17.71149611 26.38847275 19.54100048 25.96982498 23.78125 25.7578125 C27.31562734 26.14360721 29.37656412 27.69649533 32 30 C34.13809977 33.20714966 34.25172372 34.02982263 34.26069641 37.71505737 C34.26778122 38.68485031 34.27486603 39.65464325 34.28216553 40.65382385 C34.27968811 41.71665085 34.27721069 42.77947784 34.2746582 43.87451172 C34.27976913 44.99523575 34.28488007 46.11595978 34.29014587 47.27064514 C34.30408823 50.99037974 34.30308039 54.70992981 34.30078125 58.4296875 C34.30466806 61.01742624 34.3090027 63.60516434 34.31376648 66.19290161 C34.32124044 71.62862477 34.32106892 77.06427643 34.31567383 82.5 C34.30966042 88.75455025 34.3218753 95.00887404 34.3432439 101.26338565 C34.36310522 107.30165577 34.36601834 113.339809 34.36250877 119.37811661 C34.36301996 121.93517714 34.36821943 124.49224144 34.37832069 127.04928207 C34.39076693 130.6435414 34.38384219 134.23729075 34.37231445 137.83154297 C34.38378006 139.39542 34.38378006 139.39542 34.39547729 140.9908905 C34.34170874 148.6410406 32.96528081 155.61766997 31 163 C30.34 163 29.68 163 29 163 C28.773125 164.01191406 28.54625 165.02382812 28.3125 166.06640625 C27.07351717 170.39521157 24.79152579 173.46404434 22 176.9375 C21.54882812 177.52595703 21.09765625 178.11441406 20.6328125 178.72070312 C19.47732461 180.19241181 18.24414566 181.60243773 17 183 C16.34 183 15.68 183 15 183 C15 182.34 15 181.68 15 181 C15.66 181 16.32 181 17 181 C17.0825 180.21625 17.165 179.4325 17.25 178.625 C17.4975 177.75875 17.745 176.8925 18 176 C19.31647119 175.30062468 20.65022151 174.63270867 22 174 C22.67156616 172.06381575 22.67156616 172.06381575 23 170 C23.66 169.01 24.32 168.02 25 167 C25.66 167 26.32 167 27 167 C26.95875 165.783125 26.9175 164.56625 26.875 163.3125 C26.86867672 159.69558346 27.61151482 157.34869955 29 154 C29.95006177 147.21449169 30.16650779 140.54161231 30.20532227 133.69702148 C30.21522186 132.60330734 30.22512146 131.5095932 30.23532104 130.38273621 C30.26671284 126.79554349 30.29160456 123.20833756 30.31640625 119.62109375 C30.33699508 117.12288585 30.35799204 114.62468129 30.37937927 112.1264801 C30.42878788 106.24066876 30.47410414 100.35483722 30.51740164 94.46897799 C30.57183629 87.10363279 30.63268956 79.73834289 30.69335938 72.37304688 C30.800697 59.24873562 30.90237393 46.1243869 31 33 C29.35 32.34 27.7 31.68 26 31 C26 30.34 26 29.68 26 29 C25.113125 29.309375 24.22625 29.61875 23.3125 29.9375 C20.52817128 30.83058657 17.8648202 31.4582708 15 32 C14.9845388 33.08661171 14.9845388 33.08661171 14.96876526 34.19517517 C14.87095232 41.00851902 14.76846141 47.821778 14.66066074 54.63497066 C14.60540045 58.13804355 14.55197566 61.64112473 14.50268555 65.14428711 C14.44599332 69.16790144 14.38142599 73.19135531 14.31640625 77.21484375 C14.29133751 79.11012062 14.29133751 79.11012062 14.26576233 81.04368591 C14.24581711 82.204814 14.22587189 83.36594208 14.20532227 84.56225586 C14.18977798 85.59039902 14.1742337 86.61854218 14.15821838 87.67784119 C14 90 14 90 13 91 C11.00041636 91.04080783 8.99954746 91.04254356 7 91 C5.52405287 88.04810573 5.84709242 85.05249705 5.84228516 81.81567383 C5.83466408 80.70556442 5.83466408 80.70556442 5.82688904 79.57302856 C5.816176 77.9628347 5.80755949 76.35262585 5.80076981 74.74241066 C5.78898605 72.19047389 5.76953256 69.63870677 5.74765015 67.08683777 C5.68603109 59.8300037 5.63206862 52.57318499 5.59863281 45.31616211 C5.57763642 40.87870702 5.54228841 36.44155794 5.49787521 32.00427818 C5.48374871 30.31591086 5.47500036 28.62748936 5.47182083 26.93906593 C5.46688818 24.569487 5.44366914 22.20071299 5.41650391 19.83129883 C5.41951004 19.13960098 5.42251617 18.44790314 5.4256134 17.73524475 C5.34110522 12.74822636 4.22980833 9.3717489 2 5 C0.33333333 3.33333333 0.33333333 3.33333333 -2 3 C-5.51745287 3.25248627 -5.51745287 3.25248627 -9 4 C-10.1446875 4.1546875 -10.1446875 4.1546875 -11.3125 4.3125 C-13.21484047 4.89193625 -13.21484047 4.89193625 -14.25 7.0625 C-14.4975 7.701875 -14.745 8.34125 -15 9 C-15.8125 7.3125 -15.8125 7.3125 -16 5 C-12.05528951 -1.19883077 -6.67835617 -1.0575696 0 0 Z " fill="#25B3BA" transform="translate(155,10)"/>
<path d="M0 0 C2.04166285 -0.02120421 4.08390241 0.00998854 6.125 0.0625 C7.83042969 0.07990234 7.83042969 0.07990234 9.5703125 0.09765625 C13.6308369 1.1659719 15.31599029 2.37525306 17.84814453 5.66235352 C20.21288557 10.46150474 19.88693468 15.6892226 19.875 20.9375 C19.895625 22.09830078 19.91625 23.25910156 19.9375 24.45507812 C19.9843976 27.30410721 20.00445955 30.15066559 20 33 C20.27972656 32.37738281 20.55945313 31.75476563 20.84765625 31.11328125 C22.65683344 27.79543427 24.43019187 27.18993604 28 26 C33.14847698 25.80372375 37.52836864 26.23475169 42.125 28.625 C46.441051 34.09199793 45.16655412 42.95364858 45.19287109 49.60400391 C45.20513733 51.32985718 45.20513733 51.32985718 45.21765137 53.09057617 C45.24239668 56.88589979 45.25899368 60.68118628 45.2734375 64.4765625 C45.27876118 65.77782452 45.28408485 67.07908653 45.28956985 68.41978073 C45.31117188 73.89302177 45.32990325 79.36626008 45.34119225 84.83953285 C45.35740235 92.64301883 45.39053862 100.44600486 45.44759309 108.24930251 C45.4864819 113.75873049 45.50584712 119.2680258 45.51111281 124.77758729 C45.51474053 128.05730146 45.52904698 131.33636261 45.55921555 134.61595535 C45.80669851 163.1470498 45.80669851 163.1470498 40 171 C37.83016968 171.80361938 37.83016968 171.80361938 36 172 C36.66 169.69 37.32 167.38 38 165 C38.66 165 39.32 165 40 165 C40.144375 163.783125 40.28875 162.56625 40.4375 161.3125 C40.70445127 159.06248212 41.02458695 156.88826881 41.51183891 154.67403603 C41.99272974 152.03982482 42.12580337 149.65149802 42.12698364 146.97714233 C42.12980347 145.99014847 42.13262329 145.0031546 42.13552856 143.98625183 C42.13350433 142.91490494 42.1314801 141.84355804 42.12939453 140.73974609 C42.13114685 139.60266708 42.13289917 138.46558807 42.13470459 137.29405212 C42.1391044 133.53716504 42.13619205 129.78032506 42.1328125 126.0234375 C42.13348598 123.41460155 42.13445638 120.80576566 42.13571167 118.19692993 C42.13752918 112.73121632 42.13513749 107.26551624 42.13037109 101.79980469 C42.12492383 95.48033484 42.12669618 89.16089723 42.1321975 82.84142816 C42.13728018 76.75935906 42.13674509 70.67730426 42.13381577 64.59523392 C42.13314741 62.00758484 42.13397175 59.41993495 42.13629532 56.83228683 C42.13882607 53.22199043 42.13497545 49.61175657 42.12939453 46.00146484 C42.13141876 44.92606949 42.13344299 43.85067413 42.13552856 42.74269104 C42.13270874 41.76133682 42.12988892 40.7799826 42.12698364 39.76889038 C42.12660662 38.91535162 42.12622959 38.06181286 42.12584114 37.18240929 C42.08487421 34.8194701 42.08487421 34.8194701 41 32 C39.08333333 30.83333333 39.08333333 30.83333333 37 30 C36.34 29.67 35.68 29.34 35 29 C32.9200185 28.90898926 32.9200185 28.90898926 30.625 29.125 C29.46871094 29.19074219 29.46871094 29.19074219 28.2890625 29.2578125 C24.974121 30.33262288 23.92068446 32.13975598 22 35 C21.39187127 37.79346162 21.39187127 37.79346162 21.45410156 40.80004883 C21.42452362 42.51125664 21.42452362 42.51125664 21.39434814 44.2570343 C21.39250519 46.08853279 21.39250519 46.08853279 21.390625 47.95703125 C21.37408875 49.21513107 21.35755249 50.4732309 21.34051514 51.76945496 C21.30021503 55.10196091 21.27686464 58.43370343 21.26177979 61.76635742 C21.24217401 65.17186968 21.20020814 68.57709957 21.16015625 71.98242188 C21.08620769 78.65487896 21.03460391 85.32722915 21 92 C19.68 91.67 18.36 91.34 17 91 C16.98969254 90.00885696 16.97938507 89.01771393 16.96876526 87.99653625 C16.87098414 78.65328187 16.76824561 69.31009339 16.66066074 59.9669466 C16.60551029 55.16361561 16.55210297 50.36027844 16.50268555 45.55688477 C16.4549257 40.92085243 16.40257887 36.28489244 16.34705925 31.64894676 C16.32668829 29.88075756 16.30796666 28.11254855 16.29092598 26.34432411 C16.26676528 23.86660235 16.23672705 21.38901602 16.20532227 18.91137695 C16.19668907 17.8162529 16.19668907 17.8162529 16.18788147 16.69900513 C16.11038217 11.27652632 16.11038217 11.27652632 15 6 C12.55711372 4.68931667 12.55711372 4.68931667 10 4 C9.67 3.67 9.34 3.34 9 3 C7.48530552 2.76807135 5.96245438 2.58784762 4.4375 2.4375 C3.61121094 2.35371094 2.78492188 2.26992187 1.93359375 2.18359375 C1.29550781 2.12300781 0.65742188 2.06242188 0 2 C0 1.34 0 0.68 0 0 Z " fill="#012D68" transform="translate(146,8)"/>
<path d="M0 0 C0.66 0 1.32 0 2 0 C2 32.67 2 65.34 2 99 C14.54 99 27.08 99 40 99 C53.5 105.75 53.5 105.75 59 111 C58.505 112.98 58.505 112.98 58 115 C57.01 115 56.02 115 55 115 C53.33333333 113.33333333 51.66666667 111.66666667 50 110 C48.01549844 108.96958573 46.01800895 107.96314063 44 107 C43.67 106.34 43.34 105.68 43 105 C38.51285529 103.61741553 33.87193826 103.89942125 29.2265625 103.9296875 C27.49738576 103.92110418 25.76821757 103.9106286 24.0390625 103.8984375 C21.33072426 103.88174966 18.62430967 103.87500647 15.91601562 103.90039062 C0.7810056 104.02164708 0.7810056 104.02164708 -3.68725586 101.45849609 C-5.40536752 99.72485322 -6.67060279 98.03466701 -8 96 C-9.3921875 94.948125 -9.3921875 94.948125 -10.8125 93.875 C-13 92 -13 92 -13.9375 89.3125 C-14.4634375 88.1678125 -14.4634375 88.1678125 -15 87 C-18.05272465 86.10169161 -18.05272465 86.10169161 -21 86 C-21 85.67 -21 85.34 -21 85 C-17.92651834 85.07087694 -14.98761281 85.24641609 -12 86 C-10.25 88.5 -10.25 88.5 -9 91 C-6.45948786 91.97610842 -6.45948786 91.97610842 -4 92 C0.63754713 87.36245287 -1.79861315 69.64760302 -1.73963928 62.82751083 C-1.71825113 60.3724235 -1.691276 57.91744958 -1.66296387 55.46243286 C-1.5938664 49.38014589 -1.53354049 43.29777948 -1.47393799 37.21539307 C-1.42299695 32.04089992 -1.36824836 26.8664763 -1.30812073 21.69208145 C-1.28161209 19.27520057 -1.26077777 16.85831259 -1.2401123 14.44137573 C-1.2235169 12.96726151 -1.20664574 11.49315035 -1.18945312 10.01904297 C-1.17692505 8.73254852 -1.16439697 7.44605408 -1.15148926 6.12057495 C-1 3 -1 3 0 0 Z " fill="#091E63" transform="translate(75,31)"/>
<path d="M0 0 C5.36166299 1.21247592 8.60991538 4.02620119 11.66015625 8.6015625 C11.87286363 11.19697716 11.97139444 13.68877204 11.97900391 16.28588867 C11.98904953 17.0666124 11.99909515 17.84733612 12.00944519 18.65171814 C12.04033946 21.23264834 12.05732954 23.81347452 12.07421875 26.39453125 C12.09292539 28.18387247 12.11249842 29.97320482 12.13290405 31.76252747 C12.18428456 36.47247089 12.22387856 41.18244293 12.26104736 45.89251709 C12.30104994 50.69859938 12.35215935 55.50456202 12.40234375 60.31054688 C12.49917309 69.74080143 12.58355543 79.17112346 12.66015625 88.6015625 C13.65015625 88.9315625 14.64015625 89.2615625 15.66015625 89.6015625 C15.66015625 63.2015625 15.66015625 36.8015625 15.66015625 9.6015625 C15.99015625 9.6015625 16.32015625 9.6015625 16.66015625 9.6015625 C16.66015625 36.6615625 16.66015625 63.7215625 16.66015625 91.6015625 C14.68015625 91.6015625 12.70015625 91.6015625 10.66015625 91.6015625 C8.69265889 89.63406514 9.50618425 85.79001246 9.50244141 83.10009766 C9.49482033 81.92204811 9.49482033 81.92204811 9.48704529 80.72019958 C9.47631849 79.00903069 9.46770743 77.29784756 9.46092606 75.58665848 C9.4491747 72.88048115 9.42973195 70.17446615 9.4078064 67.46835327 C9.34606257 59.77225117 9.29211327 52.07616447 9.25878906 44.37988281 C9.23787714 39.6777677 9.20260034 34.97594604 9.15803146 30.27399826 C9.1438412 28.47905297 9.13514223 26.68405575 9.13197708 24.88905716 C9.12708411 22.37966337 9.1039684 19.87105199 9.07666016 17.36181641 C9.07966629 16.61676346 9.08267242 15.87171051 9.08576965 15.1040802 C9.03109643 11.12896731 9.03109643 11.12896731 7.27474976 7.65951538 C3.29025084 5.04869594 -1.7440093 5.18375937 -6.33984375 5.6015625 C-9.02642389 7.70726045 -10.44052259 9.75258075 -12.33984375 12.6015625 C-12.54723422 15.12654639 -12.64074198 17.54434282 -12.64282227 20.07055664 C-12.6512616 20.82856064 -12.65970093 21.58656464 -12.668396 22.36753845 C-12.69419386 24.8739382 -12.706318 27.38022019 -12.71875 29.88671875 C-12.73492127 31.6264286 -12.75210087 33.36612935 -12.77024841 35.1058197 C-12.81596145 39.6867757 -12.8507544 44.26774378 -12.88244629 48.84881592 C-12.93429981 56.18545278 -12.99937395 63.52195594 -13.07066154 70.85842705 C-13.09353834 73.42546784 -13.10978075 75.99249154 -13.12538147 78.55958557 C-13.13878527 80.12704659 -13.15239982 81.69450583 -13.16625977 83.26196289 C-13.17017982 84.33814377 -13.17017982 84.33814377 -13.17417908 85.43606567 C-13.22621124 90.37429747 -13.22621124 90.37429747 -14.33984375 92.6015625 C-16.31984375 92.6015625 -18.29984375 92.6015625 -20.33984375 92.6015625 C-21.46643894 89.22177692 -21.46005358 86.67340114 -21.45336914 83.1105957 C-21.45351517 82.4566684 -21.45366119 81.80274109 -21.45381165 81.1289978 C-21.45311563 78.97007924 -21.44533783 76.81124722 -21.4375 74.65234375 C-21.43563471 73.15447537 -21.43421133 71.65660639 -21.43321228 70.15873718 C-21.42939582 66.21811231 -21.41957295 62.27752436 -21.4085083 58.33691406 C-21.39827547 54.31510925 -21.39371065 50.29329846 -21.38867188 46.27148438 C-21.37794991 38.38149349 -21.36088392 30.49153259 -21.33984375 22.6015625 C-21.00984375 22.6015625 -20.67984375 22.6015625 -20.33984375 22.6015625 C-20.00984375 44.3815625 -19.67984375 66.1615625 -19.33984375 88.6015625 C-18.01984375 88.9315625 -16.69984375 89.2615625 -15.33984375 89.6015625 C-15.35538803 88.60455322 -15.37093231 87.60754395 -15.38694763 86.58032227 C-15.52911454 77.16468375 -15.63390886 67.74926418 -15.70252895 58.33279419 C-15.73899455 53.49207681 -15.78842114 48.65222879 -15.86791992 43.81201172 C-15.94422047 39.13702915 -15.98588421 34.46288038 -16.00398445 29.787323 C-16.01687572 28.0075061 -16.04205059 26.22773265 -16.07995415 24.44827271 C-16.40071247 8.75949561 -16.40071247 8.75949561 -11.97485352 3.50512695 C-8.05766987 -0.11650797 -5.19869599 -0.38614798 0 0 Z " fill="#23B5BB" transform="translate(122.33984375,9.3984375)"/>
<path d="M0 0 C0.66 0 1.32 0 2 0 C1.979375 0.64066406 1.95875 1.28132813 1.9375 1.94140625 C2.04550254 7.44374078 2.04550254 7.44374078 4.77734375 12.046875 C6.20766793 13.21596456 7.66106595 14.35742356 9.13671875 15.46875 C11.44142475 17.36276416 12.0473014 19.22129576 13 22 C14.32873992 22.67577545 15.66285461 23.34101258 17 24 C18.8515625 25.5859375 18.8515625 25.5859375 20.625 27.375 C21.21539062 27.96023437 21.80578125 28.54546875 22.4140625 29.1484375 C24 31 24 31 25.0234375 33.1015625 C25.97882618 35.3369996 25.97882618 35.3369996 29 37 C29 37.66 29 38.32 29 39 C30.485 39.495 30.485 39.495 32 40 C33.6484375 41.671875 33.6484375 41.671875 35.375 43.75 C37.32292137 46.04692395 39.24355074 48.24355074 41.375 50.375 C43.84658114 52.84658114 46.1711293 55.39443179 48.5 58 C54.39668037 65.08565084 54.39668037 65.08565084 62 70 C62 70.66 62 71.32 62 72 C62.99 72.37125 62.99 72.37125 64 72.75 C66.36212505 73.73421877 68.59768881 74.78112214 70.875 75.9375 C71.57109375 76.28554687 72.2671875 76.63359375 72.984375 76.9921875 C74.69791667 77.84895833 76.41145833 78.70572917 78.125 79.5625 C92.94047176 85.62186148 112.41422309 86.67190077 127.37109375 80.640625 C139.10180485 75.33718188 146.10455472 69.69061284 153 59 C153.66 59.99 154.32 60.98 155 62 C153.78275556 63.77904957 152.55066343 65.54794546 151.3125 67.3125 C150.62800781 68.29863281 149.94351563 69.28476563 149.23828125 70.30078125 C146.9734628 73.0320021 145.11520651 74.37227956 142 76 C137.40315523 78.87011854 137.40315523 78.87011854 134 83 C132.0959986 83.28560021 130.1868778 83.56660046 128.265625 83.69140625 C125.88716975 83.92916528 125.88716975 83.92916528 123.34179688 85.00488281 C119.57808252 86.1256382 116.15058101 86.27124541 112.265625 86.23046875 C111.54638855 86.23001053 110.8271521 86.22955231 110.08612061 86.2290802 C108.57676529 86.22607609 107.06741255 86.21824545 105.55810547 86.20581055 C103.24305316 86.18744489 100.92839915 86.18530189 98.61328125 86.18554688 C97.1432257 86.18063495 95.67317285 86.17480806 94.203125 86.16796875 C93.16409027 86.16629951 93.16409027 86.16629951 92.10406494 86.16459656 C87.23224024 86.11612012 87.23224024 86.11612012 85 85 C85 84.34 85 83.68 85 83 C81.37 83 77.74 83 74 83 C74 82.34 74 81.68 74 81 C72.741875 80.896875 71.48375 80.79375 70.1875 80.6875 C66.26229675 80.18993902 66.26229675 80.18993902 64.1875 78.6875 C63.3328787 77.47303815 62.50226777 76.24155089 61.6875 75 C59.49381256 72.40007415 57.04527903 71.4591962 54 70 C52.125 68.5625 52.125 68.5625 51 67 C51 65.68 51 64.36 51 63 C48.03 62.505 48.03 62.505 45 62 C44.87625 61.360625 44.7525 60.72125 44.625 60.0625 C44.41875 59.381875 44.2125 58.70125 44 58 C43.01 57.505 43.01 57.505 42 57 C42 56.34 42 55.68 42 55 C41.360625 54.773125 40.72125 54.54625 40.0625 54.3125 C38 53 38 53 37.25 50.375 C37.1675 49.59125 37.085 48.8075 37 48 C36.41476563 47.92394531 35.82953125 47.84789062 35.2265625 47.76953125 C32.24134607 46.73779855 31.24494804 45.20410408 29.375 42.6875 C28.78460938 41.90761719 28.19421875 41.12773437 27.5859375 40.32421875 C26 38 26 38 24.9140625 35.78125 C23.70910695 33.43313149 22.40050166 32.9752038 20 32 C19.34 31.67 18.68 31.34 18 31 C18 30.34 18 29.68 18 29 C17.34 29 16.68 29 16 29 C15.67 28.01 15.34 27.02 15 26 C14.01 25.175 13.02 24.35 12 23.5 C9 21 9 21 8 18 C7.236875 17.773125 6.47375 17.54625 5.6875 17.3125 C2.1599743 15.58975489 1.30243049 13.67129802 -0.28125 10.171875 C-1.31963 7.03416151 -1.33310651 4.26444383 -1 1 C-0.67 0.67 -0.34 0.34 0 0 Z " fill="#0F2A6D" transform="translate(28,121)"/>
<path d="M0 0 C0.78890625 0.07089844 1.5778125 0.14179687 2.390625 0.21484375 C5.58932356 0.68617516 8.09502402 1.06206971 10.39453125 3.4453125 C11.18647135 4.62660108 11.94633241 5.82991425 12.67578125 7.05078125 C15.1308929 10.66464766 18.65703065 13.23502068 22 16 C22.33 16.33 22.66 16.66 23 17 C25.81244915 17.13567076 28.60373734 17.21066226 31.41796875 17.24609375 C33.16471819 17.27905129 34.91146286 17.31226259 36.65820312 17.34570312 C39.4186654 17.39299733 42.17911102 17.43738019 44.93969727 17.47680664 C47.59933603 17.51669525 50.25856078 17.56822048 52.91796875 17.62109375 C53.73694138 17.6295079 54.555914 17.63792206 55.39970398 17.64659119 C59.94231015 17.74386989 63.77243358 18.13381425 68 20 C68.495 20.99 68.495 20.99 69 22 C70.99107248 23.01765927 72.99218823 24.01577854 75 25 C77.375 26.5625 77.375 26.5625 79 28 C79 28.66 79 29.32 79 30 C79.99 29.67 80.98 29.34 82 29 C81.62669176 26.27425729 81.20805399 25.19177915 79.15234375 23.296875 C78.05599609 22.53117187 78.05599609 22.53117187 76.9375 21.75 C76.20402344 21.22921875 75.47054687 20.7084375 74.71484375 20.171875 C74.14894531 19.78515625 73.58304687 19.3984375 73 19 C75 18 75 18 77.9375 18.8125 C81 20 81 20 84 22 C84.8125 25.4375 84.8125 25.4375 85 29 C84.01 30.485 84.01 30.485 83 32 C80.5 32.375 80.5 32.375 78 32 C77.01 30.515 77.01 30.515 76 29 C73.69855891 27.92863949 71.3659787 26.92010283 69 26 C69 25.34 69 24.68 69 24 C66.69 23.34 64.38 22.68 62 22 C62 21.34 62 20.68 62 20 C60.23740845 20.10042603 60.23740845 20.10042603 58.43920898 20.20288086 C54.0590226 20.44273073 49.67779904 20.634324 45.29467773 20.81176758 C43.40180542 20.89506496 41.50945322 20.99125905 39.61791992 21.10083008 C36.89017441 21.25655772 34.16388824 21.36501394 31.43359375 21.46484375 C30.59477158 21.52284653 29.7559494 21.5808493 28.89170837 21.64060974 C25.28164495 21.73330593 22.94458 21.69756387 19.97879028 19.50735474 C18.12524414 17.64672852 18.12524414 17.64672852 16.53529358 15.78956604 C15.00220306 14.00256792 13.41410974 12.63379793 11.5625 11.1875 C10.716875 10.465625 9.87125 9.74375 9 9 C9 8.34 9 7.68 9 7 C-0.54824582 3.84104765 -7.53260116 3.35869275 -17 7 C-16.73606499 10.43230448 -16.73606499 10.43230448 -16 14 C-15.01 14.66 -14.02 15.32 -13 16 C-12.3125 19.125 -12.3125 19.125 -12 22 C-16.875 19.375 -16.875 19.375 -18 16 C-18.99 15.67 -19.98 15.34 -21 15 C-21 12.36 -21 9.72 -21 7 C-20.01 6.67 -19.02 6.34 -18 6 C-18 5.34 -18 4.68 -18 4 C-11.83260516 0.73405096 -6.97010298 -0.75709739 0 0 Z " fill="#24B4BA" transform="translate(51,116)"/>
<path d="M0 0 C3.49373649 1.65492781 5.32944272 2.7268411 7.13241577 6.15007019 C8.23056078 9.75736975 8.30779644 13.17637604 8.31884766 16.91137695 C8.32889328 17.69239273 8.3389389 18.47340851 8.34928894 19.27809143 C8.38006966 21.84814753 8.39714174 24.41809969 8.4140625 26.98828125 C8.43277827 28.77476391 8.45235199 30.56123776 8.4727478 32.34770203 C8.5240318 37.04117642 8.5636775 41.73467946 8.60089111 46.42828369 C8.64095415 51.22114121 8.69203601 56.01387993 8.7421875 60.80664062 C8.8389026 70.20434359 8.92332154 79.60211369 9 89 C10.485 89.495 10.485 89.495 12 90 C11.98889694 89.29922333 11.97779388 88.59844666 11.96635437 87.87643433 C11.8659619 81.25616234 11.78993935 74.63610429 11.74093914 68.01524162 C11.71489976 64.61171744 11.67960908 61.20882481 11.62280273 57.80566406 C11.5578336 53.88875011 11.53377247 49.97208742 11.51171875 46.0546875 C11.48591232 44.83884979 11.4601059 43.62301208 11.43351746 42.37033081 C11.43039301 32.93274624 11.43039301 32.93274624 14.38134766 29.23876953 C17.04947224 26.9577046 18.23815225 26.1874009 21.6875 26 C22.83798828 25.9071875 22.83798828 25.9071875 24.01171875 25.8125 C26 26 26 26 28 28 C24.7 28.33 21.4 28.66 18 29 C17.505 30.485 17.505 30.485 17 32 C16.34 32 15.68 32 15 32 C14.9845388 33.08661171 14.9845388 33.08661171 14.96876526 34.19517517 C14.87095232 41.00851902 14.76846141 47.821778 14.66066074 54.63497066 C14.60540045 58.13804355 14.55197566 61.64112473 14.50268555 65.14428711 C14.44599332 69.16790144 14.38142599 73.19135531 14.31640625 77.21484375 C14.29133751 79.11012062 14.29133751 79.11012062 14.26576233 81.04368591 C14.24581711 82.204814 14.22587189 83.36594208 14.20532227 84.56225586 C14.18977798 85.59039902 14.1742337 86.61854218 14.15821838 87.67784119 C14 90 14 90 13 91 C11.00041636 91.04080783 8.99954746 91.04254356 7 91 C5.52405287 88.04810573 5.84709242 85.05249705 5.84228516 81.81567383 C5.83466408 80.70556442 5.83466408 80.70556442 5.82688904 79.57302856 C5.816176 77.9628347 5.80755949 76.35262585 5.80076981 74.74241066 C5.78898605 72.19047389 5.76953256 69.63870677 5.74765015 67.08683777 C5.68603109 59.8300037 5.63206862 52.57318499 5.59863281 45.31616211 C5.57763642 40.87870702 5.54228841 36.44155794 5.49787521 32.00427818 C5.48374871 30.31591086 5.47500036 28.62748936 5.47182083 26.93906593 C5.46688818 24.569487 5.44366914 22.20071299 5.41650391 19.83129883 C5.41951004 19.13960098 5.42251617 18.44790314 5.4256134 17.73524475 C5.34110522 12.74822636 4.22980833 9.3717489 2 5 C0.33333333 3.33333333 0.33333333 3.33333333 -2 3 C-5.51745287 3.25248627 -5.51745287 3.25248627 -9 4 C-10.1446875 4.1546875 -10.1446875 4.1546875 -11.3125 4.3125 C-13.21484047 4.89193625 -13.21484047 4.89193625 -14.25 7.0625 C-14.4975 7.701875 -14.745 8.34125 -15 9 C-15.8125 7.3125 -15.8125 7.3125 -16 5 C-12.05528951 -1.19883077 -6.67835617 -1.0575696 0 0 Z " fill="#2BB6BF" transform="translate(155,10)"/>
<path d="M0 0 C1.32 0.33 2.64 0.66 4 1 C4 1.66 4 2.32 4 3 C4.99 3 5.98 3 7 3 C7.0825 3.61875 7.165 4.2375 7.25 4.875 C7.80581505 7.14785979 7.80581505 7.14785979 9.875 8.1875 C11.56752155 8.83464059 13.28096593 9.42698864 15 10 C15 10.99 15 11.98 15 13 C15.70125 13.226875 16.4025 13.45375 17.125 13.6875 C20.7696284 15.3513521 23.09489178 17.23001309 26 20 C26 20.99 26 21.98 26 23 C27.2065625 23.433125 27.2065625 23.433125 28.4375 23.875 C31 25 31 25 32 27 C33.88263881 27.90343684 33.88263881 27.90343684 36.0625 28.625 C36.79597656 28.88539063 37.52945313 29.14578125 38.28515625 29.4140625 C38.85105469 29.60742188 39.41695312 29.80078125 40 30 C40 30.66 40 31.32 40 32 C40.93972656 31.96519531 40.93972656 31.96519531 41.8984375 31.9296875 C42.71570313 31.91164062 43.53296875 31.89359375 44.375 31.875 C45.59316406 31.84019531 45.59316406 31.84019531 46.8359375 31.8046875 C49 32 49 32 51 34 C57.61329385 35.15579557 64.30124663 35.30679039 71 35.5625 C72.06089844 35.60568359 73.12179688 35.64886719 74.21484375 35.69335938 C76.80979151 35.79855996 79.40482084 35.90070119 82 36 C82.33 35.01 82.66 34.02 83 33 C83.99 32.9175 84.98 32.835 86 32.75 C89.87283338 32.23152738 92.76738908 30.71376205 96.10546875 28.7421875 C98.4587487 27.82028402 99.65602903 28.17883057 102 29 C100.29711802 30.13323463 98.58741477 31.25622235 96.875 32.375 C95.92367187 33.00148437 94.97234375 33.62796875 93.9921875 34.2734375 C81.81279329 41.30123416 63.75823936 40.63697869 50.4375 37.25 C44.70669914 35.6910332 39.25591243 33.77423401 34 31 C33.17371094 30.57332031 32.34742188 30.14664063 31.49609375 29.70703125 C25.16395411 26.32790822 25.16395411 26.32790822 24 24 C23.26523438 23.57074219 22.53046875 23.14148438 21.7734375 22.69921875 C18.57762065 20.74121829 16.25306469 18.48198119 13.625 15.8125 C13.14820801 15.3285376 12.67141602 14.8445752 12.18017578 14.34594727 C1.93215397 3.86430793 1.93215397 3.86430793 0 0 Z " fill="#20BCC0" transform="translate(65,167)"/>
<path d="M0 0 C0.99 0.495 0.99 0.495 2 1 C2.33 27.4 2.66 53.8 3 81 C3.99 81.33 4.98 81.66 6 82 C6 55.6 6 29.2 6 2 C6.33 2 6.66 2 7 2 C7 29.06 7 56.12 7 84 C5.02 84 3.04 84 1 84 C-0.75439163 82.24560837 -0.11982963 79.94502544 -0.12442017 77.60829163 C-0.12082489 76.8357756 -0.11722961 76.06325958 -0.11352539 75.26733398 C-0.11367142 74.4576416 -0.11381744 73.64794922 -0.1139679 72.8137207 C-0.11326854 70.12448492 -0.1054751 67.43531751 -0.09765625 64.74609375 C-0.09579215 62.88664284 -0.09436821 61.02719144 -0.09336853 59.16773987 C-0.08954271 54.26370904 -0.07971188 49.35970764 -0.06866455 44.45568848 C-0.05845181 39.45548908 -0.05387121 34.45528494 -0.04882812 29.45507812 C-0.03808967 19.63670579 -0.02101248 9.81835534 0 0 Z " fill="#2197AE" transform="translate(132,17)"/>
<path d="M0 0 C1.32 0.33 2.64 0.66 4 1 C4 1.66 4 2.32 4 3 C4.99 2.67 5.98 2.34 7 2 C9.48090632 1.89141244 11.93281979 1.83597585 14.4140625 1.83203125 C15.50767593 1.82703865 15.50767593 1.82703865 16.62338257 1.82194519 C18.1683489 1.81688348 19.71332616 1.81453663 21.25830078 1.81469727 C23.59556746 1.81252733 25.93234909 1.79441018 28.26953125 1.77539062 C47.79226749 1.69588319 47.79226749 1.69588319 56 7.875 C56.928125 8.55304688 57.85625 9.23109375 58.8125 9.9296875 C61.04022245 12.03806768 61.6777243 13.00552166 62 16 C60.3125 16.8125 60.3125 16.8125 58 17 C56.28891311 15.37897032 54.62746694 13.70496537 53 12 C51.01549844 10.96958573 49.01800895 9.96314063 47 9 C46.505 8.01 46.505 8.01 46 7 C41.4793658 5.62425063 36.73479541 5.81346012 32.05078125 5.75390625 C30.29882255 5.72099858 28.54686955 5.68778647 26.79492188 5.65429688 C24.04292327 5.60670833 21.29095267 5.56219465 18.53881836 5.52319336 C15.87591096 5.48362529 13.21344669 5.43208235 10.55078125 5.37890625 C9.7237117 5.3704921 8.89664215 5.36207794 8.04450989 5.35340881 C2.22676875 5.22676875 2.22676875 5.22676875 0 3 C0 2.01 0 1.02 0 0 Z " fill="#072C68" transform="translate(72,129)"/>
<path d="M0 0 C1.16708943 4.16202557 1.09856364 8.16178253 1.03759766 12.45288086 C1.02959641 13.30374771 1.02159515 14.15461456 1.01335144 15.03126526 C0.98548334 17.8425408 0.94999596 20.65366058 0.9140625 23.46484375 C0.89228791 25.42012687 0.8708386 27.37541363 0.84970093 29.33070374 C0.80421191 33.42876849 0.75499394 37.52676702 0.703125 41.62475586 C0.63694075 46.8748646 0.57964066 52.12502503 0.52509499 57.37526608 C0.48222048 61.41333811 0.43480279 65.45134695 0.38599777 69.48935127 C0.36311585 71.42500821 0.3416046 73.36068186 0.32149124 75.29636955 C0.29264372 78.00356737 0.25772312 80.71062102 0.22119141 83.41772461 C0.2138649 84.21632904 0.20653839 85.01493347 0.19898987 85.83773804 C0.14088544 89.67312516 -0.07642867 93.26980029 -1 97 C-5.84574239 96.38768397 -9.7938302 95.87327924 -13.0625 92 C-15 89 -15 89 -15 87 C-16.98 86.67 -18.96 86.34 -21 86 C-21 85.67 -21 85.34 -21 85 C-17.92651834 85.07087694 -14.98761281 85.24641609 -12 86 C-10.25 88.5 -10.25 88.5 -9 91 C-6.45948786 91.97610842 -6.45948786 91.97610842 -4 92 C0.63754713 87.36245287 -1.79861315 69.64760302 -1.73963928 62.82751083 C-1.71825113 60.3724235 -1.691276 57.91744958 -1.66296387 55.46243286 C-1.5938664 49.38014589 -1.53354049 43.29777948 -1.47393799 37.21539307 C-1.42299695 32.04089992 -1.36824836 26.8664763 -1.30812073 21.69208145 C-1.28161209 19.27520057 -1.26077777 16.85831259 -1.2401123 14.44137573 C-1.2235169 12.96726151 -1.20664574 11.49315035 -1.18945312 10.01904297 C-1.17692505 8.73254852 -1.16439697 7.44605408 -1.15148926 6.12057495 C-1 3 -1 3 0 0 Z " fill="#1D0865" transform="translate(75,31)"/>
<path d="M0 0 C2.04166285 -0.02120421 4.08390241 0.00998854 6.125 0.0625 C7.83042969 0.07990234 7.83042969 0.07990234 9.5703125 0.09765625 C14.3156724 1.34615071 16.45175849 3.87646233 19 8 C19.76846654 10.79935307 19.74607712 13.40197225 19.64941406 16.2902832 C19.64707764 17.08788559 19.64474121 17.88548798 19.64233398 18.70726013 C19.62804816 21.32285603 19.57173218 23.93577827 19.515625 26.55078125 C19.49934061 28.37442188 19.48601845 30.19809115 19.4755249 32.02177429 C19.44138544 36.80712735 19.37292145 41.59133552 19.29541016 46.37615967 C19.17670928 54.05167112 19.10938832 61.72777413 19.04387665 69.40389061 C19.01590476 72.08645129 18.97274432 74.76844469 18.92730713 77.45075989 C18.90726953 79.08606581 18.88753826 80.72137553 18.86816406 82.35668945 C18.85154724 83.10526215 18.83493042 83.85383484 18.81781006 84.62509155 C18.80225893 86.41768922 18.89169074 88.21060979 19 90 C19.66 90.66 20.32 91.32 21 92 C19.68 91.67 18.36 91.34 17 91 C16.98969254 90.00885696 16.97938507 89.01771393 16.96876526 87.99653625 C16.87098414 78.65328187 16.76824561 69.31009339 16.66066074 59.9669466 C16.60551029 55.16361561 16.55210297 50.36027844 16.50268555 45.55688477 C16.4549257 40.92085243 16.40257887 36.28489244 16.34705925 31.64894676 C16.32668829 29.88075756 16.30796666 28.11254855 16.29092598 26.34432411 C16.26676528 23.86660235 16.23672705 21.38901602 16.20532227 18.91137695 C16.19668907 17.8162529 16.19668907 17.8162529 16.18788147 16.69900513 C16.11038217 11.27652632 16.11038217 11.27652632 15 6 C12.55711372 4.68931667 12.55711372 4.68931667 10 4 C9.67 3.67 9.34 3.34 9 3 C7.48530552 2.76807135 5.96245438 2.58784762 4.4375 2.4375 C3.61121094 2.35371094 2.78492188 2.26992187 1.93359375 2.18359375 C1.29550781 2.12300781 0.65742188 2.06242188 0 2 C0 1.34 0 0.68 0 0 Z " fill="#093A72" transform="translate(146,8)"/>
<path d="M0 0 C0.33 0 0.66 0 1 0 C1 30.69 1 61.38 1 93 C13.54 93 26.08 93 39 93 C44 95 44 95 45.3125 97.125 C45.539375 97.74375 45.76625 98.3625 46 99 C45.41992188 98.79503906 44.83984375 98.59007812 44.2421875 98.37890625 C43.46101563 98.10949219 42.67984375 97.84007812 41.875 97.5625 C41.10929687 97.29566406 40.34359375 97.02882813 39.5546875 96.75390625 C26.96553214 93.03875796 12.36979435 94.39902562 0 94 C0 62.98 0 31.96 0 0 Z " fill="#2DB6C2" transform="translate(78,35)"/>
<path d="M0 0 C0.33 0 0.66 0 1 0 C1 19.14 1 38.28 1 58 C0.01 57.67 -0.98 57.34 -2 57 C-2.02493184 50.95345349 -2.04296863 44.90693767 -2.05493164 38.86035156 C-2.05992495 36.80826292 -2.06672191 34.75617777 -2.07543945 32.70410156 C-2.17683636 8.20183621 -2.17683636 8.20183621 -1 1 C-0.67 0.67 -0.34 0.34 0 0 Z " fill="#021560" transform="translate(166,41)"/>
<path d="M0 0 C0.66 0.66 1.32 1.32 2 2 C-1.3 2.33 -4.6 2.66 -8 3 C-8.33 3.99 -8.66 4.98 -9 6 C-9.66 6 -10.32 6 -11 6 C-11.0154612 7.08661171 -11.0154612 7.08661171 -11.03123474 8.19517517 C-11.12904768 15.00851902 -11.23153859 21.821778 -11.33933926 28.63497066 C-11.39459955 32.13804355 -11.44802434 35.64112473 -11.49731445 39.14428711 C-11.55400668 43.16790144 -11.61857401 47.19135531 -11.68359375 51.21484375 C-11.70030624 52.47836166 -11.71701874 53.74187958 -11.73423767 55.04368591 C-11.75418289 56.204814 -11.77412811 57.36594208 -11.79467773 58.56225586 C-11.81799416 60.1044706 -11.81799416 60.1044706 -11.84178162 61.67784119 C-12 64 -12 64 -13 65 C-14.99958364 65.04080783 -17.00045254 65.04254356 -19 65 C-19 64.34 -19 63.68 -19 63 C-17.35 63.33 -15.7 63.66 -14 64 C-14.01110306 63.29922333 -14.02220612 62.59844666 -14.03364563 61.87643433 C-14.1340381 55.25616234 -14.21006065 48.63610429 -14.25906086 42.01524162 C-14.28510024 38.61171744 -14.32039092 35.20882481 -14.37719727 31.80566406 C-14.4421664 27.88875011 -14.46622753 23.97208742 -14.48828125 20.0546875 C-14.51408768 18.83884979 -14.5398941 17.62301208 -14.56648254 16.37033081 C-14.56960728 6.93188837 -14.56960728 6.93188837 -11.65698242 3.24658203 C-7.810931 -0.00540411 -4.92533685 -0.3143832 0 0 Z " fill="#1D96A7" transform="translate(181,36)"/>
<path d="M0 0 C0.33 0 0.66 0 1 0 C1.11719869 15.42143514 1.20516603 30.84283662 1.25906086 46.26461315 C1.28475894 53.42647953 1.31974674 60.58806797 1.37719727 67.74975586 C1.42729175 73.99747094 1.45935192 80.24498458 1.47044247 86.49289495 C1.4769178 89.79621529 1.4946468 93.09883082 1.52865028 96.40199852 C1.81296636 125.17947306 1.81296636 125.17947306 -4 133 C-6.16996765 133.80265808 -6.16996765 133.80265808 -8 134 C-7.34 131.69 -6.68 129.38 -6 127 C-5.34 127 -4.68 127 -4 127 C-4 126.34 -4 125.68 -4 125 C-3.34 125 -2.68 125 -2 125 C-0.74681525 119.14861204 -0.826084 113.34926854 -0.79467773 107.39501953 C-0.77982834 105.65269295 -0.77982834 105.65269295 -0.76467896 103.87516785 C-0.73314801 100.04440331 -0.70833969 96.21362638 -0.68359375 92.3828125 C-0.66301697 89.72337426 -0.64206704 87.06394159 -0.62062073 84.4045105 C-0.57080248 78.12548377 -0.52582357 71.84643214 -0.48259836 65.56735694 C-0.43313281 58.41617572 -0.37824938 51.26503925 -0.32291877 44.11390138 C-0.20926568 29.40931007 -0.10239065 14.70467415 0 0 Z " fill="#0B1368" transform="translate(190,46)"/>
<path d="M0 0 C0.33 0 0.66 0 1 0 C1 25.08 1 50.16 1 76 C0.34 76 -0.32 76 -1 76 C-1.15359722 67.41203294 -1.30177886 58.82399714 -1.4429636 50.23581791 C-1.50868668 46.24838695 -1.57630563 42.2610066 -1.64819336 38.27368164 C-1.71744398 34.42881571 -1.7817982 30.58389669 -1.84269524 26.73888969 C-1.86685154 25.26878295 -1.8928002 23.79870457 -1.92053413 22.32866096 C-1.95894963 20.27652554 -1.99110609 18.22438351 -2.02172852 16.17211914 C-2.04171402 15.00185684 -2.06169952 13.83159454 -2.08229065 12.62586975 C-2 10 -2 10 -1 9 C-0.76807135 7.48530552 -0.58784762 5.96245438 -0.4375 4.4375 C-0.35371094 3.61121094 -0.26992187 2.78492188 -0.18359375 1.93359375 C-0.12300781 1.29550781 -0.06242187 0.65742188 0 0 Z " fill="#02195B" transform="translate(105,22)"/>
<path d="M0 0 C7.14463669 1.24254551 11.61121108 5.33766753 17 10 C16.67 11.32 16.34 12.64 16 14 C15.01 14 14.02 14 13 14 C11.33333333 12.33333333 9.66666667 10.66666667 8 9 C6.01549844 7.96958573 4.01800895 6.96314063 2 6 C1.67 5.34 1.34 4.68 1 4 C-1.52733235 3.34444881 -1.52733235 3.34444881 -4 3 C-2.68 2.67 -1.36 2.34 0 2 C0 1.34 0 0.68 0 0 Z " fill="#06345F" transform="translate(117,132)"/>
<path d="M0 0 C3.69287153 0.90270193 5.55368289 1.40491051 7.875 4.5 C9 7 9 7 9 9 C9.66 9 10.32 9 11 9 C13.125 10.8125 13.125 10.8125 15 13 C15 13.99 15 14.98 15 16 C15.66 16 16.32 16 17 16 C17.33 16.66 17.66 17.32 18 18 C18.61875 18.0825 19.2375 18.165 19.875 18.25 C22 19 22 19 23.625 21.9375 C24.305625 23.4534375 24.305625 23.4534375 25 25 C25.66 25.66 26.32 26.32 27 27 C26.34 27.66 25.68 28.32 25 29 C24.29875 28.113125 23.5975 27.22625 22.875 26.3125 C20.98806953 24.03000904 19.27397408 22.40732578 16.9375 20.5 C14 18 14 18 12.125 15.125 C10.17261489 12.25384543 8.5090388 10.62147821 5.875 8.4375 C2.8203963 5.88253408 0.9687146 3.99594772 0 0 Z " fill="#26BBC1" transform="translate(39,138)"/>
<path d="M0 0 C0.33 0 0.66 0 1 0 C1 1.65 1 3.3 1 5 C23.275 4.505 23.275 4.505 46 4 C45.34 4.33 44.68 4.66 44 5 C44 5.66 44 6.32 44 7 C44.99 7.33 45.98 7.66 47 8 C47.3721042 9.32303717 47.70630173 10.65737935 48 12 C48.66 12.33 49.32 12.66 50 13 C47.625 12.75 47.625 12.75 45 12 C44.33333333 10.66666667 43.66666667 9.33333333 43 8 C38.52553578 6.65434953 33.83419595 6.77977242 29.19921875 6.68359375 C27.9446563 6.6524221 27.9446563 6.6524221 26.66474915 6.62062073 C24.00574579 6.55548966 21.34664772 6.4964105 18.6875 6.4375 C16.87954769 6.39428008 15.07160478 6.3506647 13.26367188 6.30664062 C8.84254378 6.19984584 4.42132088 6.09847675 0 6 C0 4.02 0 2.04 0 0 Z " fill="#22D3C7" transform="translate(79,122)"/>
<path d="M0 0 C0.66 0.99 1.32 1.98 2 3 C0.78275556 4.77904957 -0.44933657 6.54794546 -1.6875 8.3125 C-2.37199219 9.29863281 -3.05648437 10.28476563 -3.76171875 11.30078125 C-6.0234661 14.02829856 -7.90022665 15.35717036 -11 17 C-11.94875 17.70125 -12.8975 18.4025 -13.875 19.125 C-17.34917999 21.20950799 -19.9948841 21.67959073 -24 22 C-21.90331359 20.35295263 -19.8436675 18.91161674 -17.51953125 17.59765625 C-9.44261012 13.01723777 -5.06532181 7.61674317 0 0 Z " fill="#0C1E6C" transform="translate(181,180)"/>
<path d="M0 0 C-0.33 0.99 -0.66 1.98 -1 3 C-2.88802083 3.1953125 -4.77604167 3.390625 -6.6640625 3.5859375 C-9.09757187 3.9426856 -9.09757187 3.9426856 -11.66259766 5.00927734 C-15.4190199 6.12438791 -18.85603373 6.28856026 -22.734375 6.265625 C-23.45361145 6.26753845 -24.1728479 6.2694519 -24.91387939 6.27142334 C-26.42322137 6.27277672 -27.93257531 6.26913985 -29.44189453 6.26074219 C-31.7570985 6.24996696 -34.07153766 6.26069788 -36.38671875 6.2734375 C-37.85677255 6.27211698 -39.32682587 6.26955683 -40.796875 6.265625 C-41.83590973 6.27169769 -41.83590973 6.27169769 -42.89593506 6.27789307 C-47.7700318 6.2299682 -47.7700318 6.2299682 -50 4 C-49.17387207 4.01047363 -48.34774414 4.02094727 -47.49658203 4.03173828 C-44.38412538 4.06615173 -41.27176683 4.09105838 -38.15917969 4.10986328 C-36.16855363 4.12467591 -34.17801563 4.15010992 -32.1875 4.17578125 C-24.84571506 4.21286097 -18.11875198 3.81295723 -11 2 C-10.05125 1.79117188 -9.1025 1.58234375 -8.125 1.3671875 C-6.68741577 1.03421762 -5.2499181 0.70087384 -3.8125 0.3671875 C-2 0 -2 0 0 0 Z " fill="#072267" transform="translate(163,201)"/>
<path d="M0 0 C2.67144518 2.35341599 5.24959661 4.65763739 7.625 7.3125 C7.625 7.9725 7.625 8.6325 7.625 9.3125 C6.635 9.6425 5.645 9.9725 4.625 10.3125 C4.068125 9.384375 3.51125 8.45625 2.9375 7.5 C-0.0299673 3.40970723 -1.88918202 1.72300205 -6.9296875 0.890625 C-12.54214041 0.46422064 -12.54214041 0.46422064 -17.421875 2.8828125 C-18.90522108 4.62751004 -20.19110299 6.35432435 -21.375 8.3125 C-22.375 5.3125 -22.375 5.3125 -21.25 2.75 C-16.43386569 -3.5109746 -6.55911614 -3.27955807 0 0 Z " fill="#092D6E" transform="translate(129.375,9.6875)"/>
<path d="M0 0 C0.33 0 0.66 0 1 0 C1 1.98 1 3.96 1 6 C2.12494873 5.98952637 3.24989746 5.97905273 4.40893555 5.96826172 C8.5928223 5.93199154 12.77669521 5.90907398 16.96069336 5.89013672 C18.76963643 5.88009513 20.57856333 5.8664592 22.38745117 5.84912109 C24.99141435 5.82479168 27.59516242 5.81349839 30.19921875 5.8046875 C31.00461594 5.79436493 31.81001312 5.78404236 32.63981628 5.77340698 C36.84543832 5.7725715 40.22070506 5.91577992 44 8 C45.3125 10.125 45.3125 10.125 46 12 C45.41992188 11.79503906 44.83984375 11.59007812 44.2421875 11.37890625 C43.46101563 11.10949219 42.67984375 10.84007812 41.875 10.5625 C41.10929687 10.29566406 40.34359375 10.02882812 39.5546875 9.75390625 C34.28582468 8.19902777 29.10524894 7.84188737 23.6328125 7.68359375 C22.95322479 7.66281265 22.27363708 7.64203156 21.57345581 7.62062073 C19.42406334 7.5557637 17.2745593 7.49654059 15.125 7.4375 C13.6588431 7.39425388 12.19269706 7.35063775 10.7265625 7.30664062 C7.15115725 7.20014896 3.57562963 7.09870591 0 7 C0 4.69 0 2.38 0 0 Z " fill="#2FA9BB" transform="translate(78,122)"/>
<path d="M0 0 C0.66 0 1.32 0 2 0 C2.12650029 7.33701657 2.12650029 7.33701657 1.51367188 10.54882812 C0.86673944 14.89532855 0.76830035 19.16612509 0.68359375 23.5546875 C0.66281265 24.45623566 0.64203156 25.35778381 0.62062073 26.28665161 C0.5555542 29.1493614 0.49644086 32.01215819 0.4375 34.875 C0.39427393 36.82292544 0.35065836 38.77084229 0.30664062 40.71875 C0.19991711 45.47907889 0.09853036 50.23949476 0 55 C-0.33 55 -0.66 55 -1 55 C-1.02534095 47.81006624 -1.04286308 40.62014399 -1.05493164 33.43017578 C-1.05996249 30.98388234 -1.06678784 28.53759191 -1.07543945 26.09130859 C-1.08755952 22.57648984 -1.09324079 19.06171082 -1.09765625 15.546875 C-1.10281754 14.4519574 -1.10797882 13.35703979 -1.11329651 12.22894287 C-1.11337204 11.20818665 -1.11344757 10.18743042 -1.11352539 9.13574219 C-1.115746 8.23861511 -1.11796661 7.34148804 -1.12025452 6.41717529 C-1.00680116 4.13670667 -0.64135959 2.18470868 0 0 Z " fill="#1BD9C1" transform="translate(170,42)"/>
<path d="M0 0 C1.24546405 2.49092811 0.7767578 3.41080733 0 6 C-0.66 6 -1.32 6 -2 6 C-2.226875 7.01191406 -2.45375 8.02382812 -2.6875 9.06640625 C-3.92648283 13.39521157 -6.20847421 16.46404434 -9 19.9375 C-9.45117188 20.52595703 -9.90234375 21.11441406 -10.3671875 21.72070312 C-11.52267539 23.19241181 -12.75585434 24.60243773 -14 26 C-14.66 26 -15.32 26 -16 26 C-16 25.34 -16 24.68 -16 24 C-15.34 24 -14.68 24 -14 24 C-13.9175 23.21625 -13.835 22.4325 -13.75 21.625 C-13.5025 20.75875 -13.255 19.8925 -13 19 C-11.68352881 18.30062468 -10.34977849 17.63270867 -9 17 C-8.32843384 15.06381575 -8.32843384 15.06381575 -8 13 C-7.34 12.01 -6.68 11.02 -6 10 C-5.34 10 -4.68 10 -4 10 C-3.896875 8.906875 -3.79375 7.81375 -3.6875 6.6875 C-3.02692273 3.14440371 -2.7972908 2.06756277 0 0 Z " fill="#28B9C4" transform="translate(186,167)"/>
<path d="M0 0 C2.44897847 3.67346771 2.31537716 5.66356399 2 10 C1.34 10.66 0.68 11.32 0 12 C-1.85546875 9.70507812 -1.85546875 9.70507812 -3.7109375 7.41015625 C-4.9666391 5.86733563 -4.9666391 5.86733563 -7 5 C-7 4.34 -7 3.68 -7 3 C-9.97 3 -12.94 3 -16 3 C-16 2.67 -16 2.34 -16 2 C-14.51886719 2.03480469 -14.51886719 2.03480469 -13.0078125 2.0703125 C-11.08582031 2.09738281 -11.08582031 2.09738281 -9.125 2.125 C-7.84882812 2.14820313 -6.57265625 2.17140625 -5.2578125 2.1953125 C-1.91406662 2.35641524 -1.91406662 2.35641524 0 0 Z " fill="#152571" transform="translate(102,22)"/>
<path d="M0 0 C5.83657047 0.06911728 8.50787844 1.61116972 12.8125 5.4375 C12.4825 6.7575 12.1525 8.0775 11.8125 9.4375 C11.41160156 8.99277344 11.01070312 8.54804688 10.59765625 8.08984375 C7.11748092 4.57944624 7.11748092 4.57944624 2.51953125 3.19140625 C-1.63151295 3.62945614 -5.41352354 4.61138236 -9.1875 6.4375 C-6.90835251 1.55361252 -5.47770332 0.1284427 0 0 Z " fill="#32A8BC" transform="translate(119.1875,9.5625)"/>
<path d="M0 0 C0.33 0 0.66 0 1 0 C1.02505615 1.08531006 1.0501123 2.17062012 1.07592773 3.28881836 C1.16983755 7.301316 1.27009767 11.31363382 1.37231445 15.32592773 C1.41572573 17.06514288 1.45739612 18.80440235 1.49731445 20.54370117 C1.55486768 23.03838488 1.6186042 25.5328441 1.68359375 28.02734375 C1.70030624 28.80963852 1.71701874 29.59193329 1.73423767 30.39793396 C1.50648731 33.99871781 1.50648731 33.99871781 3 37 C3.14115161 39.67058851 3.04247107 42.32432238 3 45 C2.01 44.67 1.02 44.34 0 44 C0 29.48 0 14.96 0 0 Z " fill="#022167" transform="translate(164,54)"/>
<path d="M0 0 C1.26823485 3.65393537 0.75715321 6.49070026 0.0625 10.25 C-0.13214844 11.32765625 -0.32679687 12.4053125 -0.52734375 13.515625 C-0.68332031 14.33546875 -0.83929688 15.1553125 -1 16 C-1.33 16 -1.66 16 -2 16 C-2.66 13.36 -3.32 10.72 -4 8 C-4.66 8.66 -5.32 9.32 -6 10 C-9.01305957 9.61121812 -10.39685311 8.73543126 -13 7 C-11.88625 6.71125 -10.7725 6.4225 -9.625 6.125 C-5.99708908 5.30758671 -5.99708908 5.30758671 -4 3 C-3.01 3 -2.02 3 -1 3 C-0.67 2.01 -0.34 1.02 0 0 Z " fill="#22076F" transform="translate(106,15)"/>
<path d="M0 0 C0.66 0 1.32 0 2 0 C3.625 2 3.625 2 5 4 C5.33 3.01 5.66 2.02 6 1 C6.66 1.66 7.32 2.32 8 3 C7.71287112 5.65594214 7.12441221 7.7427567 5.9609375 10.1484375 C4.70086584 13.88767453 4.78453726 17.41912302 4.875 21.3125 C4.88853516 22.42334961 4.88853516 22.42334961 4.90234375 23.55664062 C4.92575787 25.37123467 4.96162385 27.18566071 5 29 C4.34 29.33 3.68 29.66 3 30 C2.98018066 29.23333008 2.96036133 28.46666016 2.93994141 27.67675781 C2.84464554 24.20082781 2.73498402 20.72549494 2.625 17.25 C2.57859375 15.44015625 2.57859375 15.44015625 2.53125 13.59375 C2.49257812 12.43359375 2.45390625 11.2734375 2.4140625 10.078125 C2.3826416 9.00981445 2.3512207 7.94150391 2.31884766 6.84082031 C2.00799852 4.07126402 1.42329468 2.36716379 0 0 Z " fill="#1C0766" transform="translate(162,12)"/>
<path d="M0 0 C1.21236328 0.01353516 1.21236328 0.01353516 2.44921875 0.02734375 C3.37154297 0.04474609 3.37154297 0.04474609 4.3125 0.0625 C4.3125 0.7225 4.3125 1.3825 4.3125 2.0625 C4.93125 2.330625 5.55 2.59875 6.1875 2.875 C8.3125 4.0625 8.3125 4.0625 10.3125 7.0625 C6.3125 5.0625 6.3125 5.0625 4.5 3.9375 C1.28202872 2.65031149 -1.26373873 2.68899877 -4.6875 3.0625 C-6.46159808 4.98272703 -6.46159808 4.98272703 -7.6875 7.0625 C-8.6775 7.0625 -9.6675 7.0625 -10.6875 7.0625 C-11.0175 7.7225 -11.3475 8.3825 -11.6875 9.0625 C-11.1922783 5.39785945 -10.6666794 3.35417646 -7.6875 1.0625 C-4.80538698 0.10179566 -2.98899956 -0.04331883 0 0 Z " fill="#29AEB9" transform="translate(90.6875,24.9375)"/>
<path d="M0 0 C0.66 0 1.32 0 2 0 C2.01417969 0.66386719 2.02835938 1.32773438 2.04296875 2.01171875 C2.31826498 8.00781718 2.31826498 8.00781718 5.5625 12.9375 C6.366875 13.618125 7.17125 14.29875 8 15 C8 15.99 8 16.98 8 18 C5.22841977 17.38409328 3.48007458 16.65492602 1.77734375 14.33203125 C-0.66455763 9.80707421 -1.5327352 6.22080496 -1 1 C-0.67 0.67 -0.34 0.34 0 0 Z " fill="#0D2469" transform="translate(28,121)"/>
<path d="M0 0 C2.31 0 4.62 0 7 0 C4.14723863 2.93200474 1.34920216 5.64315404 -2 8 C-5.82946843 6.54744301 -7.12050295 4.57104439 -9 1 C-8.01 1 -7.02 1 -6 1 C-6 1.66 -6 2.32 -6 3 C-4.35 3 -2.7 3 -1 3 C-0.67 2.01 -0.34 1.02 0 0 Z " fill="#25086F" transform="translate(139,9)"/>
<path d="M0 0 C0.33 0.66 0.66 1.32 1 2 C-0.01320312 2.19916016 -0.01320312 2.19916016 -1.046875 2.40234375 C-2.38492188 2.66724609 -2.38492188 2.66724609 -3.75 2.9375 C-4.63171875 3.11152344 -5.5134375 3.28554687 -6.421875 3.46484375 C-7.69804687 3.72974609 -7.69804687 3.72974609 -9 4 C-9.7425 4.144375 -10.485 4.28875 -11.25 4.4375 C-13.22388282 4.86100027 -13.22388282 4.86100027 -14.25 7.0625 C-14.4975 7.701875 -14.745 8.34125 -15 9 C-15.8125 7.3125 -15.8125 7.3125 -16 5 C-11.96605743 -1.33905261 -6.7530958 -0.53220545 0 0 Z " fill="#2F9FB4" transform="translate(155,10)"/>
<path d="M0 0 C4.63439404 0.62626947 4.63439404 0.62626947 6.40625 2.4375 C8.24601859 4.2411947 9.76555754 4.85371653 12.1875 5.6875 C12.90292969 5.93886719 13.61835937 6.19023437 14.35546875 6.44921875 C14.89816406 6.63097656 15.44085938 6.81273437 16 7 C16 7.99 16 8.98 16 10 C10.65697176 8.49299203 5.53804169 6.21962115 1 3 C0.67 2.01 0.34 1.02 0 0 Z " fill="#26B1B8" transform="translate(89,190)"/>
<path d="M0 0 C0.66 1.65 1.32 3.3 2 5 C0 4 -2 3 -4 2 C-8.99241409 1.86268409 -12.1743505 2.30915042 -16.0625 5.5625 C-16.701875 6.366875 -17.34125 7.17125 -18 8 C-18 6.35 -18 4.7 -18 3 C-11.83177971 -1.52336155 -7.40834118 -1.23249076 0 0 Z " fill="#0B2B6C" transform="translate(185,35)"/>
<path d="M0 0 C0.33 0 0.66 0 1 0 C1.65156491 9.65763983 1.14055549 18.51808344 -4 27 C-6.171875 27.85546875 -6.171875 27.85546875 -8 28 C-7.01 24.535 -7.01 24.535 -6 21 C-5.34 21 -4.68 21 -4 21 C-4 20.34 -4 19.68 -4 19 C-3.34 19 -2.68 19 -2 19 C-1.34 12.73 -0.68 6.46 0 0 Z " fill="#0F2068" transform="translate(190,152)"/>
<path d="M0 0 C-0.99 0.495 -0.99 0.495 -2 1 C-2 1.66 -2 2.32 -2 3 C-1.01 3.33 -0.02 3.66 1 4 C1.3721042 5.32303717 1.70630173 6.65737935 2 8 C2.66 8.33 3.32 8.66 4 9 C1.625 8.75 1.625 8.75 -1 8 C-1.66666667 6.66666667 -2.33333333 5.33333333 -3 4 C-5.55519921 3.18828772 -5.55519921 3.18828772 -8 3 C-8 2.34 -8 1.68 -8 1 C-5.29120665 -0.35439668 -2.99066732 -0.06501451 0 0 Z " fill="#12D5C2" transform="translate(125,126)"/>
<path d="M0 0 C2.10494301 0.08708038 4.20902142 0.19525693 6.3125 0.3125 C8.07013672 0.39951172 8.07013672 0.39951172 9.86328125 0.48828125 C13 1 13 1 14.875 2.3125 C16.66707131 5.00060696 16.70209927 7.84225221 17 11 C16.34 10.67 15.68 10.34 15 10 C15 8.68 15 7.36 15 6 C14.195625 5.690625 13.39125 5.38125 12.5625 5.0625 C10 4 10 4 9 3 C7.48530552 2.76807135 5.96245438 2.58784762 4.4375 2.4375 C3.61121094 2.35371094 2.78492188 2.26992187 1.93359375 2.18359375 C1.29550781 2.12300781 0.65742188 2.06242188 0 2 C0 1.34 0 0.68 0 0 Z " fill="#0D3A75" transform="translate(146,8)"/>
<path d="M0 0 C0.66 0 1.32 0 2 0 C2.103125 1.11375 2.20625 2.2275 2.3125 3.375 C2.539375 4.57125 2.76625 5.7675 3 7 C3.99 7.66 4.98 8.32 6 9 C6.6875 12.125 6.6875 12.125 7 15 C5.29115995 13.37660195 3.62553283 11.70680947 2 10 C2 9.34 2 8.68 2 8 C1.01 7.67 0.02 7.34 -1 7 C-1.04254356 5.00045254 -1.04080783 2.99958364 -1 1 C-0.67 0.67 -0.34 0.34 0 0 Z " fill="#23CEC9" transform="translate(32,123)"/>
<path d="M0 0 C3.07431787 0.07089622 6.00811519 0.26263832 9 1 C11.49362196 3.87144347 12 5.2061153 12 9 C12.66 9 13.32 9 14 9 C13.67 9.66 13.34 10.32 13 11 C8.20748576 7.59479251 8.20748576 7.59479251 7.0625 4.3125 C6.711875 3.549375 6.36125 2.78625 6 2 C2.94727535 1.10169161 2.94727535 1.10169161 0 1 C0 0.67 0 0.34 0 0 Z " fill="#092867" transform="translate(54,116)"/>
<path d="M0 0 C0.7734375 0.00386719 1.546875 0.00773437 2.34375 0.01171875 C4.5 0.3125 4.5 0.3125 7.5 2.3125 C7.79296875 4.4765625 7.79296875 4.4765625 7.6875 6.9375 C7.66042969 7.75476562 7.63335937 8.57203125 7.60546875 9.4140625 C7.57066406 10.04054688 7.53585938 10.66703125 7.5 11.3125 C7.17 11.3125 6.84 11.3125 6.5 11.3125 C6.5 9.3325 6.5 7.3525 6.5 5.3125 C4.025 4.3225 4.025 4.3225 1.5 3.3125 C1.5 2.6525 1.5 1.9925 1.5 1.3125 C0.571875 1.6425 -0.35625 1.9725 -1.3125 2.3125 C-4.5 3.3125 -4.5 3.3125 -7.5 3.3125 C-5.13249637 0.43659014 -3.69770505 -0.08011694 0 0 Z " fill="#23C9C3" transform="translate(179.5,37.6875)"/>
<path d="M0 0 C5.35007496 0.87706147 5.35007496 0.87706147 8 2 C9.875 5 9.875 5 11 8 C11.66 8.66 12.32 9.32 13 10 C12.34 10.66 11.68 11.32 11 12 C10.29875 11.113125 9.5975 10.22625 8.875 9.3125 C6.97124181 7.01053451 5.0056341 5.07063982 2.6875 3.1875 C1.800625 2.465625 0.91375 1.74375 0 1 C0 0.67 0 0.34 0 0 Z " fill="#23B1BC" transform="translate(53,155)"/>
<path d="M0 0 C0.8971875 0.309375 0.8971875 0.309375 1.8125 0.625 C0.1126768 1.78342044 -1.59779577 2.92622266 -3.3125 4.0625 C-4.26382813 4.70058594 -5.21515625 5.33867187 -6.1953125 5.99609375 C-9.28583502 7.67853225 -11.71125519 8.25880804 -15.1875 8.625 C-14.8575 7.635 -14.5275 6.645 -14.1875 5.625 C-12.12109375 4.89453125 -12.12109375 4.89453125 -9.625 4.4375 C-8.79871094 4.27894531 -7.97242188 4.12039062 -7.12109375 3.95703125 C-6.48300781 3.84746094 -5.84492188 3.73789063 -5.1875 3.625 C-5.1875 2.965 -5.1875 2.305 -5.1875 1.625 C-2.1875 -0.375 -2.1875 -0.375 0 0 Z " fill="#29AEBE" transform="translate(165.1875,195.375)"/>
<path d="M0 0 C0.99 0.33 1.98 0.66 3 1 C2.67 3.64 2.34 6.28 2 9 C1.34 9 0.68 9 0 9 C0 9.99 0 10.98 0 12 C-1.98 12.33 -3.96 12.66 -6 13 C-5.36578125 12.78601563 -4.7315625 12.57203125 -4.078125 12.3515625 C-1.74386889 11.14561047 -1.74386889 11.14561047 -1.171875 8.3984375 C-1.03265625 7.40070313 -0.8934375 6.40296875 -0.75 5.375 C-0.60046875 4.37210938 -0.4509375 3.36921875 -0.296875 2.3359375 C-0.19890625 1.56507813 -0.1009375 0.79421875 0 0 Z " fill="#16D1C0" transform="translate(170,182)"/>
<path d="M0 0 C0 0.66 0 1.32 0 2 C-0.72445312 1.96519531 -1.44890625 1.93039063 -2.1953125 1.89453125 C-8.10364449 1.72909795 -11.75267695 2.05637975 -17 5 C-19.375 4.6875 -19.375 4.6875 -21 4 C-20 2 -20 2 -17.25 0.875 C-11.64202665 -0.62986497 -5.75295051 -0.15571896 0 0 Z " fill="#0A2E6D" transform="translate(53,115)"/>
<path d="M0 0 C5.19644079 1.59890486 10.06612142 3.74138003 15 6 C15 6.33 15 6.66 15 7 C6.42857143 6 6.42857143 6 3 5 C3 4.34 3 3.68 3 3 C2.01 2.67 1.02 2.34 0 2 C0 1.34 0 0.68 0 0 Z " fill="#0A336B" transform="translate(93,195)"/>
<path d="M0 0 C1.24546405 2.49092811 0.7767578 3.41080733 0 6 C-0.66 6 -1.32 6 -2 6 C-2.268125 7.093125 -2.53625 8.18625 -2.8125 9.3125 C-3.87663739 12.61692663 -4.34654664 13.94960422 -7 16 C-7 14.35 -7 12.7 -7 11 C-6.01 10.67 -5.02 10.34 -4 10 C-3.896875 8.906875 -3.79375 7.81375 -3.6875 6.6875 C-3.02692273 3.14440371 -2.7972908 2.06756277 0 0 Z " fill="#2FABBB" transform="translate(186,167)"/>
<path d="M0 0 C12.64228779 -0.40134247 12.64228779 -0.40134247 18 2 C19.25390625 4.078125 19.25390625 4.078125 20 6 C19.39414062 5.80664062 18.78828125 5.61328125 18.1640625 5.4140625 C12.16157783 3.54867496 6.1841103 2.11840293 0 1 C0 0.67 0 0.34 0 0 Z " fill="#237DA0" transform="translate(42,116)"/>
<path d="M0 0 C4.45549507 1.36140127 6.25434405 3.30756614 9 7 C9.66 7.33 10.32 7.66 11 8 C11 8.66 11 9.32 11 10 C10.01 10.33 9.02 10.66 8 11 C7.4225 10.0925 6.845 9.185 6.25 8.25 C4.33068261 5.47765266 2.41066349 3.32456837 0 1 C0 0.67 0 0.34 0 0 Z " fill="#0B1F60" transform="translate(126,9)"/>
<path d="M0 0 C0.66 0 1.32 0 2 0 C2.33 1.98 2.66 3.96 3 6 C1.68 6.99 0.36 7.98 -1 9 C-1.66 8.34 -2.32 7.68 -3 7 C-3 6.01 -3 5.02 -3 4 C-2.01 4 -1.02 4 0 4 C0 2.68 0 1.36 0 0 Z " fill="#1B066D" transform="translate(63,169)"/>
<path d="M0 0 C2.31 0.66 4.62 1.32 7 2 C5.68 2.33 4.36 2.66 3 3 C4.65 4.65 6.3 6.3 8 8 C5.97954558 7.39816251 3.97888961 6.72693904 2 6 C1.67 5.34 1.34 4.68 1 4 C-1.52733235 3.34444881 -1.52733235 3.34444881 -4 3 C-2.68 2.67 -1.36 2.34 0 2 C0 1.34 0 0.68 0 0 Z " fill="#094772" transform="translate(117,132)"/>
<path d="M0 0 C-1.74732874 1.74732874 -4.245395 1.33466764 -6.625 1.5 C-11.12559257 1.83835004 -15.54420898 2.29112416 -20 3 C-18.0744109 0.36647373 -17.03699958 0.00622589 -13.75 -0.546875 C-12.5125 -0.61390625 -11.275 -0.6809375 -10 -0.75 C-8.7625 -0.82734375 -7.525 -0.9046875 -6.25 -0.984375 C-3 -1 -3 -1 0 0 Z " fill="#170966" transform="translate(53,114)"/>
<path d="M0 0 C0.66 0.33 1.32 0.66 2 1 C-0.62637999 4.69638666 -2.52740559 6.8818514 -7 8 C-9.15625 7.5390625 -9.15625 7.5390625 -11 7 C-10.28972656 6.57847656 -9.57945312 6.15695313 -8.84765625 5.72265625 C-7.92855469 5.17480469 -7.00945312 4.62695312 -6.0625 4.0625 C-5.14597656 3.51722656 -4.22945312 2.97195312 -3.28515625 2.41015625 C-1.11587323 1.19267827 -1.11587323 1.19267827 0 0 Z " fill="#0F3F7D" transform="translate(168,194)"/>
<path d="M0 0 C3.73487777 0.4979837 5.81237635 0.87491756 9 3 C9 3.66 9 4.32 9 5 C9.99 5.33 10.98 5.66 12 6 C11.67 6.66 11.34 7.32 11 8 C9.68 7.34 8.36 6.68 7 6 C7 5.34 7 4.68 7 4 C4.69 3.34 2.38 2.68 0 2 C0 1.34 0 0.68 0 0 Z " fill="#23CCCA" transform="translate(113,136)"/>
<path d="M0 0 C1.32 0.33 2.64 0.66 4 1 C4 1.66 4 2.32 4 3 C4.99 3 5.98 3 7 3 C8.06775224 4.96466413 9.06553465 6.96855359 10 9 C9.67 9.66 9.34 10.32 9 11 C7.49703315 9.35687553 5.99769719 7.71042916 4.5 6.0625 C3.6646875 5.14597656 2.829375 4.22945312 1.96875 3.28515625 C0 1 0 1 0 0 Z " fill="#29B0BF" transform="translate(65,167)"/>
<path d="M0 0 C1.66666667 1.66666667 3.33333333 3.33333333 5 5 C5.763125 5.721875 6.52625 6.44375 7.3125 7.1875 C9 9 9 9 9 11 C9.99 11.33 10.98 11.66 12 12 C11.01 12.33 10.02 12.66 9 13 C0 2.63106796 0 2.63106796 0 0 Z " fill="#0C4373" transform="translate(48,149)"/>
<path d="M0 0 C1.6875 1.515625 1.6875 1.515625 3 3 C2.24074219 2.97679687 1.48148438 2.95359375 0.69921875 2.9296875 C-0.79158203 2.90261719 -0.79158203 2.90261719 -2.3125 2.875 C-3.29863281 2.85179687 -4.28476563 2.82859375 -5.30078125 2.8046875 C-8.22406527 2.79317361 -8.22406527 2.79317361 -11 5 C-10.1875 3.0625 -10.1875 3.0625 -9 1 C-5.72429875 -0.09190042 -3.43202271 -0.28600189 0 0 Z " fill="#12D4C6" transform="translate(124,12)"/>
<path d="M0 0 C3.375 0.25 3.375 0.25 7 1 C8.3125 2.9375 8.3125 2.9375 9 5 C9.66 5.66 10.32 6.32 11 7 C6.42377756 6.50527325 6.42377756 6.50527325 4.375 4.0625 C3.694375 3.0415625 3.694375 3.0415625 3 2 C2.01 1.34 1.02 0.68 0 0 Z " fill="#0E1B64" transform="translate(85,192)"/>
<path d="M0 0 C6.625 -0.125 6.625 -0.125 10 1 C10 1.66 10 2.32 10 3 C8.68 3 7.36 3 6 3 C6 3.66 6 4.32 6 5 C3.49642808 3.74821404 1.93566621 2.00018842 0 0 Z " fill="#12D7B8" transform="translate(86,27)"/>
<path d="M0 0 C1.98 0 3.96 0 6 0 C5.236875 0.556875 4.47375 1.11375 3.6875 1.6875 C1.03859112 3.96679369 -0.38288822 5.93599872 -2 9 C-2.93423645 5.98968256 -3.04449911 5.13349732 -2 2 C-1.34 2 -0.68 2 0 2 C0 1.34 0 0.68 0 0 Z " fill="#0F276D" transform="translate(80,25)"/>
<path d="M0 0 C0.99 0 1.98 0 3 0 C3.66 2.97 4.32 5.94 5 9 C4.01 9.495 4.01 9.495 3 10 C0 3.375 0 3.375 0 0 Z " fill="#340172" transform="translate(163,8)"/>
<path d="M0 0 C-0.33 0.99 -0.66 1.98 -1 3 C-8.625 4 -8.625 4 -12 4 C-11.67 3.34 -11.34 2.68 -11 2 C-9.00390625 1.3671875 -9.00390625 1.3671875 -6.5625 0.875 C-5.75941406 0.70742187 -4.95632812 0.53984375 -4.12890625 0.3671875 C-2 0 -2 0 0 0 Z " fill="#0D1A64" transform="translate(163,201)"/>
<path d="M0 0 C1.32 0 2.64 0 4 0 C4 1.65 4 3.3 4 5 C3.01 5.33 2.02 5.66 1 6 C1 5.34 1 4.68 1 4 C0.01 4.33 -0.98 4.66 -2 5 C-1.34 3.35 -0.68 1.7 0 0 Z " fill="#1B1377" transform="translate(29,117)"/>
<path d="M0 0 C1.26823485 3.65393537 0.75715321 6.49070026 0.0625 10.25 C-0.13214844 11.32765625 -0.32679687 12.4053125 -0.52734375 13.515625 C-0.68332031 14.33546875 -0.83929688 15.1553125 -1 16 C-1.33 16 -1.66 16 -2 16 C-2.05402274 13.89611431 -2.09280256 11.79183286 -2.125 9.6875 C-2.14820312 8.51574219 -2.17140625 7.34398437 -2.1953125 6.13671875 C-2 3 -2 3 0 0 Z " fill="#120C60" transform="translate(106,15)"/>
<path d="M0 0 C0.33 1.32 0.66 2.64 1 4 C-3.30769231 7.93846154 -3.30769231 7.93846154 -6.8125 8.25 C-7.534375 8.1675 -8.25625 8.085 -9 8 C-7 6 -7 6 -4.5 4.5625 C-1.76297015 3.09034084 -1.76297015 3.09034084 0 0 Z " fill="#1D0A72" transform="translate(177,190)"/>
<path d="M0 0 C3.53647504 1.67517239 4.7911563 2.49280817 6.3125 6.1875 C6.539375 7.115625 6.76625 8.04375 7 9 C5.125 8.75 5.125 8.75 3 8 C1.35127493 5.4835249 0.62687294 2.92540704 0 0 Z " fill="#17D4C6" transform="translate(62,159)"/>
<path d="M0 0 C1.32 0 2.64 0 4 0 C4.33 1.98 4.66 3.96 5 6 C4.01 6 3.02 6 2 6 C1.34 4.02 0.68 2.04 0 0 Z " fill="#35006E" transform="translate(45,154)"/>
<path d="M0 0 C5.66153846 1.47692308 5.66153846 1.47692308 7.375 4.125 C7.684375 5.053125 7.684375 5.053125 8 6 C4.74456771 5.65120368 3.98126893 4.97866739 1.75 2.4375 C1.1725 1.633125 0.595 0.82875 0 0 Z " fill="#30ABBE" transform="translate(81,184)"/>
<path d="M0 0 C0.66 0.99 1.32 1.98 2 3 C-0.3125 5.5 -0.3125 5.5 -3 8 C-3.99 8 -4.98 8 -6 8 C-4.02 5.36 -2.04 2.72 0 0 Z " fill="#0F3C77" transform="translate(181,180)"/>
<path d="M0 0 C0.33 0.66 0.66 1.32 1 2 C1.99 2.33 2.98 2.66 4 3 C4 4.98 4 6.96 4 9 C3.01 8.67 2.02 8.34 1 8 C0.67 5.36 0.34 2.72 0 0 Z " fill="#1C0664" transform="translate(69,176)"/>
<path d="M0 0 C1.8125 0.1875 1.8125 0.1875 4 1 C5.8125 3.4375 5.8125 3.4375 7 6 C6.67 6.66 6.34 7.32 6 8 C4 6.625 4 6.625 2 5 C2 4.34 2 3.68 2 3 C1.34 3 0.68 3 0 3 C0 2.01 0 1.02 0 0 Z " fill="#0D2168" transform="translate(44,147)"/>
<path d="M0 0 C2.62901288 1.52206009 4.84365964 2.84365964 7 5 C7 5.99 7 6.98 7 8 C6.34 8 5.68 8 5 8 C0 2.52380952 0 2.52380952 0 0 Z " fill="#16D1C2" transform="translate(84,182)"/>
<path d="M0 0 C0.33 0.99 0.66 1.98 1 3 C0 4 0 4 -1.84765625 4.09765625 C-3.8984375 4.06510417 -5.94921875 4.03255208 -8 4 C-5.60952106 1.60952106 -3.45854519 0 0 0 Z " fill="#14D7BA" transform="translate(42,120)"/>
<path d="M0 0 C1 3 1 3 0.375 5.5625 C-1.33177722 8.58815053 -2.73058318 9.05358987 -6 10 C-5.67 9.01 -5.34 8.02 -5 7 C-4.01 7 -3.02 7 -2 7 C-1.855625 6.030625 -1.71125 5.06125 -1.5625 4.0625 C-1 1 -1 1 0 0 Z " fill="#1A0C63" transform="translate(188,172)"/>
<path d="M0 0 C-2.64 1.98 -5.28 3.96 -8 6 C-7 2 -7 2 -6 0 C-3 -1 -3 -1 0 0 Z " fill="#0F1760" transform="translate(146,10)"/>
<path d="M0 0 C4.75 0.875 4.75 0.875 7 2 C7 2.66 7 3.32 7 4 C4.03 3.505 4.03 3.505 1 3 C0.67 2.01 0.34 1.02 0 0 Z " fill="#31B8C0" transform="translate(89,190)"/>
<path d="M0 0 C0.66 0 1.32 0 2 0 C1.67 2.64 1.34 5.28 1 8 C0.34 8 -0.32 8 -1 8 C-1.04241723 5.66705225 -1.04092937 3.33297433 -1 1 C-0.67 0.67 -0.34 0.34 0 0 Z " fill="#0D1162" transform="translate(28,121)"/>
<path d="M0 0 C2 1 4 2 6 3 C6 4.65 6 6.3 6 8 C2.52082818 5.68055212 1.70570234 3.73630036 0 0 Z " fill="#071C62" transform="translate(184,36)"/>
<path d="M0 0 C0.99 0 1.98 0 3 0 C3 0.66 3 1.32 3 2 C4.32 1.67 5.64 1.34 7 1 C7 1.66 7 2.32 7 3 C5.02 3.99 5.02 3.99 3 5 C3 4.34 3 3.68 3 3 C2.01 3 1.02 3 0 3 C0 2.01 0 1.02 0 0 Z " fill="#200775" transform="translate(79,20)"/>
<path d="M0 0 C1.65 0.99 3.3 1.98 5 3 C4.67 4.32 4.34 5.64 4 7 C2 5.1875 2 5.1875 0 3 C0 2.01 0 1.02 0 0 Z " fill="#2FACB2" transform="translate(127,12)"/>
<path d="M0 0 C1.093125 0.33 2.18625 0.66 3.3125 1 C6.84578884 2.13086649 6.84578884 2.13086649 10 2 C10 2.66 10 3.32 10 4 C5.82412255 5.39195915 3.86525224 3.82323219 0 2 C0 1.34 0 0.68 0 0 Z " fill="#0FD8BC" transform="translate(96,192)"/>
<path d="M0 0 C2.99324263 1.0975223 3.84610901 1.67682892 5.25 4.625 C5.4975 5.40875 5.745 6.1925 6 7 C2.58841744 5.86280581 1.88145399 4.95657056 0 2 C0 1.34 0 0.68 0 0 Z " fill="#082063" transform="translate(58,162)"/>
<path d="M0 0 C3.79588866 0.54226981 5.47211993 2.20127563 8 5 C6.68 5 5.36 5 4 5 C4 4.34 4 3.68 4 3 C2.68 2.34 1.36 1.68 0 1 C0 0.67 0 0.34 0 0 Z " fill="#30BDC5" transform="translate(56,120)"/>
<path d="M0 0 C0.99 0.33 1.98 0.66 3 1 C3 1.99 3 2.98 3 4 C1.35 4 -0.3 4 -2 4 C-2 3.01 -2 2.02 -2 1 C-1.34 0.67 -0.68 0.34 0 0 Z " fill="#1C047D" transform="translate(135,8)"/>
</svg>
