<?xml version="1.0" encoding="UTF-8"?>
<svg version="1.1" xmlns="http://www.w3.org/2000/svg" width="242" height="250">
<path d="M0 0 C79.86 0 159.72 0 242 0 C242 82.5 242 165 242 250 C162.14 250 82.28 250 0 250 C0 167.5 0 85 0 0 Z " fill="#250070" transform="translate(0,0)"/>
<path d="M0 0 C2.875 1.3125 2.875 1.3125 5 3 C5.75023437 3.55880859 5.75023437 3.55880859 6.515625 4.12890625 C8.76557512 6.96502759 9.20022153 10.1495561 9.875 13.625 C10.03790527 14.42607178 10.20081055 15.22714355 10.36865234 16.05249023 C12.33116352 26.09177214 13.77907116 36.22719839 15.24951172 46.34814453 C16.19003759 52.80262626 17.19912573 59.21056126 18.53564453 65.59741211 C19.44139869 70.28380889 20.01871332 75.01725197 20.625 79.75 C20.82609375 81.25240234 20.82609375 81.25240234 21.03125 82.78515625 C21.65022807 87.55381385 22.18037301 92.17912135 22 97 C23.32 97 24.64 97 26 97 C25.979375 95.865625 25.95875 94.73125 25.9375 93.5625 C26 90 26 90 27 89 C27.53198023 86.20938369 28.00528081 83.43154692 28.4375 80.625 C28.57164307 79.76648438 28.70578613 78.90796875 28.84399414 78.0234375 C29.70455555 72.36018788 30.38599229 66.70077621 30.9375 61 C35.72136219 11.98101212 35.72136219 11.98101212 41 4 C45.62415753 0.55579991 50.26132153 -0.64966171 56 0 C59.86165366 1.11558883 60.71497149 1.57245724 63 5 C63 5.99 63 6.98 63 8 C63.66 8 64.32 8 65 8 C65.05528373 10.10385294 65.09335577 12.20815875 65.125 14.3125 C65.14820313 15.48425781 65.17140625 16.65601563 65.1953125 17.86328125 C65.14655125 21.00451201 64.65257581 23.86715108 64 26.9375 C62.53588698 34.48086493 62.78447886 42.04187942 62.875 49.6875 C62.88505708 51.1790304 62.89417808 52.67056742 62.90234375 54.16210938 C62.92412456 57.77487974 62.9585015 61.38739593 63 65 C61.68 65.33 60.36 65.66 59 66 C58.67 70.29 58.34 74.58 58 79 C58.99 79 59.98 79 61 79 C61 78.34 61 77.68 61 77 C63.92168889 76.0261037 66.01029474 75.80394177 69.0625 75.75 C69.94035156 75.72421875 70.81820312 75.6984375 71.72265625 75.671875 C72.47417969 75.78015625 73.22570312 75.8884375 74 76 C74.99 77.485 74.99 77.485 76 79 C78.56282742 79.72965366 78.56282742 79.72965366 81 80 C81.103125 80.639375 81.20625 81.27875 81.3125 81.9375 C81.539375 82.618125 81.76625 83.29875 82 84 C83.485 84.495 83.485 84.495 85 85 C85.495 91.435 85.495 91.435 86 98 C86.66 98 87.32 98 88 98 C88.061875 97.05125 88.12375 96.1025 88.1875 95.125 C88.455625 94.09375 88.72375 93.0625 89 92 C94.80282578 88.96387865 102.11658664 88.33272619 108.5234375 89.43359375 C110.6875 90.125 110.6875 90.125 114 92 C115 94.6875 115 94.6875 115 97 C115.66 97 116.32 97 117 97 C119.21751361 101.43502722 118.22723772 107.45215172 118.24023438 112.38330078 C118.24987266 114.59576996 118.28086114 116.80728286 118.3125 119.01953125 C118.36505399 126.20903931 118.27776207 132.42722447 115 139 C115.66 139.33 116.32 139.66 117 140 C117 140.99 117 141.98 117 143 C117.99 143 118.98 143 120 143 C120.0236189 155.83518518 119.58793642 167.10664454 114.27734375 178.91796875 C112.74475413 182.05982783 112.74475413 182.05982783 113 186 C112.34 186 111.68 186 111 186 C110.95875 186.721875 110.9175 187.44375 110.875 188.1875 C109.63721895 192.16608196 107.32298855 193.60744824 104 196 C103.01 196.33 102.02 196.66 101 197 C99.61061923 198.96147874 98.2739589 200.96166576 97 203 C96 204 96 204 92.125 204.75 C88.36030591 205.53975444 85.2037734 206.75112677 81.75 208.4375 C66.02549319 215.83984443 50.16243995 215.46282935 34 210 C21.09331315 205.02192266 12.24846594 196.62349909 5 185 C4.52691406 184.30519531 4.05382812 183.61039063 3.56640625 182.89453125 C-4.78129793 169.6917825 -4.53502529 151.65668318 -1.4375 136.87890625 C-1.293125 136.25886719 -1.14875 135.63882813 -1 135 C-1.99 135 -2.98 135 -4 135 C-5.21062053 132.57875894 -5.15553126 130.5188213 -5.23999023 127.84985352 C-5.56745853 117.51971715 -6.70799824 107.31484888 -7.9375 97.0625 C-12.11904307 62.04978683 -12.11904307 62.04978683 -12 45 C-12.66 45 -13.32 45 -14 45 C-17.31513302 10.31453909 -17.31513302 10.31453909 -14 4 C-9.98224113 -0.62651021 -5.77258732 -0.88163152 0 0 Z " fill="#0C7BE9" transform="translate(71,15)"/>
<path d="M0 0 C1.19110886 -0.00630432 2.38221771 -0.01260864 3.60942078 -0.019104 C4.88146866 -0.01505554 6.15351654 -0.01100708 7.46411133 -0.00683594 C8.78026932 -0.00874939 10.09642731 -0.01066284 11.45246887 -0.01263428 C14.22877736 -0.01557285 17.0049566 -0.01132686 19.78125 -0.00195312 C23.33894911 0.00947428 26.89634752 0.00285342 30.45403576 -0.00909805 C33.85325183 -0.01805766 37.25238672 -0.01178859 40.65161133 -0.00683594 C41.9297319 -0.0108844 43.20785248 -0.01493286 44.52470398 -0.019104 C46.29718254 -0.00964752 46.29718254 -0.00964752 48.10546875 0 C49.14660324 0.00159119 50.18773773 0.00318237 51.26042175 0.00482178 C53.85864258 0.25878906 53.85864258 0.25878906 56.85864258 2.25878906 C57.66647149 7.17704153 57.45681787 11.87210998 55.48364258 16.44628906 C54.94739258 17.04441406 54.41114258 17.64253906 53.85864258 18.25878906 C53.19864258 18.25878906 52.53864258 18.25878906 51.85864258 18.25878906 C51.63176758 19.02191406 51.40489258 19.78503906 51.17114258 20.57128906 C49.57768079 23.83409177 48.09525922 24.72139616 44.85864258 26.25878906 C44.19864258 26.25878906 43.53864258 26.25878906 42.85864258 26.25878906 C42.85864258 26.91878906 42.85864258 27.57878906 42.85864258 28.25878906 C31.63864258 28.25878906 20.41864258 28.25878906 8.85864258 28.25878906 C8.85864258 29.57878906 8.85864258 30.89878906 8.85864258 32.25878906 C12.48864258 32.58878906 16.11864258 32.91878906 19.85864258 33.25878906 C19.85864258 33.91878906 19.85864258 34.57878906 19.85864258 35.25878906 C20.39489258 35.34128906 20.93114258 35.42378906 21.48364258 35.50878906 C26.35127382 37.04593577 28.8149743 38.64110323 31.57739258 42.92285156 C35.82282781 51.15338873 36.60056019 58.09473267 35.85864258 67.25878906 C37.17864258 67.25878906 38.49864258 67.25878906 39.85864258 67.25878906 C39.8561796 53.33650508 39.8561796 53.33650508 35.85864258 40.25878906 C34.37364258 39.76378906 34.37364258 39.76378906 32.85864258 39.25878906 C30.67114258 37.32128906 30.67114258 37.32128906 28.85864258 35.25878906 C28.85864258 34.59878906 28.85864258 33.93878906 28.85864258 33.25878906 C29.82543945 33.195625 30.79223633 33.13246094 31.78833008 33.06738281 C40.65665368 32.23323356 47.27715255 30.82642332 53.85864258 24.25878906 C55.11427713 22.14745296 55.11427713 22.14745296 55.85864258 20.25878906 C56.51864258 20.25878906 57.17864258 20.25878906 57.85864258 20.25878906 C58.51864258 18.93878906 59.17864258 17.61878906 59.85864258 16.25878906 C61.29093424 17.52832031 62.72322591 18.79785156 64.15551758 20.06738281 C67.85154962 22.65290981 71.90292921 22.44784275 76.29614258 22.50878906 C77.40860352 22.53457031 78.52106445 22.56035156 79.66723633 22.58691406 C83.18283999 22.22545665 84.96021572 21.20129736 87.85864258 19.25878906 C88.51864258 19.25878906 89.17864258 19.25878906 89.85864258 19.25878906 C90.57232683 33.86918664 90.41470982 46.01077754 83.85864258 59.25878906 C83.50415039 60.01804688 83.1496582 60.77730469 82.78442383 61.55957031 C81.52796024 63.86573766 79.71103138 65.40640026 77.85864258 67.25878906 C77.42165039 68.03222656 76.9846582 68.80566406 76.53442383 69.60253906 C74.66381783 72.56760219 72.61929241 74.51809962 69.98364258 76.82128906 C69.1405957 77.56507813 68.29754883 78.30886719 67.42895508 79.07519531 C56.07807482 88.71826836 42.2975666 93.02271751 27.31176758 92.60644531 C11.32224103 90.99664004 -3.06008577 85.18654674 -14.14135742 73.25878906 C-16.7185723 70.05740496 -18.96798022 66.7439745 -21.14135742 63.25878906 C-21.61444336 62.56398437 -22.0875293 61.86917969 -22.57495117 61.15332031 C-29.49851557 50.20299442 -30.8653914 34.50157917 -28.74291992 21.89160156 C-26.59031591 14.93058339 -20.92125401 7.93428322 -15.01635742 3.75878906 C-10.00060465 1.14187457 -5.65371947 0.00862093 0 0 Z " fill="#0C7BE9" transform="translate(97.141357421875,136.7412109375)"/>
<path d="M0 0 C0.66 0 1.32 0 2 0 C2.33 7.26 2.66 14.52 3 22 C1.68 22.33 0.36 22.66 -1 23 C-1.33 27.29 -1.66 31.58 -2 36 C-1.01 36 -0.02 36 1 36 C1 35.34 1 34.68 1 34 C3.92168889 33.0261037 6.01029474 32.80394177 9.0625 32.75 C9.94035156 32.72421875 10.81820312 32.6984375 11.72265625 32.671875 C12.47417969 32.78015625 13.22570312 32.8884375 14 33 C14.66 33.99 15.32 34.98 16 36 C18.56282742 36.72965366 18.56282742 36.72965366 21 37 C21.103125 37.639375 21.20625 38.27875 21.3125 38.9375 C21.539375 39.618125 21.76625 40.29875 22 41 C23.485 41.495 23.485 41.495 25 42 C25.495 48.435 25.495 48.435 26 55 C26.66 55 27.32 55 28 55 C28.061875 54.05125 28.12375 53.1025 28.1875 52.125 C28.455625 51.09375 28.72375 50.0625 29 49 C34.80282578 45.96387865 42.11658664 45.33272619 48.5234375 46.43359375 C50.6875 47.125 50.6875 47.125 54 49 C55 51.6875 55 51.6875 55 54 C55.66 54 56.32 54 57 54 C59.21751361 58.43502722 58.22723772 64.45215172 58.24023438 69.38330078 C58.24987266 71.59576996 58.28086114 73.80728286 58.3125 76.01953125 C58.36505399 83.20903931 58.27776207 89.42722447 55 96 C55.66 96.33 56.32 96.66 57 97 C57 97.99 57 98.98 57 100 C57.99 100 58.98 100 60 100 C60.0236189 112.83518518 59.58793642 124.10664454 54.27734375 135.91796875 C52.74475413 139.05982783 52.74475413 139.05982783 53 143 C52.34 143 51.68 143 51 143 C50.95875 143.721875 50.9175 144.44375 50.875 145.1875 C49.63721895 149.16608196 47.32298855 150.60744824 44 153 C43.01 153.33 42.02 153.66 41 154 C39.61061923 155.96147874 38.2739589 157.96166576 37 160 C36 161 36 161 32.9375 161.0625 C31.968125 161.041875 30.99875 161.02125 30 161 C32.82356549 157.52561268 35.55211752 154.22523434 39.125 151.5 C42.50784038 148.55839967 43.97935871 145.96356561 46 142 C46.66 142 47.32 142 48 142 C48.41572266 140.69675781 48.41572266 140.69675781 48.83984375 139.3671875 C50 136 50 136 51.25390625 133.1953125 C56.11189696 121.79716116 55.92315026 110.22664249 56 98 C54.47246094 98.97839844 54.47246094 98.97839844 52.9140625 99.9765625 C49.3068223 102.03343374 46.57208339 102.48518596 42.375 102.375 C41.28960937 102.36210937 40.20421875 102.34921875 39.0859375 102.3359375 C33.53477435 101.73163366 30.19409599 99.59493942 26 96 C25.34 96.99 24.68 97.98 24 99 C23.34 99 22.68 99 22 99 C21.92136719 99.58523437 21.84273438 100.17046875 21.76171875 100.7734375 C20.01012925 105.89346835 13.76106761 109.11946619 9.125 111.4375 C4.41966707 112.28445993 -0.23359412 112.15266069 -5 112 C-5 112.66 -5 113.32 -5 114 C-4.4225 114.226875 -3.845 114.45375 -3.25 114.6875 C1.20106728 117.28395591 3.75118658 121.46412041 5.47265625 126.265625 C6.71682252 132.71685751 6.20060866 139.46164378 6 146 C4.68 146 3.36 146 2 146 C1.98582031 145.11699219 1.97164063 144.23398438 1.95703125 143.32421875 C1.65364126 135.69027062 0.60490545 129.90061214 -2.94140625 123.109375 C-4 121 -4 121 -4 119 C-4.721875 118.731875 -5.44375 118.46375 -6.1875 118.1875 C-8.99766383 117.00098638 -11.48416557 115.72514361 -14 114 C-14 113.34 -14 112.68 -14 112 C-17.63 111.67 -21.26 111.34 -25 111 C-25 109.68 -25 108.36 -25 107 C-13.78 107 -2.56 107 9 107 C9 106.34 9 105.68 9 105 C13.38461538 102 13.38461538 102 16 102 C16.66 100.35 17.32 98.7 18 97 C18.66 97 19.32 97 20 97 C21.75163456 93.22777911 22.22490027 90.333361 22.125 86.1875 C22.10695313 85.21167969 22.08890625 84.23585938 22.0703125 83.23046875 C22.04710937 82.49441406 22.02390625 81.75835937 22 81 C19.36309413 79.68154706 17.36109169 79.85110505 14.40795898 79.82299805 C12.64989174 79.80374519 12.64989174 79.80374519 10.85630798 79.78410339 C8.94550194 79.77302299 8.94550194 79.77302299 6.99609375 79.76171875 C5.68850601 79.753647 4.38091827 79.74557526 3.03370667 79.73725891 C0.25871917 79.72222444 -2.51624269 79.71239256 -5.29125977 79.70483398 C-8.82624606 79.69381968 -12.36059411 79.65948242 -15.89535618 79.61966228 C-19.28567906 79.58702636 -22.67593852 79.58270112 -26.06640625 79.57421875 C-27.32610733 79.55671066 -28.58580841 79.53920258 -29.88368225 79.52116394 C-39.36170857 79.54438509 -47.02540221 81.21914103 -54 88 C-56.75376288 91.4281538 -59.22277275 94.96084715 -61 99 C-62.33332095 96.3333581 -61.67102033 94.83319697 -61 92 C-61.99 92 -62.98 92 -64 92 C-65.49929993 89.00140014 -65.20844278 85.86058463 -65.3125 82.5625 C-65.77454445 71.06813106 -67.2231207 59.68476387 -68.62817383 48.27563477 C-69.49321692 41.15740882 -70.25256706 34.18594022 -70 27 C-60.95409738 44.40221769 -62.47282077 69.87510893 -63 89 C-61.83017578 87.824375 -61.83017578 87.824375 -60.63671875 86.625 C-53.0386517 79.06070214 -45.7371025 74.57904895 -34.8046875 74.51171875 C-31.82630016 74.52701432 -28.85209652 74.60270523 -25.875 74.6875 C-24.33076556 74.71263191 -22.7864914 74.7354364 -21.2421875 74.75585938 C-17.49395362 74.81042686 -13.74723761 74.89642352 -10 75 C-10.02618408 74.03698975 -10.05236816 73.07397949 -10.0793457 72.08178711 C-10.1703596 68.48323113 -10.22743223 64.88477525 -10.2746582 61.28540039 C-10.29968689 59.73249155 -10.33372131 58.17969916 -10.37719727 56.62719727 C-10.78864949 41.54868346 -10.78864949 41.54868346 -6.24487305 36.65991211 C-3.54173006 33.05554476 -3.38599858 28.16427427 -2.75 23.8125 C-2.58725586 22.79470459 -2.42451172 21.77690918 -2.25683594 20.72827148 C-1.18534965 13.84226694 -0.29967625 6.96747273 0 0 Z " fill="#0D1481" transform="translate(131,58)"/>
<path d="M0 0 C7.08300228 5.40544911 7.08300228 5.40544911 8.05371094 10.08300781 C8.1617948 17.23360865 8.1617948 17.23360865 8.13671875 19.93994141 C8.12509659 22.04500471 8.17714532 24.14191611 8.234375 26.24609375 C8.31220369 33.85648656 7.67598848 39.56969067 2.32666016 45.30957031 C-0.59521476 47.55964061 -2.66969649 47.8211606 -6.3125 47.5625 C-7.40949219 47.51609375 -8.50648438 47.4696875 -9.63671875 47.421875 C-12.79679442 46.77746741 -14.37767645 46.10903501 -16.625 43.8125 C-16.625 42.8225 -16.625 41.8325 -16.625 40.8125 C-17.285 40.8125 -17.945 40.8125 -18.625 40.8125 C-21.81953077 36.02070384 -20.99693331 30.79132497 -20.99560547 25.15332031 C-20.99995663 23.08313347 -21.03621801 21.01511903 -21.07421875 18.9453125 C-21.11154336 6.2300613 -21.11154336 6.2300613 -16.625 0.8125 C-11.26185175 -1.51490396 -5.45244299 -2.46658135 0 0 Z " fill="#0B7CEA" transform="translate(179.625,109.1875)"/>
<path d="M0 0 C3.25 1.8125 3.25 1.8125 5 4 C5 4.99 5 5.98 5 7 C5.66 7 6.32 7 7 7 C8.17942085 10.53826255 8.11289189 13.34148726 8.09765625 17.07421875 C8.0962413 17.7580513 8.09482635 18.44188385 8.09336853 19.1464386 C8.08777876 21.32683722 8.07522822 23.50713251 8.0625 25.6875 C8.05748367 27.16731622 8.052921 28.64713406 8.04882812 30.12695312 C8.0386643 33.75137376 8.0190871 37.37557144 8 41 C-5.86 40.505 -5.86 40.505 -20 40 C-20.1153489 35.71158436 -20.21468594 31.42862882 -20.2746582 27.13989258 C-20.29967393 25.6839771 -20.33369864 24.22818559 -20.37719727 22.77270508 C-20.7747042 9.12184913 -20.7747042 9.12184913 -17.66796875 4.62890625 C-12.1412011 -0.8169424 -7.47810572 -0.8364997 0 0 Z " fill="#0C7BEA" transform="translate(146,93)"/>
<path d="M0 0 C3.25017815 1.48377698 5.7319171 3.24633838 8 6 C8.73046875 8.69921875 8.73046875 8.69921875 9.1875 11.6875 C9.34605469 12.68136719 9.50460938 13.67523438 9.66796875 14.69921875 C9.77753906 15.45847656 9.88710937 16.21773437 10 17 C9.01 17.33 8.02 17.66 7 18 C6.67 18.66 6.34 19.32 6 20 C5.90203125 19.34773438 5.8040625 18.69546875 5.703125 18.0234375 C4.41703201 10.28961559 4.41703201 10.28961559 0 4 C-3.12867461 3.26248554 -5.89255443 3.15748835 -9 4 C-11.25038212 5.54864601 -11.25038212 5.54864601 -13 8 C-13.55119278 11.38413435 -13.55119278 11.38413435 -13.390625 15.171875 C-13.38496521 15.8542926 -13.37930542 16.53671021 -13.37347412 17.23980713 C-13.35115636 19.41059762 -13.30097508 21.57971206 -13.25 23.75 C-13.22992876 25.2252365 -13.21167907 26.70049899 -13.1953125 28.17578125 C-13.1513088 31.78439501 -13.08231583 35.39203381 -13 39 C-12.34 39 -11.68 39 -11 39 C-10.9498877 39.55985596 -10.89977539 40.11971191 -10.84814453 40.6965332 C-10.61586413 43.23607956 -10.37058215 45.77420691 -10.125 48.3125 C-10.04636719 49.19357422 -9.96773437 50.07464844 -9.88671875 50.98242188 C-9.80292969 51.82998047 -9.71914063 52.67753906 -9.6328125 53.55078125 C-9.55949707 54.33106689 -9.48618164 55.11135254 -9.41064453 55.9152832 C-9.08029789 58.29494233 -9.08029789 58.29494233 -7 61 C-4.73056527 68.1349018 -4.3960124 75.31013791 -3.9375 82.75 C-3.78310257 85.16166237 -3.62568179 87.5731336 -3.46484375 89.984375 C-3.36610962 91.57330566 -3.36610962 91.57330566 -3.26538086 93.19433594 C-3.08285455 95.93190474 -3.08285455 95.93190474 -2.40844727 98.25097656 C-2 100 -2 100 -3 102 C-2.34 102 -1.68 102 -1 102 C-1.01160156 102.89460938 -1.02320312 103.78921875 -1.03515625 104.7109375 C-1.08867011 111.88179515 -0.91804983 118.88511384 0 126 C3.52381687 123.45395403 3.52381687 123.45395403 6 120 C18.1786736 113.98264118 36.30315166 116 49 116 C49 105.77 49 95.54 49 85 C49.33 85 49.66 85 50 85 C50 95.89 50 106.78 50 118 C33.875 118.3125 33.875 118.3125 28.81982422 118.38793945 C27.48141758 118.42025781 26.14303592 118.45363552 24.8046875 118.48828125 C24.122854 118.49452515 23.44102051 118.50076904 22.73852539 118.50720215 C18.11670561 118.64490534 14.97834254 119.68198858 11 122 C9.91332031 122.59941406 9.91332031 122.59941406 8.8046875 123.2109375 C4.66354521 125.70903548 1.9212885 128.06749625 -1 132 C-1.66 132 -2.32 132 -3 132 C-3.06993164 130.79690186 -3.13986328 129.59380371 -3.21191406 128.35424805 C-3.48092098 123.79259285 -3.76891979 119.23228476 -4.06201172 114.67211914 C-4.18517523 112.71669845 -4.30351873 110.76096683 -4.41650391 108.80493164 C-5.10478786 96.95487477 -6.43678398 85.65710966 -9.09082031 74.08374023 C-10.18316972 69.31497365 -10.83126929 64.55960634 -11.25 59.6875 C-11.32734375 58.91728516 -11.4046875 58.14707031 -11.484375 57.35351562 C-11.88101091 53.2207111 -12.07929925 49.15660235 -12 45 C-12.66 45 -13.32 45 -14 45 C-17.31513302 10.31453909 -17.31513302 10.31453909 -14 4 C-9.98224113 -0.62651021 -5.77258732 -0.88163152 0 0 Z " fill="#256DD8" transform="translate(71,15)"/>
<path d="M0 0 C3.20784721 -0.14622024 6.41482961 -0.23436651 9.625 -0.3125 C10.98044922 -0.3753418 10.98044922 -0.3753418 12.36328125 -0.43945312 C16.95583825 -0.52325891 20.02532491 -0.49972924 23.6484375 2.51953125 C24.42445313 3.33808594 25.20046875 4.15664063 26 5 C25.67 6.65 25.34 8.3 25 10 C24.34 10 23.68 10 23 10 C22.5875 9.030625 22.175 8.06125 21.75 7.0625 C20.364022 3.97977656 20.364022 3.97977656 18.25 3.125 C17.5075 3.08375 16.765 3.0425 16 3 C14.9275 2.896875 13.855 2.79375 12.75 2.6875 C7.97083034 3.08576414 4.61746945 3.74585927 1 7 C-2.21005008 15.11463701 -2.92231736 24.40405513 -4.0625 33 C-4.38532868 35.37518935 -4.70953552 37.75019181 -5.03515625 40.125 C-5.19185791 41.27234619 -5.34855957 42.41969238 -5.51000977 43.60180664 C-6.1213063 47.84128667 -6.83807466 52.05817261 -7.58789062 56.27514648 C-8.03102222 59.20511792 -8.25774683 62.1054479 -8.4375 65.0625 C-8.8251055 70.848393 -9.60282319 76.5254883 -10.5 82.25 C-10.69613892 83.52049194 -10.69613892 83.52049194 -10.89624023 84.81665039 C-11.87337041 90.87337041 -11.87337041 90.87337041 -13 92 C-13.36760731 94.32817964 -13.70241581 96.6618385 -14 99 C-15.32 99 -16.64 99 -18 99 C-18.12117188 97.99582031 -18.24234375 96.99164063 -18.3671875 95.95703125 C-20.23873128 80.40217883 -20.23873128 80.40217883 -23.0625 65 C-24.30772746 59.05820596 -24.63967727 53.04962891 -25 47 C-22.72525723 50.41211416 -22.43370356 52.6568529 -21.875 56.6875 C-21.70742187 57.86699219 -21.53984375 59.04648438 -21.3671875 60.26171875 C-21.24601562 61.16535156 -21.12484375 62.06898437 -21 63 C-20.01 63.33 -19.02 63.66 -18 64 C-17.97494385 64.60996826 -17.9498877 65.21993652 -17.92407227 65.84838867 C-17.8075942 68.62827898 -17.68510368 71.4078734 -17.5625 74.1875 C-17.52318359 75.14720703 -17.48386719 76.10691406 -17.44335938 77.09570312 C-17.40146484 78.02705078 -17.35957031 78.95839844 -17.31640625 79.91796875 C-17.27974854 80.77156982 -17.24309082 81.6251709 -17.20532227 82.50463867 C-16.99468906 85.06454594 -16.55158464 87.49333243 -16 90 C-15.67 89.01 -15.34 88.02 -15 87 C-14.34 87 -13.68 87 -13 87 C-13.01160156 86.40574219 -13.02320312 85.81148438 -13.03515625 85.19921875 C-13.21765601 68.43531202 -13.21765601 68.43531202 -11 64 C-10.95134765 62.50078696 -10.96303414 60.99933375 -11.0078125 59.5 C-11.02457031 58.613125 -11.04132813 57.72625 -11.05859375 56.8125 C-11.10286932 54.93729938 -11.15495536 53.06226693 -11.21484375 51.1875 C-11.23611328 49.8571875 -11.23611328 49.8571875 -11.2578125 48.5 C-11.29092529 47.27796875 -11.29092529 47.27796875 -11.32470703 46.03125 C-11.21755371 45.3609375 -11.11040039 44.690625 -11 44 C-10.01 43.34 -9.02 42.68 -8 42 C-7.45161248 39.21448063 -7.45161248 39.21448063 -7.375 36.0625 C-7.20548093 32.74073351 -7.05482916 30.16448749 -6 27 C-5.79861265 25.39851606 -5.63637356 23.79191895 -5.5 22.18359375 C-5.4175 21.25482422 -5.335 20.32605469 -5.25 19.36914062 C-5.08300262 17.41083547 -4.91633726 15.45250196 -4.75 13.49414062 C-4.6675 12.56666016 -4.585 11.63917969 -4.5 10.68359375 C-4.4278125 9.83337646 -4.355625 8.98315918 -4.28125 8.10717773 C-4 6 -4 6 -3 4 C-2.34 4 -1.68 4 -1 4 C-0.67 2.68 -0.34 1.36 0 0 Z " fill="#140E7D" transform="translate(111,13)"/>
<path d="M0 0 C1.44040003 2.88080005 0.48661575 4.46279812 -0.34375 7.55078125 C-2.49576501 16.43884779 -3.02210524 25.33990826 -3.65673828 34.43334961 C-4.20344349 42.09140229 -4.81865804 49.27138938 -7.31787109 56.58764648 C-8.68395589 61.41881467 -8.77392798 66.44672279 -9.0625 71.4375 C-10.41870117 93.41870117 -10.41870117 93.41870117 -14 97 C-17.5 96.8125 -17.5 96.8125 -21 96 C-23.01483731 92.97774404 -23.26158096 92.24729121 -23.37890625 88.83203125 C-23.41306641 88.02056641 -23.44722656 87.20910156 -23.48242188 86.37304688 C-23.50884766 85.52806641 -23.53527344 84.68308594 -23.5625 83.8125 C-23.87917113 74.86863832 -23.87917113 74.86863832 -25 66 C-25.66 65.67 -26.32 65.34 -27 65 C-29.15199366 55.45814131 -28.09077702 44.73331421 -28 35 C-26.21806995 38.12743165 -25.60070333 40.78806972 -25.18359375 44.3515625 C-24.99700195 45.87523438 -24.99700195 45.87523438 -24.80664062 47.4296875 C-24.68482422 48.48414063 -24.56300781 49.53859375 -24.4375 50.625 C-24.18940321 52.72173592 -23.9382542 54.81811365 -23.68359375 56.9140625 C-23.57587646 57.8417041 -23.46815918 58.7693457 -23.35717773 59.72509766 C-23.1138332 62.02489077 -23.1138332 62.02489077 -22 64 C-21.35312061 67.73102817 -20.91788234 71.49428351 -20.4375 75.25 C-20.29892578 76.28769531 -20.16035156 77.32539062 -20.01757812 78.39453125 C-19.38295095 83.29022658 -18.80374552 88.05097386 -19 93 C-17.68 93 -16.36 93 -15 93 C-15.020625 91.865625 -15.04125 90.73125 -15.0625 89.5625 C-15 86 -15 86 -14 85 C-13.46801977 82.20938369 -12.99471919 79.43154692 -12.5625 76.625 C-12.42835693 75.76648438 -12.29421387 74.90796875 -12.15600586 74.0234375 C-11.29544445 68.36018788 -10.61400771 62.70077621 -10.0625 57 C-5.41971559 9.42659934 -5.41971559 9.42659934 0 0 Z " fill="#215FCD" transform="translate(112,19)"/>
<path d="M0 0 C1.19110886 -0.00630432 2.38221771 -0.01260864 3.60942078 -0.019104 C4.88146866 -0.01505554 6.15351654 -0.01100708 7.46411133 -0.00683594 C8.78026932 -0.00874939 10.09642731 -0.01066284 11.45246887 -0.01263428 C14.22877736 -0.01557285 17.0049566 -0.01132686 19.78125 -0.00195312 C23.33894911 0.00947428 26.89634752 0.00285342 30.45403576 -0.00909805 C33.85325183 -0.01805766 37.25238672 -0.01178859 40.65161133 -0.00683594 C41.9297319 -0.0108844 43.20785248 -0.01493286 44.52470398 -0.019104 C46.29718254 -0.00964752 46.29718254 -0.00964752 48.10546875 0 C49.14660324 0.00159119 50.18773773 0.00318237 51.26042175 0.00482178 C53.85864258 0.25878906 53.85864258 0.25878906 56.85864258 2.25878906 C57.25708008 4.75488281 57.25708008 4.75488281 57.23364258 7.69628906 C57.24524414 9.14841797 57.24524414 9.14841797 57.25708008 10.62988281 C56.81005124 13.57939662 56.16900818 14.45572596 53.85864258 16.25878906 C53.87024414 15.48792969 53.8818457 14.71707031 53.89379883 13.92285156 C53.90282227 12.91996094 53.9118457 11.91707031 53.92114258 10.88378906 C53.93274414 9.88605469 53.9443457 8.88832031 53.95629883 7.86035156 C54.0387086 5.27446453 54.0387086 5.27446453 52.85864258 3.25878906 C45.36558918 3.20816226 37.87257973 3.17308644 30.37939453 3.14892578 C27.82924756 3.13885578 25.27911216 3.12519903 22.72900391 3.10791016 C19.06776068 3.08370594 15.40666984 3.07231601 11.74536133 3.06347656 C10.60153488 3.05315399 9.45770844 3.04283142 8.27922058 3.03219604 C7.21834732 3.03204498 6.15747406 3.03189392 5.06445312 3.03173828 C4.12957565 3.02729706 3.19469818 3.02285583 2.23149109 3.01828003 C-0.40847853 3.09889372 -0.40847853 3.09889372 -3.14135742 5.25878906 C-5.26245117 5.53222656 -5.26245117 5.53222656 -7.57885742 5.63378906 C-10.83310891 5.92915062 -11.88058227 6.05291394 -14.51635742 8.13378906 C-15.05260742 8.83503906 -15.58885742 9.53628906 -16.14135742 10.25878906 C-16.63635742 10.71253906 -17.13135742 11.16628906 -17.64135742 11.63378906 C-19.36209982 13.4027239 -19.36209982 13.4027239 -21.14135742 16.38378906 C-23.14135742 19.25878906 -23.14135742 19.25878906 -26.14135742 20.25878906 C-26.35887292 29.34610333 -26.14653152 38.11729351 -24.76489258 47.11621094 C-24.29256394 50.29975472 -24.10485953 52.14929538 -25.14135742 55.25878906 C-25.83479627 52.9308158 -26.49604723 50.60021861 -27.14135742 48.25878906 C-27.33213867 47.618125 -27.52291992 46.97746094 -27.71948242 46.31738281 C-30.00715753 37.7059201 -31.14548749 26.45286462 -27.31713867 18.16113281 C-20.6753144 7.41505832 -13.23536978 0.02018161 0 0 Z " fill="#1F60CA" transform="translate(97.141357421875,136.7412109375)"/>
<path d="M0 0 C3.25 1.8125 3.25 1.8125 5 4 C5 4.99 5 5.98 5 7 C5.66 7 6.32 7 7 7 C8.17942085 10.53826255 8.11289189 13.34148726 8.09765625 17.07421875 C8.0962413 17.7580513 8.09482635 18.44188385 8.09336853 19.1464386 C8.08777876 21.32683722 8.07522822 23.50713251 8.0625 25.6875 C8.05748367 27.16731622 8.052921 28.64713406 8.04882812 30.12695312 C8.0386643 33.75137376 8.0190871 37.37557144 8 41 C-5.86 40.505 -5.86 40.505 -20 40 C-20.1153489 35.71158436 -20.21468594 31.42862882 -20.2746582 27.13989258 C-20.29967393 25.6839771 -20.33369864 24.22818559 -20.37719727 22.77270508 C-20.7747042 9.12184913 -20.7747042 9.12184913 -17.66796875 4.62890625 C-12.1412011 -0.8169424 -7.47810572 -0.8364997 0 0 Z M-17 9 C-18.08315152 12.03514116 -18.06924468 14.79990655 -18 18 C-18.02320312 18.98871094 -18.04640625 19.97742188 -18.0703125 20.99609375 C-18.16734443 26.54770646 -17.79399172 31.44205794 -17 37 C-9.74 37 -2.48 37 5 37 C5.65231237 31.12918864 6.15904637 25.60597556 6.125 19.75 C6.12886719 19.069375 6.13273437 18.38875 6.13671875 17.6875 C6.1296138 14.0213433 6.08126838 10.52071534 5 7 C2.62374655 5.81608777 2.62374655 5.81608777 0 5 C-0.474375 4.46375 -0.94875 3.9275 -1.4375 3.375 C-3.00735452 1.77477309 -3.00735452 1.77477309 -5.6875 1.375 C-10.75268707 2.33069567 -13.86545907 4.96025751 -17 9 Z " fill="#1F6BD6" transform="translate(146,93)"/>
<path d="M0 0 C1.8125 0.0625 1.8125 0.0625 4 1 C5.75 4.5625 5.75 4.5625 7 8 C7.99 8 8.98 8 10 8 C10.268125 8.969375 10.53625 9.93875 10.8125 10.9375 C11.204375 11.948125 11.59625 12.95875 12 14 C12.99 14.33 13.98 14.66 15 15 C15.474375 15.804375 15.94875 16.60875 16.4375 17.4375 C18.16940227 20.27781972 19.07253423 20.66933374 22 22 C22.5775 22.66 23.155 23.32 23.75 24 C26.944642 26.83968178 29.83479423 27.16695885 34 28 C34 28.66 34 29.32 34 30 C34.763125 30.144375 35.52625 30.28875 36.3125 30.4375 C39 31 39 31 42 32 C43.57993215 32.09272108 45.16344463 32.13068385 46.74609375 32.1328125 C47.66583984 32.13410156 48.58558594 32.13539063 49.53320312 32.13671875 C50.49162109 32.13285156 51.45003906 32.12898438 52.4375 32.125 C53.86932617 32.13080078 53.86932617 32.13080078 55.33007812 32.13671875 C56.25111328 32.13542969 57.17214844 32.13414062 58.12109375 32.1328125 C59.38070923 32.13112061 59.38070923 32.13112061 60.66577148 32.12939453 C62.91527743 32.00469647 64.83096609 31.57744616 67 31 C68.91561254 30.93311409 70.83335592 30.91468281 72.75 30.9375 C73.73484375 30.94652344 74.7196875 30.95554688 75.734375 30.96484375 C76.85585937 30.98224609 76.85585937 30.98224609 78 31 C71.01975104 36.97589659 60.31276391 37.59375733 51.453125 37.34765625 C35.47791881 35.73929273 21.05764326 29.93766331 10 18 C7.46241544 14.78253429 5.16897006 11.47495469 3 8 C2.16275391 6.70835937 2.16275391 6.70835937 1.30859375 5.390625 C0 3 0 3 0 0 Z " fill="#2167D0" transform="translate(73,192)"/>
<path d="M0 0 C9.04590262 17.40221769 7.52717923 42.87510893 7 62 C7.77988281 61.21625 8.55976562 60.4325 9.36328125 59.625 C16.86223307 52.15937686 24.17546017 47.58029519 34.9765625 47.51171875 C37.86126336 47.52700111 40.74163369 47.60265744 43.625 47.6875 C45.12105615 47.71263426 46.61715334 47.73543832 48.11328125 47.75585938 C51.7430543 47.81040325 55.37125701 47.89638539 59 48 C59 48.33 59 48.66 59 49 C58.19256348 49.01458252 57.38512695 49.02916504 56.55322266 49.04418945 C52.9099873 49.11846086 49.26768967 49.21519025 45.625 49.3125 C44.35398438 49.33505859 43.08296875 49.35761719 41.7734375 49.38085938 C39.95585938 49.4340332 39.95585938 49.4340332 38.1015625 49.48828125 C36.98088379 49.51446533 35.86020508 49.54064941 34.70556641 49.56762695 C33.36631104 49.78165161 33.36631104 49.78165161 32 50 C31.34 50.99 30.68 51.98 30 53 C28.01171875 54.02734375 28.01171875 54.02734375 25.6875 54.9375 C17.61968116 58.3711637 12.52131761 63.99700543 9 72 C7.66667905 69.3333581 8.32897967 67.83319697 9 65 C8.01 65 7.02 65 6 65 C4.50070007 62.00140014 4.79155722 58.86058463 4.6875 55.5625 C4.22545555 44.06813106 2.7768793 32.68476387 1.37182617 21.27563477 C0.50678308 14.15740882 -0.25256706 7.18594022 0 0 Z " fill="#122493" transform="translate(61,85)"/>
<path d="M0 0 C1.43229167 1.26953125 2.86458333 2.5390625 4.296875 3.80859375 C7.99290704 6.39412075 12.04428663 6.18905369 16.4375 6.25 C17.54996094 6.27578125 18.66242188 6.3015625 19.80859375 6.328125 C23.32419741 5.96666759 25.10157314 4.9425083 28 3 C28.66 3 29.32 3 30 3 C30.71368425 17.61039757 30.55606724 29.75198848 24 43 C23.64550781 43.75925781 23.29101562 44.51851562 22.92578125 45.30078125 C21.66931766 47.6069486 19.8523888 49.1476112 18 51 C17.56300781 51.7734375 17.12601563 52.546875 16.67578125 53.34375 C14.80517525 56.30881313 12.76064984 58.25931055 10.125 60.5625 C9.28195313 61.30628906 8.43890625 62.05007812 7.5703125 62.81640625 C6.29800781 63.89728516 6.29800781 63.89728516 5 65 C4.13761719 65.73605469 3.27523437 66.47210938 2.38671875 67.23046875 C-0.42527756 69.31530398 -2.55207627 69.67926291 -6 70 C-6 69.34 -6 68.68 -6 68 C-5.01 68 -4.02 68 -3 68 C-3 67.34 -3 66.68 -3 66 C-2.01 66 -1.02 66 0 66 C0.33 64.68 0.66 63.36 1 62 C3.31 61.34 5.62 60.68 8 60 C8 59.01 8 58.02 8 57 C8.66 57 9.32 57 10 57 C10.061875 56.443125 10.12375 55.88625 10.1875 55.3125 C11 53 11 53 13.3125 50.8125 C16.32086665 47.66420932 17.45841415 44.93141869 18.91015625 40.890625 C20 39 20 39 22.12109375 38.234375 C22.74113281 38.15703125 23.36117187 38.0796875 24 38 C24 36.68 24 35.36 24 34 C24.66 34 25.32 34 26 34 C26.144375 32.9275 26.28875 31.855 26.4375 30.75 C27 27 27 27 27.51538086 25.00878906 C28.32698024 21.64463807 28.37686866 18.19483076 28.5625 14.75 C28.62727539 13.63238281 28.62727539 13.63238281 28.69335938 12.4921875 C28.79896725 10.661651 28.89994201 8.83084824 29 7 C24.545 7.495 24.545 7.495 20 8 C19.67 8.99 19.34 9.98 19 11 C17.33388095 11.042721 15.66617115 11.04063832 14 11 C13.67 10.67 13.34 10.34 13 10 C11.48834346 9.60851239 9.96530368 9.26027543 8.4375 8.9375 C7.61121094 8.76089844 6.78492188 8.58429688 5.93359375 8.40234375 C5.29550781 8.26957031 4.65742188 8.13679687 4 8 C4 7.01 4 6.02 4 5 C3.071875 5.33 2.14375 5.66 1.1875 6 C-2 7 -2 7 -5 7 C-4.67 6.01 -4.34 5.02 -4 4 C-3.34 4 -2.68 4 -2 4 C-1.34 2.68 -0.68 1.36 0 0 Z " fill="#1F70D8" transform="translate(157,153)"/>
<path d="M0 0 C4.50206785 -0.17655168 7.98974995 -0.17699288 12 2 C14 5 14 5 14 8 C14.66 8 15.32 8 16 8 C16.54072832 19.91605003 14.89446549 31.26707812 13 43 C12.34 43 11.68 43 11 43 C11.06960937 43.89912109 11.06960937 43.89912109 11.140625 44.81640625 C11.43877948 52.30221328 10.51106588 59.43360977 9.3125 66.8125 C9.16393555 67.80258057 9.01537109 68.79266113 8.86230469 69.81274414 C7.77534262 76.11701779 6.19991337 80.13515689 2 85 C1.67 85 1.34 85 1 85 C1.11509661 83.58249437 1.24253658 82.16598831 1.375 80.75 C1.47941406 79.56664063 1.47941406 79.56664063 1.5859375 78.359375 C2.01507113 75.914123 2.78600638 74.15163097 4 72 C4.66 72.33 5.32 72.66 6 73 C6.04898438 71.73285156 6.09796875 70.46570313 6.1484375 69.16015625 C6.22354191 67.46091904 6.29908632 65.76170124 6.375 64.0625 C6.42140625 62.81629883 6.42140625 62.81629883 6.46875 61.54492188 C6.66198232 57.40652962 7.02708131 53.51962226 8.00390625 49.48828125 C9.1624238 44.70413038 9.40384846 40.03158906 9.5625 35.125 C9.62248283 33.46079545 9.68612736 31.79671777 9.75390625 30.1328125 C9.77783447 29.40980957 9.8017627 28.68680664 9.82641602 27.94189453 C10 26 10 26 11 23 C11.14675735 20.54463658 11.22100698 18.08457448 11.25 15.625 C11.27578125 14.31789063 11.3015625 13.01078125 11.328125 11.6640625 C10.98335864 7.81417149 10.45259543 5.95738017 8 3 C5.99411525 1.99065319 5.99411525 1.99065319 3.8125 1.6875 C2.554375 1.460625 1.29625 1.23375 0 1 C0 0.67 0 0.34 0 0 Z " fill="#1F6BD5" transform="translate(120,15)"/>
<path d="M0 0 C1.0209375 0.8353125 1.0209375 0.8353125 2.0625 1.6875 C2.0625 2.6775 2.0625 3.6675 2.0625 4.6875 C1.175625 4.213125 0.28875 3.73875 -0.625 3.25 C-3.50792756 1.89012851 -5.81360623 1.14689614 -8.9375 0.6875 C-8.9375 1.3475 -8.9375 2.0075 -8.9375 2.6875 C-9.9275 3.0175 -10.9175 3.3475 -11.9375 3.6875 C-13.28020821 5.68121825 -14.61403494 7.6809562 -15.9375 9.6875 C-16.5975 9.6875 -17.2575 9.6875 -17.9375 9.6875 C-17.9375 18.5975 -17.9375 27.5075 -17.9375 36.6875 C-17.2775 36.6875 -16.6175 36.6875 -15.9375 36.6875 C-15.9375 37.6775 -15.9375 38.6675 -15.9375 39.6875 C-13.9575 39.6875 -11.9775 39.6875 -9.9375 39.6875 C-9.6075 40.6775 -9.2775 41.6675 -8.9375 42.6875 C-8.380625 42.1925 -7.82375 41.6975 -7.25 41.1875 C-4.55587017 39.43995633 -3.08374993 39.42531251 0.0625 39.6875 C0.0625 40.6775 0.0625 41.6675 0.0625 42.6875 C0.7225 43.0175 1.3825 43.3475 2.0625 43.6875 C1.4025 44.6775 0.7425 45.6675 0.0625 46.6875 C-2.8359375 47.0859375 -2.8359375 47.0859375 -6.3125 47.0625 C-8.02566406 47.07410156 -8.02566406 47.07410156 -9.7734375 47.0859375 C-13.1534015 46.6603124 -14.60148191 46.13859288 -16.9375 43.6875 C-16.9375 42.6975 -16.9375 41.7075 -16.9375 40.6875 C-17.5975 40.6875 -18.2575 40.6875 -18.9375 40.6875 C-22.13203077 35.89570384 -21.30943331 30.66632497 -21.30810547 25.02832031 C-21.31245663 22.95813347 -21.34871801 20.89011903 -21.38671875 18.8203125 C-21.42404336 6.1050613 -21.42404336 6.1050613 -16.9375 0.6875 C-11.37250097 -1.72749958 -5.6295154 -2.51531539 0 0 Z " fill="#256AD3" transform="translate(179.9375,109.3125)"/>
<path d="M0 0 C-0.474375 1.010625 -0.94875 2.02125 -1.4375 3.0625 C-2.9936328 6.65922205 -3.6012946 10.09268709 -4 14 C-3.34 14 -2.68 14 -2 14 C-0.77228972 18.37387166 -0.77869721 22.54627628 -0.75 27.0625 C-0.729375 27.87783203 -0.70875 28.69316406 -0.6875 29.53320312 C-0.68234375 30.31759766 -0.6771875 31.10199219 -0.671875 31.91015625 C-0.65785645 32.97955444 -0.65785645 32.97955444 -0.64355469 34.07055664 C-1.10765017 36.58271185 -1.98969641 37.46724778 -4 39 C-6.6875 39.1875 -6.6875 39.1875 -9 39 C-9 38.34 -9 37.68 -9 37 C-9.66 37 -10.32 37 -11 37 C-11.06058594 35.69804687 -11.12117187 34.39609375 -11.18359375 33.0546875 C-11.26804562 31.32811601 -11.35269126 29.601554 -11.4375 27.875 C-11.47681641 27.0190625 -11.51613281 26.163125 -11.55664062 25.28125 C-11.78156402 20.78278208 -12.13540883 16.43193793 -13 12 C-10.2291946 14.3929683 -9.1089093 16.5203191 -8 20 C-7.8046875 23.55078125 -7.8046875 23.55078125 -7.875 27.3125 C-7.89304688 28.56675781 -7.91109375 29.82101563 -7.9296875 31.11328125 C-7.95289063 32.06589844 -7.97609375 33.01851562 -8 34 C-6.68 34 -5.36 34 -4 34 C-4.00246298 20.07771601 -4.00246298 20.07771601 -8 7 C-8.99 6.67 -9.98 6.34 -11 6 C-13.1875 4.0625 -13.1875 4.0625 -15 2 C-15 1.34 -15 0.68 -15 0 C-13.25093341 -0.19601608 -11.50068154 -0.38147403 -9.75 -0.5625 C-8.77546875 -0.66691406 -7.8009375 -0.77132812 -6.796875 -0.87890625 C-4.2368648 -0.98974468 -2.41851841 -0.77738092 0 0 Z " fill="#1E64D1" transform="translate(141,170)"/>
<path d="M0 0 C0.99 0 1.98 0 3 0 C3.0236189 12.83518518 2.58793642 24.10664454 -2.72265625 35.91796875 C-4.25524587 39.05982783 -4.25524587 39.05982783 -4 43 C-4.66 43 -5.32 43 -6 43 C-6.04125 43.721875 -6.0825 44.44375 -6.125 45.1875 C-7.36278105 49.16608196 -9.67701145 50.60744824 -13 53 C-14.485 53.495 -14.485 53.495 -16 54 C-17.38938077 55.96147874 -18.7260411 57.96166576 -20 60 C-21 61 -21 61 -24.0625 61.0625 C-25.031875 61.041875 -26.00125 61.02125 -27 61 C-24.17643451 57.52561268 -21.44788248 54.22523434 -17.875 51.5 C-14.49215962 48.55839967 -13.02064129 45.96356561 -11 42 C-10.34 42 -9.68 42 -9 42 C-8.73316406 41.18015625 -8.46632812 40.3603125 -8.19140625 39.515625 C-7.34569802 37.02009252 -6.46452293 34.56924493 -5.52734375 32.109375 C-1.52288705 21.28913911 -0.02723104 11.51872925 0 0 Z " fill="#141483" transform="translate(188,158)"/>
<path d="M0 0 C-5.14285714 5.57142857 -5.14285714 5.57142857 -9 6 C-9 6.66 -9 7.32 -9 8 C-20.22 8 -31.44 8 -43 8 C-43 9.32 -43 10.64 -43 12 C-39.37 12.33 -35.74 12.66 -32 13 C-32 13.66 -32 14.32 -32 15 C-31.46375 15.0825 -30.9275 15.165 -30.375 15.25 C-27.08505507 16.28892998 -24.71535195 17.88805959 -22 20 C-21.125 22.25 -21.125 22.25 -21 24 C-24.14679682 23.65035591 -25.63389405 23.37830948 -27.875 21.0625 C-30.64137277 18.37749113 -33.32476658 17.97081637 -37 17 C-37.33 16.34 -37.66 15.68 -38 15 C-41.02934491 14.34227572 -41.02934491 14.34227572 -44 14 C-44.625 10.625 -44.625 10.625 -45 7 C-43 5 -43 5 -40.19018555 4.78881836 C-38.43121948 4.81407593 -38.43121948 4.81407593 -36.63671875 4.83984375 C-35.35732422 4.85080078 -34.07792969 4.86175781 -32.75976562 4.87304688 C-31.40233268 4.89381974 -30.04491054 4.91531109 -28.6875 4.9375 C-26.04555857 4.97403918 -23.40382443 5.00213029 -20.76171875 5.02734375 C-19.58569092 5.04531006 -18.40966309 5.06327637 -17.19799805 5.08178711 C-14.2742473 5.00701373 -11.79102383 4.86908169 -9 4 C-8.34 3.01 -7.68 2.02 -7 1 C-4.00987436 -0.92911331 -3.51287078 -1.17095693 0 0 Z " fill="#1859C6" transform="translate(149,157)"/>
<path d="M0 0 C0.495 0.99 0.495 0.99 1 2 C-1.22524931 5.54149155 -2.83622249 6.5865644 -6.875 7.5625 C-9.87539546 8.35710545 -12.01241769 9.00750837 -14.6875 10.625 C-20.72028798 14.21206313 -28.69347493 13.03624158 -35.4375 12.75 C-36.43587891 12.72292969 -37.43425781 12.69585937 -38.46289062 12.66796875 C-47.59461823 12.29573528 -54.21574804 9.70298556 -62 5 C-62 4.34 -62 3.68 -62 3 C-61.00226563 3.28617188 -60.00453125 3.57234375 -58.9765625 3.8671875 C-58.33493164 4.04991211 -57.69330078 4.23263672 -57.03222656 4.42089844 C-55.11189099 4.96811564 -53.19262951 5.51909802 -51.2734375 6.0703125 C-33.60788736 10.94628335 -18.46281412 9.33636125 -2 1 C-1.34 0.67 -0.68 0.34 0 0 Z " fill="#110A78" transform="translate(160,219)"/>
<path d="M0 0 C0.66 0 1.32 0 2 0 C2.33 7.26 2.66 14.52 3 22 C1.68 22.33 0.36 22.66 -1 23 C-1.33 27.29 -1.66 31.58 -2 36 C-1.01 36 -0.02 36 1 36 C1 35.34 1 34.68 1 34 C4.01490557 32.99503148 6.04181692 32.89664697 9.1875 32.9375 C10.08855469 32.94652344 10.98960937 32.95554688 11.91796875 32.96484375 C12.60503906 32.97644531 13.29210937 32.98804688 14 33 C14.33 33.66 14.66 34.32 15 35 C14.19175781 35.01417969 13.38351563 35.02835938 12.55078125 35.04296875 C5.57094822 35.06196813 5.57094822 35.06196813 -0.125 38.5 C-0.74375 39.325 -1.3625 40.15 -2 41 C-2.99 41.495 -2.99 41.495 -4 42 C-4 40.68 -4 39.36 -4 38 C-4.66 38 -5.32 38 -6 38 C-7.71559211 42.49665722 -8.29093835 46.34659549 -8.4140625 51.1484375 C-8.43342865 51.80582916 -8.4527948 52.46322083 -8.4727478 53.14053345 C-8.53202461 55.21856135 -8.57871794 57.29664624 -8.625 59.375 C-8.66322778 60.7929915 -8.70228223 62.21096097 -8.7421875 63.62890625 C-8.83768171 67.08573461 -8.92190189 70.54272983 -9 74 C-9.33 74 -9.66 74 -10 74 C-10.12433553 69.57097701 -10.21467969 65.14289934 -10.2746582 60.71264648 C-10.29968061 59.20823452 -10.33371033 57.70394265 -10.37719727 56.19995117 C-10.78822348 41.61093852 -10.78822348 41.61093852 -6.24487305 36.67749023 C-3.55368282 33.05105994 -3.38784368 28.17689919 -2.75 23.8125 C-2.58725586 22.79470459 -2.42451172 21.77690918 -2.25683594 20.72827148 C-1.18534965 13.84226694 -0.29967625 6.96747273 0 0 Z " fill="#112792" transform="translate(131,58)"/>
<path d="M0 0 C1.78193005 3.12743165 2.39929667 5.78806972 2.81640625 9.3515625 C2.94080078 10.36734375 3.06519531 11.383125 3.19335938 12.4296875 C3.37608398 14.01136719 3.37608398 14.01136719 3.5625 15.625 C3.81059679 17.72173592 4.0617458 19.81811365 4.31640625 21.9140625 C4.42412354 22.8417041 4.53184082 23.7693457 4.64282227 24.72509766 C4.8861668 27.02489077 4.8861668 27.02489077 6 29 C6.64687939 32.73102817 7.08211766 36.49428351 7.5625 40.25 C7.70107422 41.28769531 7.83964844 42.32539062 7.98242188 43.39453125 C8.61704905 48.29022658 9.19625448 53.05097386 9 58 C10.32 58 11.64 58 13 58 C13 55.69 13 53.38 13 51 C13.33 51 13.66 51 14 51 C14 53.64 14 56.28 14 59 C12.00045254 59.04254356 9.99958364 59.04080783 8 59 C6.20444098 57.20444098 6.42295837 54.46549789 6.09765625 52.03125 C5.84532227 50.21560547 5.84532227 50.21560547 5.58789062 48.36328125 C5.23770075 45.78827915 4.89134428 43.21275281 4.54882812 40.63671875 C4.37931641 39.42628906 4.20980469 38.21585938 4.03515625 36.96875 C3.8844165 35.84919922 3.73367676 34.72964844 3.57836914 33.57617188 C3.29207642 32.3009668 3.29207642 32.3009668 3 31 C2.34 30.67 1.68 30.34 1 30 C-1.15199366 20.45814131 -0.09077702 9.73331421 0 0 Z " fill="#1F59C5" transform="translate(84,54)"/>
<path d="M0 0 C0.33 0 0.66 0 1 0 C1 10.89 1 21.78 1 33 C-15.125 33.3125 -15.125 33.3125 -20.18017578 33.38793945 C-21.51858242 33.42025781 -22.85696408 33.45363552 -24.1953125 33.48828125 C-24.877146 33.49452515 -25.55897949 33.50076904 -26.26147461 33.50720215 C-30.88329439 33.64490534 -34.02165746 34.68198858 -38 37 C-38.72445312 37.39960938 -39.44890625 37.79921875 -40.1953125 38.2109375 C-44.33645479 40.70903548 -47.0787115 43.06749625 -50 47 C-50.66 47 -51.32 47 -52 47 C-52 42.05 -52 37.1 -52 32 C-51.67 32 -51.34 32 -51 32 C-50.67 34.97 -50.34 37.94 -50 41 C-46.73539027 39.19587357 -45.11070205 38.16605307 -43 35 C-31.18869199 28.83070073 -12.29420823 31 0 31 C0 20.77 0 10.54 0 0 Z " fill="#2658C0" transform="translate(120,100)"/>
<path d="M0 0 C0.99 0.495 0.99 0.495 2 1 C4.34406942 8.09275618 4.60557094 15.33582933 5.0625 22.75 C5.21689743 25.16166237 5.37431821 27.5731336 5.53515625 29.984375 C5.600979 31.04366211 5.66680176 32.10294922 5.73461914 33.19433594 C5.91714545 35.93190474 5.91714545 35.93190474 6.59155273 38.25097656 C7 40 7 40 6 42 C6.66 42 7.32 42 8 42 C8 49.92 8 57.84 8 66 C7.67 66 7.34 66 7 66 C6.93941406 65.36191406 6.87882812 64.72382813 6.81640625 64.06640625 C6.69072266 62.82697266 6.69072266 62.82697266 6.5625 61.5625 C6.48128906 60.73878906 6.40007812 59.91507813 6.31640625 59.06640625 C6.21069185 57.01337975 6.21069185 57.01337975 5 56 C4.79504026 54.12066817 4.65207408 52.23451259 4.53515625 50.34765625 C4.45716797 49.17783203 4.37917969 48.00800781 4.29882812 46.80273438 C4.14350407 44.34450651 3.98980931 41.88617505 3.83789062 39.42773438 C3.41857679 33.17893548 2.79221615 27.16842344 1.44799805 21.04907227 C-0.06609649 14.12384315 -0.1137988 7.05552563 0 0 Z " fill="#1C75DF" transform="translate(62,75)"/>
<path d="M0 0 C0 0.66 0 1.32 0 2 C-3.71291177 4.47527451 -7.05304777 4.64271579 -11.375 5.0625 C-12.8830059 5.21819003 -14.39082547 5.37569729 -15.8984375 5.53515625 C-16.61330322 5.60887451 -17.32816895 5.68259277 -18.06469727 5.75854492 C-20.13741725 5.98360451 -20.13741725 5.98360451 -22.67578125 6.6171875 C-25.60651186 7.09989607 -27.911612 6.65665778 -30.8125 6.0625 C-31.78832031 5.86785156 -32.76414062 5.67320312 -33.76953125 5.47265625 C-34.50558594 5.31667969 -35.24164063 5.16070312 -36 5 C-36 3.68 -36 2.36 -36 1 C-31.19450973 0.85721003 -26.38900832 0.71480303 -21.58349609 0.57275391 C-19.94807629 0.52435717 -18.3126596 0.47585503 -16.67724609 0.42724609 C-14.32910964 0.35747127 -11.98096232 0.28807318 -9.6328125 0.21875 C-8.89942657 0.19687622 -8.16604065 0.17500244 -7.41043091 0.15246582 C-2.22774341 0 -2.22774341 0 0 0 Z " fill="#0C1584" transform="translate(142,164)"/>
<path d="M0 0 C1.49789402 2.99578804 1.00082655 5.64407419 0.87890625 8.9765625 C0.84348976 10.00443375 0.84348976 10.00443375 0.80735779 11.05307007 C0.73072143 13.24392416 0.64669754 15.43442472 0.5625 17.625 C0.50927924 19.10935764 0.45653884 20.59373259 0.40429688 22.078125 C0.2751067 25.71896737 0.13928926 29.35952844 0 33 C0.81267334 32.99476318 1.62534668 32.98952637 2.46264648 32.98413086 C6.12092322 32.96343006 9.77918767 32.95036197 13.4375 32.9375 C14.71689453 32.92912109 15.99628906 32.92074219 17.31445312 32.91210938 C18.52939453 32.90888672 19.74433594 32.90566406 20.99609375 32.90234375 C22.12200928 32.89710693 23.2479248 32.89187012 24.40795898 32.88647461 C27 33 27 33 28 34 C28.04063832 35.66617115 28.042721 37.33388095 28 39 C27.01 38.67 26.02 38.34 25 38 C23.14471321 37.88373271 21.2857064 37.82339944 19.42700195 37.79467773 C18.28604568 37.77473251 17.14508942 37.75478729 15.96955872 37.73423767 C14.73823715 37.71752518 13.50691559 37.70081268 12.23828125 37.68359375 C10.97735153 37.66281265 9.71642181 37.64203156 8.4172821 37.62062073 C5.06854542 37.56627878 1.71979795 37.51603834 -1.62902832 37.46777344 C-5.04766229 37.41749643 -8.46620826 37.36184276 -11.88476562 37.30664062 C-18.58977362 37.199465 -25.29484753 37.09769488 -32 37 C-32 36.67 -32 36.34 -32 36 C-13.19 36 5.62 36 25 36 C25 35.34 25 34.68 25 34 C16.42 34 7.84 34 -1 34 C-1.02291088 29.31854289 -1.04283732 24.63727898 -1.05493164 19.95581055 C-1.05997157 18.36205386 -1.0668035 16.76830181 -1.07543945 15.17456055 C-1.08751999 12.88849747 -1.09323155 10.60249533 -1.09765625 8.31640625 C-1.10281754 7.59973282 -1.10797882 6.88305939 -1.11329651 6.14466858 C-1.11349263 4.42936328 -1.06192007 2.71418734 -1 1 C-0.67 0.67 -0.34 0.34 0 0 Z " fill="#0E238E" transform="translate(126,100)"/>
<path d="M0 0 C4.62 0 9.24 0 14 0 C14.33 0.66 14.66 1.32 15 2 C14.26394531 1.95359375 13.52789062 1.9071875 12.76953125 1.859375 C6.57967675 1.58319624 6.57967675 1.58319624 0.875 3.6875 C-4.93729808 10.85600097 -1.95426627 24.32096145 -1.22265625 32.86328125 C-0.91146811 37.24721245 -0.91077183 41.60799137 -1 46 C-0.34 46 0.32 46 1 46 C1.33931227 48.66602496 1.67157176 51.33263014 2 54 C2.09539063 54.74378906 2.19078125 55.48757812 2.2890625 56.25390625 C2.89227676 61.20888051 3.09075591 66.00842496 3 71 C1.24812375 67.89041966 0.53989091 65.14393186 0 61.625 C-0.16371094 60.56152344 -0.32742187 59.49804688 -0.49609375 58.40234375 C-0.66238281 57.27957031 -0.82867187 56.15679687 -1 55 C-1.26490234 53.33130859 -1.26490234 53.33130859 -1.53515625 51.62890625 C-3.38930721 39.52885444 -4.08097231 27.47487265 -4.25 15.25 C-4.27143066 14.37972168 -4.29286133 13.50944336 -4.31494141 12.61279297 C-4.31929199 11.79697754 -4.32364258 10.98116211 -4.328125 10.140625 C-4.3374707 9.41391602 -4.34681641 8.68720703 -4.35644531 7.93847656 C-3.8990411 5.45094955 -2.82397672 4.6899797 -1 3 C-0.67 2.01 -0.34 1.02 0 0 Z " fill="#111B8A" transform="translate(58,14)"/>
<path d="M0 0 C1.43229167 1.26953125 2.86458333 2.5390625 4.296875 3.80859375 C7.99290704 6.39412075 12.04428663 6.18905369 16.4375 6.25 C17.54996094 6.27578125 18.66242188 6.3015625 19.80859375 6.328125 C23.32419741 5.96666759 25.10157314 4.9425083 28 3 C28.66 3 29.32 3 30 3 C30.05797565 6.93743833 30.09358789 10.87476719 30.125 14.8125 C30.14175781 15.93205078 30.15851563 17.05160156 30.17578125 18.20507812 C30.18544922 19.81479492 30.18544922 19.81479492 30.1953125 21.45703125 C30.21102295 22.9416687 30.21102295 22.9416687 30.22705078 24.45629883 C30 27 30 27 28 30 C28.33 22.41 28.66 14.82 29 7 C24.545 7.495 24.545 7.495 20 8 C19.67 8.99 19.34 9.98 19 11 C17.33388095 11.042721 15.66617115 11.04063832 14 11 C13.67 10.67 13.34 10.34 13 10 C11.48834346 9.60851239 9.96530368 9.26027543 8.4375 8.9375 C7.61121094 8.76089844 6.78492188 8.58429688 5.93359375 8.40234375 C5.29550781 8.26957031 4.65742188 8.13679687 4 8 C4 7.01 4 6.02 4 5 C3.071875 5.33 2.14375 5.66 1.1875 6 C-2 7 -2 7 -5 7 C-4.67 6.01 -4.34 5.02 -4 4 C-3.34 4 -2.68 4 -2 4 C-1.34 2.68 -0.68 1.36 0 0 Z " fill="#246CD4" transform="translate(157,153)"/>
<path d="M0 0 C1.49605615 0.02513426 2.99215334 0.04793832 4.48828125 0.06835938 C8.1180543 0.12290325 11.74625701 0.20888539 15.375 0.3125 C15.375 0.6425 15.375 0.9725 15.375 1.3125 C14.16384521 1.33437378 14.16384521 1.33437378 12.92822266 1.35668945 C9.2849873 1.43096086 5.64268967 1.52769025 2 1.625 C0.72898438 1.64755859 -0.54203125 1.67011719 -1.8515625 1.69335938 C-3.66914062 1.7465332 -3.66914062 1.7465332 -5.5234375 1.80078125 C-7.20445557 1.84005737 -7.20445557 1.84005737 -8.91943359 1.88012695 C-9.81227051 2.02281006 -10.70510742 2.16549316 -11.625 2.3125 C-12.615 3.7975 -12.615 3.7975 -13.625 5.3125 C-15.47265625 6.234375 -15.47265625 6.234375 -17.6875 7.0625 C-22.36295207 8.99925684 -25.91786471 11.68181852 -29.77734375 14.921875 C-31.625 16.3125 -31.625 16.3125 -33.625 16.3125 C-32.84131268 12.60779632 -32.25380053 9.98060057 -29.625 7.1875 C-28.635 6.56875 -27.645 5.95 -26.625 5.3125 C-25.99932129 4.89476318 -25.37364258 4.47702637 -24.72900391 4.04663086 C-16.74419303 -0.67449892 -8.93897583 -0.26302783 0 0 Z " fill="#0D1F8E" transform="translate(104.625,132.6875)"/>
<path d="M0 0 C3.20784721 -0.14622024 6.41482961 -0.23436651 9.625 -0.3125 C10.98044922 -0.3753418 10.98044922 -0.3753418 12.36328125 -0.43945312 C16.95583825 -0.52325891 20.02532491 -0.49972924 23.6484375 2.51953125 C24.42445313 3.33808594 25.20046875 4.15664063 26 5 C25.67 6.65 25.34 8.3 25 10 C24.34 10 23.68 10 23 10 C22.5875 9.030625 22.175 8.06125 21.75 7.0625 C20.364022 3.97977656 20.364022 3.97977656 18.25 3.125 C17.5075 3.08375 16.765 3.0425 16 3 C14.9275 2.896875 13.855 2.79375 12.75 2.6875 C8.08285111 3.07642907 4.44024377 3.6527358 1 7 C-0.56459678 10.9219226 -1.37109372 14.83349591 -2 19 C-2.33 19 -2.66 19 -3 19 C-3.08331896 17.52185988 -3.14020267 16.0422308 -3.1875 14.5625 C-3.22230469 13.73878906 -3.25710937 12.91507813 -3.29296875 12.06640625 C-2.8853663 7.80016727 -1.46825636 4.00749565 0 0 Z " fill="#151786" transform="translate(111,13)"/>
<path d="M0 0 C1.17984289 3.65751297 0.99696452 6.99501045 0.875 10.8125 C0.73525634 25.06286013 4.04623402 35.39742388 12 47 C13.37909425 49.31122444 14.68826172 51.64980225 16 54 C12.64662411 53.00305041 11.27286429 52.41434947 9.3125 49.4375 C8.879375 48.633125 8.44625 47.82875 8 47 C7.34 46.67 6.68 46.34 6 46 C5.505 44.515 5.505 44.515 5 43 C4.34 42.67 3.68 42.34 3 42 C-1.80012392 29.25754931 -4.39665908 13.18997723 0 0 Z " fill="#10208F" transform="translate(68,157)"/>
<path d="M0 0 C2.5 1 2.5 1 4 2 C1.42144702 2.85951766 -0.34815357 3.13671473 -3 3.3125 C-5.72528095 3.65253505 -6.75828504 3.80506858 -8.9375 5.5625 C-10.43765687 9.00403636 -10.58510045 12.26590401 -11 16 C-11.66 16.99 -12.32 17.98 -13 19 C-13.33987168 22.61812766 -13.44240931 26.21595559 -13.55859375 29.84765625 C-13.70425781 30.88792969 -13.84992188 31.92820312 -14 33 C-14.99 33.66 -15.98 34.32 -17 35 C-16.32290841 7.34080865 -16.32290841 7.34080865 -10.11328125 1.10546875 C-6.74175433 -0.65819506 -3.71178173 -0.46397272 0 0 Z " fill="#2473DB" transform="translate(125,16)"/>
<path d="M0 0 C0.66 0 1.32 0 2 0 C2.3357287 6.82648355 1.66044196 13.26678092 0.625 20 C0.49891357 20.84925049 0.37282715 21.69850098 0.24291992 22.57348633 C0.11377197 23.37423584 -0.01537598 24.17498535 -0.1484375 25 C-0.32125244 26.0828125 -0.32125244 26.0828125 -0.49755859 27.1875 C-1 29 -1 29 -3 31 C-6.5 30.8125 -6.5 30.8125 -10 30 C-12.35119399 26.47320901 -12.21443452 24.97120515 -12.125 20.8125 C-12.10695313 19.72582031 -12.08890625 18.63914062 -12.0703125 17.51953125 C-12.04710938 16.68808594 -12.02390625 15.85664062 -12 15 C-9.7655402 19.03292745 -9.45503257 22.44967434 -9 27 C-7.02 27.33 -5.04 27.66 -3 28 C-3.0309375 26.72253906 -3.061875 25.44507812 -3.09375 24.12890625 C-3.09375 18.95496722 -2.37642234 14.02627654 -1.5 8.9375 C-1.35691406 8.07189453 -1.21382812 7.20628906 -1.06640625 6.31445312 C-0.71736324 4.2085603 -0.35960461 2.10411505 0 0 Z " fill="#1E71DC" transform="translate(101,85)"/>
<path d="M0 0 C2.97 0.99 5.94 1.98 9 3 C9.06058594 3.85464844 9.12117188 4.70929687 9.18359375 5.58984375 C9.26738281 6.69457031 9.35117188 7.79929687 9.4375 8.9375 C9.51871094 10.03964844 9.59992188 11.14179688 9.68359375 12.27734375 C9.70418084 14.91109903 9.70418084 14.91109903 11 16 C11.2101919 17.76619587 11.36843437 19.53871338 11.5 21.3125 C11.77047181 25.1984797 11.77047181 25.1984797 12.55859375 28.99609375 C13.15061781 31.68377822 12.85488359 34.02108649 12.5625 36.75 C12.46066406 37.73484375 12.35882813 38.7196875 12.25390625 39.734375 C12.17011719 40.48203125 12.08632812 41.2296875 12 42 C9.94836977 38.5074146 9.41162581 35.20633574 8.81640625 31.22265625 C8.60893046 29.89124385 8.40124158 28.55986463 8.19335938 27.22851562 C7.87600834 25.14450355 7.56213693 23.06005352 7.25268555 20.97485352 C6.94987587 18.95174073 6.63383368 16.93101946 6.31640625 14.91015625 C6.13537354 13.70496338 5.95434082 12.49977051 5.76782227 11.25805664 C4.98539174 7.93801362 3.91329452 5.79742492 2 3 C1.34 2.01 0.68 1.02 0 0 Z " fill="#112395" transform="translate(74,16)"/>
<path d="M0 0 C0.33 0.66 0.66 1.32 1 2 C1.66 2 2.32 2 3 2 C3 2.99 3 3.98 3 5 C4.98 5 6.96 5 9 5 C9.33 5.99 9.66 6.98 10 8 C10.556875 7.505 11.11375 7.01 11.6875 6.5 C14.38162983 4.75245633 15.85375007 4.73781251 19 5 C19 5.99 19 6.98 19 8 C19.66 8.33 20.32 8.66 21 9 C20.01 10.485 20.01 10.485 19 12 C16.1015625 12.3984375 16.1015625 12.3984375 12.625 12.375 C10.91183594 12.38660156 10.91183594 12.38660156 9.1640625 12.3984375 C5.72892802 11.96586501 4.35578813 11.50509865 2 9 C1.171875 6.73828125 1.171875 6.73828125 0.75 4.3125 C0.60046875 3.50425781 0.4509375 2.69601563 0.296875 1.86328125 C0.19890625 1.24839844 0.1009375 0.63351563 0 0 Z " fill="#067DE3" transform="translate(161,144)"/>
<path d="M0 0 C0.33 0 0.66 0 1 0 C1.04952706 4.34161825 1.08577954 8.68308575 1.10986328 13.02490234 C1.11990591 14.50116847 1.13354265 15.97741479 1.15087891 17.45361328 C1.17520421 19.57850034 1.1865004 21.70312385 1.1953125 23.828125 C1.20578613 25.1059082 1.21625977 26.38369141 1.22705078 27.70019531 C1.01550278 30.77469299 0.63126908 32.43738352 -1 35 C-0.34 35.33 0.32 35.66 1 36 C1 42.93 1 49.86 1 57 C0.67 57 0.34 57 0 57 C0 50.4 0 43.8 0 37 C-3.96 38.98 -3.96 38.98 -8 41 C-8 40.34 -8 39.68 -8 39 C-10.97 39 -13.94 39 -17 39 C-17 38.34 -17 37.68 -17 37 C-16.34773437 37.020625 -15.69546875 37.04125 -15.0234375 37.0625 C-14.14945313 37.041875 -13.27546875 37.02125 -12.375 37 C-11.51648438 37 -10.65796875 37 -9.7734375 37 C-6.0582417 35.66043644 -4.43424878 33.87742769 -2.20458984 30.65625 C0.25685251 25.2285052 -0.11308703 19.36117879 -0.125 13.5 C-0.104375 12.200625 -0.08375 10.90125 -0.0625 9.5625 C-0.01561551 6.37435479 0.00446022 3.18841781 0 0 Z " fill="#0F2696" transform="translate(187,119)"/>
<path d="M0 0 C3.30164801 3.01454818 4.08530957 5.62088174 4.31640625 10.01171875 C4.35830078 10.76904297 4.40019531 11.52636719 4.44335938 12.30664062 C4.48267578 13.09232422 4.52199219 13.87800781 4.5625 14.6875 C4.60568359 15.48478516 4.64886719 16.28207031 4.69335938 17.10351562 C4.79927368 19.06881447 4.90012551 21.03438496 5 23 C6.65 22.67 8.3 22.34 10 22 C10 15.4 10 8.8 10 2 C12.36473506 6.72947012 12.3330085 9.89845855 12.3125 15.0625 C12.32861328 15.87783203 12.34472656 16.69316406 12.36132812 17.53320312 C12.36229492 18.70979492 12.36229492 18.70979492 12.36328125 19.91015625 C12.36775269 20.97955444 12.36775269 20.97955444 12.37231445 22.07055664 C11.88920509 24.57417194 11.00634183 25.46822545 9 27 C6.3125 27.1875 6.3125 27.1875 4 27 C4 26.34 4 25.68 4 25 C3.34 25 2.68 25 2 25 C1.93941406 23.69804687 1.87882813 22.39609375 1.81640625 21.0546875 C1.73195438 19.32811601 1.64730874 17.601554 1.5625 15.875 C1.52318359 15.0190625 1.48386719 14.163125 1.44335938 13.28125 C1.21843598 8.78278208 0.86459117 4.43193793 0 0 Z " fill="#1A78E3" transform="translate(128,182)"/>
<path d="M0 0 C0.99 0 1.98 0 3 0 C3.0260519 14.1573466 2.11464442 26.11623851 -4 39 C-5.05579601 35.742757 -4.91586439 33.51492006 -4.1875 30.1875 C-4.01605469 29.37667969 -3.84460938 28.56585938 -3.66796875 27.73046875 C-3.17661562 25.72195508 -2.59512748 23.73496436 -1.96484375 21.765625 C-0.82579118 17.3200919 -0.55168966 13.13066401 -0.375 8.5625 C-0.31699219 7.32209961 -0.31699219 7.32209961 -0.2578125 6.05664062 C-0.16446908 4.03808927 -0.08119039 2.01907669 0 0 Z " fill="#130E7D" transform="translate(188,158)"/>
<path d="M0 0 C0.05534912 1.00264893 0.11069824 2.00529785 0.16772461 3.03833008 C0.37638412 6.80878542 0.58761217 10.57909346 0.79956055 14.34936523 C0.89041515 15.97172283 0.98060131 17.59411803 1.07006836 19.21655273 C1.56373889 28.16053902 2.08491016 37.08680325 3 46 C2.34 46 1.68 46 1 46 C0.02523953 42.64417613 -0.25045843 39.42431485 -0.46484375 35.94140625 C-0.54283203 34.74966797 -0.62082031 33.55792969 -0.70117188 32.33007812 C-0.85651209 29.85362133 -1.01020695 27.37706067 -1.16210938 24.90039062 C-1.69280289 16.8450671 -2.63458346 8.95673789 -4 1 C-1 0 -1 0 0 0 Z " fill="#15097A" transform="translate(54,20)"/>
<path d="M0 0 C0.99 0 1.98 0 3 0 C3.103125 0.639375 3.20625 1.27875 3.3125 1.9375 C3.539375 2.618125 3.76625 3.29875 4 4 C4.99 4.33 5.98 4.66 7 5 C8.63014959 28.75002556 8.63014959 28.75002556 7 37 C6.01 37.495 6.01 37.495 5 38 C4.67 27.11 4.34 16.22 4 5 C3.34 5 2.68 5 2 5 C1.34 3.35 0.68 1.7 0 0 Z " fill="#0F1E8B" transform="translate(149,95)"/>
<path d="M0 0 C1.32 0.66 2.64 1.32 4 2 C4.12400035 6.32322461 4.21452256 10.64549602 4.2746582 14.9699707 C4.29973644 16.43955525 4.33380856 17.90901587 4.37719727 19.37817383 C4.43815499 21.49591681 4.46627316 23.61200576 4.48828125 25.73046875 C4.51446533 27.00301514 4.54064941 28.27556152 4.56762695 29.58666992 C3.8590824 33.84738448 2.26869557 35.29229855 -1 38 C-0.125 33.25 -0.125 33.25 1 31 C1.09681128 29.18433178 1.13075898 27.36512121 1.1328125 25.546875 C1.13410156 24.45246094 1.13539063 23.35804688 1.13671875 22.23046875 C1.13285156 21.08191406 1.12898437 19.93335938 1.125 18.75 C1.12886719 17.61691406 1.13273438 16.48382813 1.13671875 15.31640625 C1.13542969 14.21683594 1.13414062 13.11726563 1.1328125 11.984375 C1.13168457 10.98116211 1.13055664 9.97794922 1.12939453 8.94433594 C0.9953082 5.89323953 0.56162598 2.9994285 0 0 Z " fill="#2669D5" transform="translate(183,114)"/>
<path d="M0 0 C0.66 0 1.32 0 2 0 C2.16338577 6.14472564 1.56807957 11.88063701 0.5625 17.9375 C0.42779297 18.79923828 0.29308594 19.66097656 0.15429688 20.54882812 C-0.86624765 26.86624765 -0.86624765 26.86624765 -2 28 C-2.36760731 30.32817964 -2.70241581 32.6618385 -3 35 C-4.32 35 -5.64 35 -7 35 C-7 33.02 -7 31.04 -7 29 C-6.01 29 -5.02 29 -4 29 C-3.91435791 28.19256348 -3.82871582 27.38512695 -3.74047852 26.55322266 C-3.35180625 22.91004344 -2.95722956 19.26752768 -2.5625 15.625 C-2.42779297 14.35398437 -2.29308594 13.08296875 -2.15429688 11.7734375 C-1.95610352 9.95585938 -1.95610352 9.95585938 -1.75390625 8.1015625 C-1.63345947 6.98088379 -1.5130127 5.86020508 -1.38891602 4.70556641 C-1 2 -1 2 0 0 Z " fill="#13208F" transform="translate(100,77)"/>
<path d="M0 0 C6.6752034 -0.02526945 13.35039457 -0.04283268 20.02563477 -0.05493164 C22.29842591 -0.05997325 24.5712138 -0.06680637 26.84399414 -0.07543945 C30.10303551 -0.08751261 33.36203417 -0.09322987 36.62109375 -0.09765625 C37.64400009 -0.10281754 38.66690643 -0.10797882 39.72080994 -0.11329651 C40.66170975 -0.11337204 41.60260956 -0.11344757 42.57202148 -0.11352539 C43.40475082 -0.115746 44.23748016 -0.11796661 45.09544373 -0.12025452 C47 0 47 0 48 1 C48.15135944 2.7872057 48.22175778 4.58161876 48.25 6.375 C48.27578125 7.35210937 48.3015625 8.32921875 48.328125 9.3359375 C48 12 48 12 46.484375 13.8515625 C45.99453125 14.23054687 45.5046875 14.60953125 45 15 C45.01160156 14.22914063 45.02320313 13.45828125 45.03515625 12.6640625 C45.04417969 11.66117188 45.05320313 10.65828125 45.0625 9.625 C45.07410156 8.62726563 45.08570313 7.62953125 45.09765625 6.6015625 C45.18006602 4.01567547 45.18006602 4.01567547 44 2 C22.22 1.505 22.22 1.505 0 1 C0 0.67 0 0.34 0 0 Z " fill="#2476E2" transform="translate(106,138)"/>
<path d="M0 0 C0.98484375 0.00902344 1.9696875 0.01804688 2.984375 0.02734375 C4.10585937 0.04474609 4.10585937 0.04474609 5.25 0.0625 C0.73036498 3.91255946 -3.47767885 4.19251297 -9.26953125 4.16015625 C-10.29111328 4.15693359 -11.31269531 4.15371094 -12.36523438 4.15039062 C-13.42033203 4.14201172 -14.47542969 4.13363281 -15.5625 4.125 C-16.63693359 4.12048828 -17.71136719 4.11597656 -18.81835938 4.11132812 C-21.46229683 4.09957729 -24.10611952 4.08314787 -26.75 4.0625 C-27.08 3.4025 -27.41 2.7425 -27.75 2.0625 C-26.49703125 2.00191406 -25.2440625 1.94132813 -23.953125 1.87890625 C-22.30207276 1.79447744 -20.65103165 1.70983061 -19 1.625 C-18.175 1.58568359 -17.35 1.54636719 -16.5 1.50585938 C-15.70078125 1.46396484 -14.9015625 1.42207031 -14.078125 1.37890625 C-13.3449707 1.34224854 -12.61181641 1.30559082 -11.85644531 1.26782227 C-7.76414028 0.86893162 -4.18775889 -0.04985427 0 0 Z " fill="#1978E2" transform="translate(145.75,222.9375)"/>
<path d="M0 0 C0.33 0 0.66 0 1 0 C1.33 2.97 1.66 5.94 2 9 C5.26460973 7.19587357 6.88929795 6.16605307 9 3 C14.51710308 0.54907486 20.01276694 -0.39047172 26 0 C26 0.33 26 0.66 26 1 C24.741875 1.185625 23.48375 1.37125 22.1875 1.5625 C13.71429159 3.43947655 7.29544084 8.32613638 2 15 C1.34 15 0.68 15 0 15 C0 10.05 0 5.1 0 0 Z " fill="#246DD4" transform="translate(68,132)"/>
<path d="M0 0 C3.25 1.8125 3.25 1.8125 5 4 C5 4.99 5 5.98 5 7 C3.02 6.34 1.04 5.68 -1 5 C-1 4.34 -1 3.68 -1 3 C-6.26335555 2.39942493 -6.26335555 2.39942493 -10.6875 4.5 C-11.120625 4.995 -11.55375 5.49 -12 6 C-14.6875 6.1875 -14.6875 6.1875 -17 6 C-13.73504533 -1.53451079 -7.26223257 -0.81235216 0 0 Z " fill="#245FC8" transform="translate(146,93)"/>
<path d="M0 0 C0.33 0 0.66 0 1 0 C0.88986124 4.06304554 0.75929135 8.12518667 0.625 12.1875 C0.5940625 13.33798828 0.563125 14.48847656 0.53125 15.67382812 C0.49257812 16.78564453 0.45390625 17.89746094 0.4140625 19.04296875 C0.3826416 20.06414795 0.3512207 21.08532715 0.31884766 22.13745117 C-0.29276773 27.6284086 -2.80388091 31.56667352 -6 36 C-6.33 36 -6.66 36 -7 36 C-6.88490339 34.58249437 -6.75746342 33.16598831 -6.625 31.75 C-6.55539063 30.96109375 -6.48578125 30.1721875 -6.4140625 29.359375 C-5.98492887 26.914123 -5.21399362 25.15163097 -4 23 C-3.34 23.33 -2.68 23.66 -2 24 C-1.93941406 22.68644531 -1.87882812 21.37289062 -1.81640625 20.01953125 C-1.73196744 18.28384459 -1.64732112 16.54816802 -1.5625 14.8125 C-1.52318359 13.94818359 -1.48386719 13.08386719 -1.44335938 12.19335938 C-1.23652984 8.04085878 -0.99896469 4.05462138 0 0 Z " fill="#2071DE" transform="translate(128,64)"/>
<path d="M0 0 C0.99 0 1.98 0 3 0 C2.5562398 3.25424145 2.09677327 6.48658456 1.48828125 9.71484375 C0.15895766 16.88941999 -0.2326612 23.70994913 0 31 C-2.97808166 28.02191834 -2.50456433 24.62962814 -2.6875 20.625 C-2.73455078 19.85671875 -2.78160156 19.0884375 -2.83007812 18.296875 C-3.02501533 14.60265516 -3.02174345 11.58214514 -2 8 C-1.82339844 7.29359375 -1.64679688 6.5871875 -1.46484375 5.859375 C-0.9765625 3.90625 -0.48828125 1.953125 0 0 Z " fill="#1C0577" transform="translate(67,150)"/>
<path d="M0 0 C-6.47570296 6.83546424 -6.47570296 6.83546424 -12.48339844 7.22705078 C-13.85876461 7.22673617 -15.2341578 7.21555778 -16.609375 7.1953125 C-17.33618469 7.1924826 -18.06299438 7.18965271 -18.81182861 7.18673706 C-21.12472251 7.17557523 -23.43722388 7.15047851 -25.75 7.125 C-27.32160898 7.11496501 -28.89322404 7.10584006 -30.46484375 7.09765625 C-34.31004622 7.07564904 -38.15495664 7.04114715 -42 7 C-42 6.67 -42 6.34 -42 6 C-41.17798096 5.97494385 -40.35596191 5.9498877 -39.5090332 5.92407227 C-35.77670626 5.80787345 -32.04461683 5.68525495 -28.3125 5.5625 C-27.01892578 5.52318359 -25.72535156 5.48386719 -24.39257812 5.44335938 C-23.14541016 5.40146484 -21.89824219 5.35957031 -20.61328125 5.31640625 C-18.89298706 5.26141968 -18.89298706 5.26141968 -17.13793945 5.20532227 C-14.28755863 5.01881559 -11.73463581 4.82561308 -9 4 C-8.34 3.01 -7.68 2.02 -7 1 C-4.00987436 -0.92911331 -3.51287078 -1.17095693 0 0 Z " fill="#2874DF" transform="translate(149,157)"/>
<path d="M0 0 C0.05797565 3.93743833 0.09358789 7.87476719 0.125 11.8125 C0.14175781 12.93205078 0.15851563 14.05160156 0.17578125 15.20507812 C0.18222656 16.27822266 0.18867188 17.35136719 0.1953125 18.45703125 C0.20578613 19.44678955 0.21625977 20.43654785 0.22705078 21.45629883 C0 24 0 24 -2 27 C-1.67 19.41 -1.34 11.82 -1 4 C-2.32 4.33 -3.64 4.66 -5 5 C-6.36800819 5.07708723 -7.73923592 5.10803609 -9.109375 5.09765625 C-9.86347656 5.09443359 -10.61757812 5.09121094 -11.39453125 5.08789062 C-12.17183594 5.07951172 -12.94914063 5.07113281 -13.75 5.0625 C-14.54277344 5.05798828 -15.33554688 5.05347656 -16.15234375 5.04882812 C-18.10159508 5.03708565 -20.05080738 5.01915146 -22 5 C-22 4.34 -22 3.68 -22 3 C-20.97519531 3.03480469 -19.95039063 3.06960937 -18.89453125 3.10546875 C-17.53387064 3.13362035 -16.1731922 3.16091904 -14.8125 3.1875 C-14.13896484 3.21263672 -13.46542969 3.23777344 -12.77148438 3.26367188 C-7.70537847 3.33781001 -4.40963484 0 0 0 Z " fill="#2652BD" transform="translate(187,156)"/>
<path d="M0 0 C2.1519437 3.22791555 2.20086443 4.28400809 2 8 C2.66 8 3.32 8 4 8 C4.43046104 12.1805857 4.85760419 16.36149341 5.28173828 20.54272461 C5.42634448 21.96371509 5.57184104 23.38461526 5.71826172 24.80541992 C5.92912811 26.85311903 6.13674139 28.90112649 6.34375 30.94921875 C6.46943359 32.17987061 6.59511719 33.41052246 6.72460938 34.6784668 C6.95657666 37.47626373 7.05585531 40.1955979 7 43 C5.42879562 40.17151261 4.68694103 37.87776121 4.3671875 34.6640625 C4.28339844 33.84679687 4.19960938 33.02953125 4.11328125 32.1875 C4.03464844 31.341875 3.95601562 30.49625 3.875 29.625 C3.78863281 28.78710938 3.70226563 27.94921875 3.61328125 27.0859375 C3.17942017 22.70600656 2.89950788 18.40729723 3 14 C2.34 14 1.68 14 1 14 C0.67 9.38 0.34 4.76 0 0 Z " fill="#2159C7" transform="translate(56,46)"/>
<path d="M0 0 C4.62 0 9.24 0 14 0 C14.33 0.66 14.66 1.32 15 2 C14.26394531 1.95359375 13.52789062 1.9071875 12.76953125 1.859375 C6.57967675 1.58319624 6.57967675 1.58319624 0.875 3.6875 C-2.16259859 7.4338716 -2.12644171 11.39000173 -2.09765625 16.08203125 C-2.09443359 17.01337891 -2.09121094 17.94472656 -2.08789062 18.90429688 C-2.07951172 19.86400391 -2.07113281 20.82371094 -2.0625 21.8125 C-2.05798828 22.79154297 -2.05347656 23.77058594 -2.04882812 24.77929688 C-2.03708684 27.18626111 -2.02066419 29.59309857 -2 32 C-2.33 32 -2.66 32 -3 32 C-4.10878908 26.5901823 -4.21814916 21.31075206 -4.25 15.8125 C-4.270625 14.91080078 -4.29125 14.00910156 -4.3125 13.08007812 C-4.31765625 12.21447266 -4.3228125 11.34886719 -4.328125 10.45703125 C-4.3374707 9.67303955 -4.34681641 8.88904785 -4.35644531 8.08129883 C-3.9101008 5.4750749 -2.91571997 4.75041481 -1 3 C-0.67 2.01 -0.34 1.02 0 0 Z " fill="#1934A3" transform="translate(58,14)"/>
<path d="M0 0 C2.27474277 3.41211416 2.56629644 5.6568529 3.125 9.6875 C3.29257813 10.86699219 3.46015625 12.04648438 3.6328125 13.26171875 C3.75398438 14.16535156 3.87515625 15.06898437 4 16 C4.33 16 4.66 16 5 16 C5.33 22.6 5.66 29.2 6 36 C3.94727503 32.92091254 3.72639933 31.9636695 3.5 28.4375 C3.21675048 24.93734516 2.76164652 21.61490935 2 18.1875 C0.71593696 12.1792349 0.36464999 6.12228147 0 0 Z " fill="#101584" transform="translate(86,60)"/>
<path d="M0 0 C0.66 0.33 1.32 0.66 2 1 C2 4 2 4 0.375 6.0625 C-5.44855839 10.81329764 -11.85235497 10.22892813 -19 10 C-19.33 10.66 -19.66 11.32 -20 12 C-20.33 11.01 -20.66 10.02 -21 9 C-19.95199219 8.86722656 -18.90398437 8.73445312 -17.82421875 8.59765625 C-16.44529222 8.41942765 -15.06638707 8.24103359 -13.6875 8.0625 C-12.99720703 7.97548828 -12.30691406 7.88847656 -11.59570312 7.79882812 C-8.59857712 7.40789865 -5.87549881 6.9584996 -3 6 C-3 5.34 -3 4.68 -3 4 C-3.66 3.67 -4.32 3.34 -5 3 C-2.625 1.4375 -2.625 1.4375 0 0 Z " fill="#0E2B97" transform="translate(145,160)"/>
<path d="M0 0 C0.33 0.66 0.66 1.32 1 2 C-0.78543835 5.25620173 -1.94932 5.9817349 -5.51171875 7.265625 C-6.89979724 7.60966733 -8.29201988 7.93733044 -9.6875 8.25 C-10.37005859 8.42273438 -11.05261719 8.59546875 -11.75585938 8.7734375 C-16.59801599 9.92567873 -21.02763953 10.15625824 -26 10 C-26 9.67 -26 9.34 -26 9 C-25.18917969 8.84144531 -24.37835938 8.68289062 -23.54296875 8.51953125 C-15.8131904 6.89078866 -9.04226884 4.56603049 -2 1 C-1.34 0.67 -0.68 0.34 0 0 Z " fill="#141E90" transform="translate(160,219)"/>
<path d="M0 0 C4.70492337 0.461267 8.30137877 0.93542812 12 4 C13.69903896 8.13213948 14.24115624 11.60784506 14.1953125 16.0546875 C14.18564453 17.71757813 14.18564453 17.71757813 14.17578125 19.4140625 C14.15902344 20.55617187 14.14226562 21.69828125 14.125 22.875 C14.11597656 24.0403125 14.10695312 25.205625 14.09765625 26.40625 C14.07417432 29.27104577 14.04133141 32.13541535 14 35 C13.67 35 13.34 35 13 35 C12.98541748 34.30438965 12.97083496 33.6087793 12.95581055 32.89208984 C12.88102031 29.71918662 12.78446188 26.54729992 12.6875 23.375 C12.66494141 22.28058594 12.64238281 21.18617188 12.61914062 20.05859375 C12.45006498 12.0593309 12.45006498 12.0593309 9 5 C6.78819221 3.66523001 6.78819221 3.66523001 4.3125 3.125 C3.50425781 2.90070313 2.69601563 2.67640625 1.86328125 2.4453125 C1.24839844 2.29835938 0.63351563 2.15140625 0 2 C0 1.34 0 0.68 0 0 Z " fill="#1876E4" transform="translate(171,110)"/>
<path d="M0 0 C0.66 0 1.32 0 2 0 C2.33 7.26 2.66 14.52 3 22 C1.68 22.33 0.36 22.66 -1 23 C-1.13690844 15.27227893 -0.75166913 7.69118596 0 0 Z " fill="#121584" transform="translate(131,58)"/>
<path d="M0 0 C4.50206785 -0.17655168 7.98974995 -0.17699288 12 2 C14 5 14 5 14 8 C14.66 8 15.32 8 16 8 C16.02722517 10.20826378 16.04649729 12.41662638 16.0625 14.625 C16.07410156 15.85476562 16.08570313 17.08453125 16.09765625 18.3515625 C16.00863924 21.67723791 15.63686087 24.74047588 15 28 C14.67 28 14.34 28 14 28 C14.06960937 26.78183594 14.13921875 25.56367187 14.2109375 24.30859375 C15.05248782 14.36651194 15.05248782 14.36651194 11.5 5.5 C8.0741744 2.4757664 4.4425276 1.68935773 0 1 C0 0.67 0 0.34 0 0 Z " fill="#2654C1" transform="translate(120,15)"/>
<path d="M0 0 C1.625 2.25 1.625 2.25 1.375 5 C1.1275 5.7425 0.88 6.485 0.625 7.25 C-0.035 7.25 -0.695 7.25 -1.375 7.25 C-1.7875 6.280625 -2.2 5.31125 -2.625 4.3125 C-4.010978 1.22977656 -4.010978 1.22977656 -6.125 0.375 C-6.8675 0.33375 -7.61 0.2925 -8.375 0.25 C-9.509375 0.1675 -10.64375 0.085 -11.8125 0 C-15.61800538 0.26705301 -17.25218082 1.19786168 -20.375 3.25 C-21.035 2.92 -21.695 2.59 -22.375 2.25 C-19.81799714 -0.95947945 -17.47583448 -1.38528245 -13.5 -2 C-12.47132812 -2.17015625 -11.44265625 -2.3403125 -10.3828125 -2.515625 C-6.14920438 -2.84551654 -3.43931955 -2.53423546 0 0 Z " fill="#102492" transform="translate(135.375,15.75)"/>
<path d="M0 0 C1.0209375 0.8353125 1.0209375 0.8353125 2.0625 1.6875 C2.0625 2.6775 2.0625 3.6675 2.0625 4.6875 C1.175625 4.213125 0.28875 3.73875 -0.625 3.25 C-3.50792756 1.89012851 -5.81360623 1.14689614 -8.9375 0.6875 C-8.9375 1.3475 -8.9375 2.0075 -8.9375 2.6875 C-9.9275 3.0175 -10.9175 3.3475 -11.9375 3.6875 C-13.33462274 5.64347184 -14.67529907 7.64186401 -15.9375 9.6875 C-16.9375 6.6875 -16.9375 6.6875 -16 4.5 C-15.649375 3.901875 -15.29875 3.30375 -14.9375 2.6875 C-14.2775 2.6875 -13.6175 2.6875 -12.9375 2.6875 C-12.9375 1.6975 -12.9375 0.7075 -12.9375 -0.3125 C-8.31045454 -1.85484849 -4.49250448 -2.00728924 0 0 Z " fill="#1F75DF" transform="translate(179.9375,109.3125)"/>
<path d="M0 0 C0.98097656 0.28617188 1.96195312 0.57234375 2.97265625 0.8671875 C7.10482715 2.04780776 11.26577797 3.09447397 15.4375 4.125 C16.16904297 4.30675781 16.90058594 4.48851562 17.65429688 4.67578125 C19.43592749 5.11827774 21.21792542 5.55929488 23 6 C23 6.33 23 6.66 23 7 C7.57782428 7.90364311 7.57782428 7.90364311 1.22265625 3.2890625 C0 2 0 2 0 0 Z " fill="#0E147F" transform="translate(98,222)"/>
<path d="M0 0 C5.88133255 0.1466999 9.91626003 1.04966303 14.6875 4.55078125 C16.27202263 6.30035832 16.60757264 7.69939462 17 10 C13.85320318 9.65035591 12.36610595 9.37830948 10.125 7.0625 C7.36537396 4.38403943 4.64900944 4.03273852 1 3 C0.67 2.01 0.34 1.02 0 0 Z " fill="#2468D5" transform="translate(111,171)"/>
<path d="M0 0 C0.99 0.495 0.99 0.495 2 1 C2.37890625 3.36328125 2.37890625 3.36328125 2.5625 6.3125 C2.78959704 10.19858506 2.78959704 10.19858506 3.5546875 13.99609375 C4.15208136 16.68436611 3.8550554 19.01948292 3.5625 21.75 C3.40974609 23.22726563 3.40974609 23.22726563 3.25390625 24.734375 C3.17011719 25.48203125 3.08632812 26.2296875 3 27 C-0.53103646 21.11493924 -0.14149528 14.20418009 -0.0625 7.5625 C-0.05798828 6.83095703 -0.05347656 6.09941406 -0.04882812 5.34570312 C-0.03718148 3.56376581 -0.01925191 1.78187137 0 0 Z " fill="#131180" transform="translate(83,31)"/>
<path d="M0 0 C6.27 0 12.54 0 19 0 C18.34 1.32 17.68 2.64 17 4 C14.91781638 4.10832169 12.83400871 4.18573541 10.75 4.25 C9.00976562 4.31960937 9.00976562 4.31960937 7.234375 4.390625 C4 4 4 4 0 0 Z " fill="#2763CF" transform="translate(163,152)"/>
<path d="M0 0 C0.33 0 0.66 0 1 0 C1 5.28 1 10.56 1 16 C2.32 15.34 3.64 14.68 5 14 C4.67 15.32 4.34 16.64 4 18 C5.65 17.01 7.3 16.02 9 15 C7.18690997 18.77727089 5.0926741 22.37269822 3 26 C1.66667905 23.3333581 2.32897967 21.83319697 3 19 C2.01 19 1.02 19 0 19 C0 12.73 0 6.46 0 0 Z " fill="#1F2F9E" transform="translate(67,131)"/>
<path d="M0 0 C1.21914674 3.75194772 1.02933317 7.2706156 0.9375 11.1875 C0.86790301 15.64872117 0.97442806 19.83521225 2.0625 24.1875 C2.94074149 27.7590154 3.0379337 28.72651681 2 32 C1.67 30.02 1.34 28.04 1 26 C0.34 26 -0.32 26 -1 26 C-2.07284497 20.96403367 -1.97621545 16.40073381 -1.625 11.3125 C-1.58117187 10.55388672 -1.53734375 9.79527344 -1.4921875 9.01367188 C-1.28914137 5.81851534 -1.01680536 3.05041608 0 0 Z " fill="#142695" transform="translate(68,157)"/>
<path d="M0 0 C0.33 0 0.66 0 1 0 C1.20086443 3.71599191 1.1519437 4.77208445 -1 8 C-1.33987168 11.61812766 -1.44240931 15.21595559 -1.55859375 18.84765625 C-1.70425781 19.88792969 -1.84992188 20.92820312 -2 22 C-2.99 22.66 -3.98 23.32 -5 24 C-4.91308261 21.22763506 -4.80622639 18.45852922 -4.6875 15.6875 C-4.66494141 14.90181641 -4.64238281 14.11613281 -4.61914062 13.30664062 C-4.58369141 12.54931641 -4.54824219 11.79199219 -4.51171875 11.01171875 C-4.48553467 10.31522217 -4.45935059 9.61872559 -4.43237305 8.90112305 C-3.88475294 6.49326432 -2.79138403 5.64318746 -1 4 C-0.28552357 1.89667109 -0.28552357 1.89667109 0 0 Z " fill="#1278DF" transform="translate(113,27)"/>
<path d="M0 0 C0 5.28 0 10.56 0 16 C-0.33 16 -0.66 16 -1 16 C-1.19627391 14.41773035 -1.38165538 12.83410729 -1.5625 11.25 C-1.66691406 10.36828125 -1.77132812 9.4865625 -1.87890625 8.578125 C-1.99456676 6.11567549 -1.73638695 4.33461936 -1 2 C-2.6396875 2.7425 -2.6396875 2.7425 -4.3125 3.5 C-8 5 -8 5 -11 5 C-11 5.66 -11 6.32 -11 7 C-12.32 6.34 -13.64 5.68 -15 5 C-15 4.67 -15 4.34 -15 4 C-14.195625 3.87625 -13.39125 3.7525 -12.5625 3.625 C-11.716875 3.41875 -10.87125 3.2125 -10 3 C-9.67 2.34 -9.34 1.68 -9 1 C-5.85554549 0.15014743 -3.29227921 0 0 0 Z " fill="#1878DE" transform="translate(186,160)"/>
<path d="M0 0 C1.32039066 4.29605366 0.67104147 7.88353199 -1 12 C-3.4375 15 -3.4375 15 -6 17 C-6.99 17 -7.98 17 -9 17 C-8.1875 14.5625 -8.1875 14.5625 -7 12 C-6.01 11.67 -5.02 11.34 -4 11 C-2.87050779 8.19623648 -2.87050779 8.19623648 -2 5 C-1.34588315 3.32836805 -0.68346682 1.65984798 0 0 Z " fill="#0F1D8D" transform="translate(183,189)"/>
<path d="M0 0 C2.2344598 4.03292745 2.54496743 7.44967434 3 12 C5.91652174 12.16681109 5.91652174 12.16681109 9 12 C9.66 11.34 10.32 10.68 11 10 C10.67 11.65 10.34 13.3 10 15 C6.71303767 15.79953138 5.28976808 16.09658936 2 15 C-0.35119399 11.47320901 -0.21443452 9.97120515 -0.125 5.8125 C-0.10695313 4.72582031 -0.08890625 3.63914062 -0.0703125 2.51953125 C-0.04710938 1.68808594 -0.02390625 0.85664062 0 0 Z " fill="#1A75DD" transform="translate(89,100)"/>
<path d="M0 0 C2.10409639 -0.02701408 4.20829178 -0.04640223 6.3125 -0.0625 C7.48425781 -0.07410156 8.65601562 -0.08570313 9.86328125 -0.09765625 C13 0 13 0 16 1 C16 1.66 16 2.32 16 3 C16.99 3 17.98 3 19 3 C18.67 4.32 18.34 5.64 18 7 C17.2575 6.360625 16.515 5.72125 15.75 5.0625 C11.08219437 1.87170533 5.47311493 2.17712346 0 2 C0 1.34 0 0.68 0 0 Z " fill="#0F0D7D" transform="translate(60,12)"/>
<path d="M0 0 C2.97 0.495 2.97 0.495 6 1 C6 1.66 6 2.32 6 3 C9.3 2.67 12.6 2.34 16 2 C15.67 2.99 15.34 3.98 15 5 C13.06280622 5.05406122 11.12518079 5.09282025 9.1875 5.125 C8.10855469 5.14820313 7.02960938 5.17140625 5.91796875 5.1953125 C3 5 3 5 0 3 C0 2.01 0 1.02 0 0 Z " fill="#0B0E84" transform="translate(164,155)"/>
<path d="M0 0 C2.4375 0.375 2.4375 0.375 5 1 C6.20272819 3.40545638 6.10071472 4.94996953 6.0625 7.625 C6.05347656 8.44226563 6.04445312 9.25953125 6.03515625 10.1015625 C6.02355469 10.72804687 6.01195312 11.35453125 6 12 C2.44992282 8.0949151 1.18180084 5.02265357 0 0 Z " fill="#071A85" transform="translate(128,176)"/>
<path d="M0 0 C1.99954746 -0.04254356 4.00041636 -0.04080783 6 0 C7.73219928 1.73219928 7.21291761 4.02026808 7.25 6.375 C7.27578125 7.35210937 7.3015625 8.32921875 7.328125 9.3359375 C7 12 7 12 5.484375 13.8515625 C4.74960938 14.42003906 4.74960938 14.42003906 4 15 C4.01740234 13.84371094 4.01740234 13.84371094 4.03515625 12.6640625 C4.04417969 11.66117188 4.05320313 10.65828125 4.0625 9.625 C4.07410156 8.62726563 4.08570313 7.62953125 4.09765625 6.6015625 C4.18006602 4.01567547 4.18006602 4.01567547 3 2 C2.01 1.34 1.02 0.68 0 0 Z " fill="#2362CD" transform="translate(147,138)"/>
<path d="M0 0 C0.50789063 0.38671875 1.01578125 0.7734375 1.5390625 1.171875 C5.61331983 4.25427193 9.71647931 7.21571155 14 10 C11.3464294 11.3267853 10.35528594 10.74631253 7.5625 9.875 C4.3223645 8.73938981 3.17563656 8.21289279 0.9375 5.5 C0 3 0 3 0 0 Z " fill="#101382" transform="translate(84,211)"/>
<path d="M0 0 C0.66 0.33 1.32 0.66 2 1 C2.47558826 3.71085309 2.80238886 6.26637919 3 9 C3.05414063 9.73863281 3.10828125 10.47726563 3.1640625 11.23828125 C3.25 13.375 3.25 13.375 3 17 C2.01 17.66 1.02 18.32 0 19 C0.01740234 17.78763672 0.01740234 17.78763672 0.03515625 16.55078125 C0.04417969 15.48214844 0.05320313 14.41351563 0.0625 13.3125 C0.07410156 12.25675781 0.08570313 11.20101563 0.09765625 10.11328125 C0.08924577 7.03769673 0.08924577 7.03769673 -0.56640625 4.23046875 C-1 2 -1 2 0 0 Z " fill="#150877" transform="translate(137,20)"/>
<path d="M0 0 C-1.0828125 0.495 -1.0828125 0.495 -2.1875 1 C-5.50464456 3.35885835 -6.91882912 5.75791759 -8.88671875 9.2578125 C-10 11 -10 11 -12 12 C-11.52269162 10.5410574 -11.04308958 9.08286504 -10.5625 7.625 C-10.29566406 6.81289062 -10.02882813 6.00078125 -9.75390625 5.1640625 C-8.39293491 1.25744012 -8.39293491 1.25744012 -6.1875 -0.1875 C-3.64535109 -1.13172674 -2.51089376 -0.89674777 0 0 Z " fill="#1977DD" transform="translate(84,145)"/>
<path d="M0 0 C1.97885999 2.96828999 3.25864997 5.77447054 4.625 9.0625 C5.07101563 10.12597656 5.51703125 11.18945312 5.9765625 12.28515625 C7 15 7 15 7 17 C5.68 16.67 4.36 16.34 3 16 C2.49411853 14.08487728 1.99551609 12.16783078 1.5 10.25 C1.2215625 9.18265625 0.943125 8.1153125 0.65625 7.015625 C0 4 0 4 0 0 Z " fill="#0D117F" transform="translate(68,183)"/>
<path d="M0 0 C0.63550781 0.18304687 1.27101563 0.36609375 1.92578125 0.5546875 C2.25578125 1.2146875 2.58578125 1.8746875 2.92578125 2.5546875 C2.178125 2.58046875 1.43046875 2.60625 0.66015625 2.6328125 C-5.4811408 2.84155634 -5.4811408 2.84155634 -10.76171875 5.6171875 C-11.19484375 6.2565625 -11.62796875 6.8959375 -12.07421875 7.5546875 C-11.70808574 4.99175646 -10.99265297 3.42894025 -9.57421875 1.2421875 C-6.17635001 -1.0513739 -3.94843603 -0.52990467 0 0 Z " fill="#1C77E1" transform="translate(126.07421875,16.4453125)"/>
<path d="M0 0 C1.32 0 2.64 0 4 0 C4.268125 0.639375 4.53625 1.27875 4.8125 1.9375 C5.88667752 4.33131686 5.88667752 4.33131686 9 5 C9.33 7.97 9.66 10.94 10 14 C7.64046906 11.64046906 7.50858587 10.22104383 7 7 C6.01 6.67 5.02 6.34 4 6 C1.8125 4.0625 1.8125 4.0625 0 2 C0 1.34 0 0.68 0 0 Z " fill="#2963CF" transform="translate(126,170)"/>
<path d="M0 0 C11.28845091 -0.3945478 11.28845091 -0.3945478 15 2 C15.8125 4.125 15.8125 4.125 16 6 C14.02 5.34 12.04 4.68 10 4 C10 3.34 10 2.68 10 2 C6.7 1.67 3.4 1.34 0 1 C0 0.67 0 0.34 0 0 Z " fill="#256BD3" transform="translate(135,94)"/>
<path d="M0 0 C3.63 0 7.26 0 11 0 C5.48053221 4.13960085 1.79392497 4.13321422 -5 4 C-5 3.67 -5 3.34 -5 3 C-3.35 3 -1.7 3 0 3 C0 2.01 0 1.02 0 0 Z " fill="#2A68D9" transform="translate(140,223)"/>
<path d="M0 0 C-5.53846154 5.84615385 -5.53846154 5.84615385 -9 7 C-9.99 6.67 -10.98 6.34 -12 6 C-4.8 -1.6 -4.8 -1.6 0 0 Z " fill="#2A6AD3" transform="translate(149,157)"/>
<path d="M0 0 C0.99 0.495 0.99 0.495 2 1 C2 1.66 2 2.32 2 3 C2.66 3 3.32 3 4 3 C4 3.99 4 4.98 4 6 C5.32 6.66 6.64 7.32 8 8 C7.01 8.495 7.01 8.495 6 9 C6 9.99 6 10.98 6 12 C4.68 11.34 3.36 10.68 2 10 C2 7 2 7 3 5 C2.34 5 1.68 5 1 5 C0.67 3.35 0.34 1.7 0 0 Z " fill="#112896" transform="translate(159,147)"/>
<path d="M0 0 C0.99 0 1.98 0 3 0 C2.13329546 6.35583327 1.06965872 12.67551301 0 19 C-0.33 19 -0.66 19 -1 19 C-1.12086218 12.56744599 -0.82351864 6.38226945 0 0 Z " fill="#100C7E" transform="translate(67,150)"/>
<path d="M0 0 C1.24652344 -0.01675781 2.49304688 -0.03351563 3.77734375 -0.05078125 C7.0625 0.3125 7.0625 0.3125 9.00390625 1.70703125 C10.0625 3.3125 10.0625 3.3125 10.0625 5.3125 C7.625 4.9375 7.625 4.9375 5.0625 4.3125 C4.7325 3.6525 4.4025 2.9925 4.0625 2.3125 C-0.2275 2.3125 -4.5175 2.3125 -8.9375 2.3125 C-6.07413629 -0.55086371 -3.98521654 0.01233813 0 0 Z " fill="#170A75" transform="translate(140.9375,89.6875)"/>
<path d="M0 0 C1.65 1.65 3.3 3.3 5 5 C-1.625 7 -1.625 7 -5 7 C-4.67 6.01 -4.34 5.02 -4 4 C-3.34 4 -2.68 4 -2 4 C-1.34 2.68 -0.68 1.36 0 0 Z " fill="#2558BC" transform="translate(157,153)"/>
<path d="M0 0 C0.33 0 0.66 0 1 0 C0.67 3.96 0.34 7.92 0 12 C-1.32 12 -2.64 12 -4 12 C-4 10.02 -4 8.04 -4 6 C-3.01 6 -2.02 6 -1 6 C-0.67 4.02 -0.34 2.04 0 0 Z " fill="#061585" transform="translate(97,100)"/>
<path d="M0 0 C0.66 0 1.32 0 2 0 C2.33 4.95 2.66 9.9 3 15 C2.34 15 1.68 15 1 15 C-0.00109515 11.68929162 -0.10356134 8.69915231 -0.0625 5.25 C-0.05347656 4.26515625 -0.04445313 3.2803125 -0.03515625 2.265625 C-0.02355469 1.51796875 -0.01195313 0.7703125 0 0 Z " fill="#037FE4" transform="translate(86,97)"/>
<path d="M0 0 C1.485 0.99 1.485 0.99 3 2 C3 2.66 3 3.32 3 4 C3.66 4 4.32 4 5 4 C5 5.98 5 7.96 5 10 C5.66 10.33 6.32 10.66 7 11 C6.01 11.33 5.02 11.66 4 12 C3.67 12.66 3.34 13.32 3 14 C2.86722656 13.32453125 2.73445313 12.6490625 2.59765625 11.953125 C2.42105469 11.06109375 2.24445313 10.1690625 2.0625 9.25 C1.88847656 8.36828125 1.71445313 7.4865625 1.53515625 6.578125 C1.07631512 4.36764947 0.56663926 2.18487932 0 0 Z " fill="#1B74E0" transform="translate(74,21)"/>
<path d="M0 0 C2.6318445 2.40298846 3.89311748 4.21012001 4.11352539 7.90112305 C4.10828857 8.59761963 4.10305176 9.29411621 4.09765625 10.01171875 C4.09443359 10.76904297 4.09121094 11.52636719 4.08789062 12.30664062 C4.07951172 13.09232422 4.07113281 13.87800781 4.0625 14.6875 C4.05798828 15.48478516 4.05347656 16.28207031 4.04882812 17.10351562 C4.0370585 19.06904257 4.01912348 21.03453085 4 23 C3.67 23 3.34 23 3 23 C2.92652344 21.31970703 2.92652344 21.31970703 2.8515625 19.60546875 C2.77652144 18.13278797 2.70097418 16.66013293 2.625 15.1875 C2.57859375 14.08051758 2.57859375 14.08051758 2.53125 12.95117188 C2.32653852 9.18106885 2.13566173 7.20349259 0 4 C0 2.68 0 1.36 0 0 Z " fill="#266AD6" transform="translate(128,182)"/>
<path d="M0 0 C3.63 0 7.26 0 11 0 C8.8125 2.0625 8.8125 2.0625 6 4 C3.1875 3.75 3.1875 3.75 1 3 C0.67 2.01 0.34 1.02 0 0 Z " fill="#19057A" transform="translate(115,167)"/>
<path d="M0 0 C0.825 0.28875 1.65 0.5775 2.5 0.875 C1.5 2.875 1.5 2.875 -0.6796875 3.7265625 C-2.01386719 4.10941406 -2.01386719 4.10941406 -3.375 4.5 C-4.25929688 4.76039063 -5.14359375 5.02078125 -6.0546875 5.2890625 C-8.5 5.875 -8.5 5.875 -11.5 5.875 C-4.60284464 -0.16438731 -4.60284464 -0.16438731 0 0 Z " fill="#2060D0" transform="translate(88.5,139.125)"/>
<path d="M0 0 C0.99 0.33 1.98 0.66 3 1 C-0.49087093 5.0042343 -2.64951939 6.62671065 -8 7 C-8 6.34 -8 5.68 -8 5 C-7.01 5 -6.02 5 -5 5 C-5 4.34 -5 3.68 -5 3 C-4.01 3 -3.02 3 -2 3 C-2 2.34 -2 1.68 -2 1 C-1.34 0.67 -0.68 0.34 0 0 Z " fill="#225FCD" transform="translate(159,216)"/>
<path d="M0 0 C0 3 0 3 -1 6 C-3.3125 7.8125 -3.3125 7.8125 -6 9 C-7.32 8.34 -8.64 7.68 -10 7 C-6.7 4.69 -3.4 2.38 0 0 Z " fill="#1E5CCB" transform="translate(151,161)"/>
<path d="M0 0 C0.33 0.66 0.66 1.32 1 2 C1.99 2.33 2.98 2.66 4 3 C-1.875 8 -1.875 8 -3 8 C-3.36923077 3.44615385 -3.36923077 3.44615385 -1.5 1.1875 C-1.005 0.795625 -0.51 0.40375 0 0 Z " fill="#077DDD" transform="translate(73,134)"/>
<path d="M0 0 C0.66 0.33 1.32 0.66 2 1 C1.67 7.27 1.34 13.54 1 20 C0.67 20 0.34 20 0 20 C-0.19594676 16.85463232 -0.3803401 13.70869386 -0.5625 10.5625 C-0.61857422 9.66466797 -0.67464844 8.76683594 -0.73242188 7.84179688 C-0.78076172 6.98779297 -0.82910156 6.13378906 -0.87890625 5.25390625 C-0.9260376 4.46314697 -0.97316895 3.6723877 -1.02172852 2.85766602 C-1 1 -1 1 0 0 Z " fill="#1F6AD4" transform="translate(67,111)"/>
<path d="M0 0 C3.01191399 1.74373968 4.72504283 3.11847904 5.77734375 6.4921875 C6.26214204 8.99049108 6.67726329 11.47590991 7 14 C6.34 14 5.68 14 5 14 C5 12.02 5 10.04 5 8 C4.34 8 3.68 8 3 8 C0 2.25 0 2.25 0 0 Z " fill="#2C68D5" transform="translate(74,17)"/>
<path d="M0 0 C1.46373047 0.02707031 1.46373047 0.02707031 2.95703125 0.0546875 C3.69308594 0.07789063 4.42914063 0.10109375 5.1875 0.125 C5.1875 0.455 5.1875 0.785 5.1875 1.125 C3.97513672 1.27195312 3.97513672 1.27195312 2.73828125 1.421875 C-5.34939391 2.42923143 -5.34939391 2.42923143 -11.8125 7.125 C-11.625 4.75 -11.625 4.75 -10.8125 2.125 C-7.14690697 0.18747226 -4.10194957 -0.09884216 0 0 Z " fill="#071382" transform="translate(122.8125,12.875)"/>
<path d="M0 0 C4.95 0.99 9.9 1.98 15 3 C15 3.33 15 3.66 15 4 C10.71 4 6.42 4 2 4 C1.34 2.68 0.68 1.36 0 0 Z " fill="#0A228C" transform="translate(106,225)"/>
<path d="M0 0 C1.77503906 0.03480469 1.77503906 0.03480469 3.5859375 0.0703125 C5.36871094 0.09738281 5.36871094 0.09738281 7.1875 0.125 C8.10273438 0.14820312 9.01796875 0.17140625 9.9609375 0.1953125 C9.9609375 0.5253125 9.9609375 0.8553125 9.9609375 1.1953125 C5.6709375 1.8553125 1.3809375 2.5153125 -3.0390625 3.1953125 C-3.3690625 4.1853125 -3.6990625 5.1753125 -4.0390625 6.1953125 C-4.6640625 4.3203125 -4.6640625 4.3203125 -5.0390625 2.1953125 C-3.0390625 0.1953125 -3.0390625 0.1953125 0 0 Z " fill="#0D2191" transform="translate(166.0390625,106.8046875)"/>
<path d="M0 0 C2.31 0 4.62 0 7 0 C7.66 1.32 8.32 2.64 9 4 C6.69 4 4.38 4 2 4 C2 3.01 2 2.02 2 1 C1.34 0.67 0.68 0.34 0 0 Z " fill="#0781E2" transform="translate(163,162)"/>
<path d="M0 0 C0 1.98 0 3.96 0 6 C-1.96466413 7.06775224 -3.96855359 8.06553465 -6 9 C-6.66 8.67 -7.32 8.34 -8 8 C-7.67 7.34 -7.34 6.68 -7 6 C-6.34 6 -5.68 6 -5 6 C-5 5.34 -5 4.68 -5 4 C-1.35294118 0 -1.35294118 0 0 0 Z " fill="#1D73E2" transform="translate(151,149)"/>
<path d="M0 0 C2.97 0 5.94 0 9 0 C8 2 8 2 5.1875 3.1875 C2.14038924 3.96421451 0.86250637 4.10096399 -2 3 C-1.34 3 -0.68 3 0 3 C0 2.01 0 1.02 0 0 Z " fill="#071485" transform="translate(83,136)"/>
<path d="M0 0 C0.33 0 0.66 0 1 0 C1.24900646 1.93505023 1.47356242 3.87325934 1.6875 5.8125 C1.87892578 7.43091797 1.87892578 7.43091797 2.07421875 9.08203125 C2 12 2 12 0.51953125 13.88671875 C0.01808594 14.25410156 -0.48335938 14.62148437 -1 15 C-1.09038099 9.84828377 -0.84681133 5.08086796 0 0 Z " fill="#1F66D1" transform="translate(99,97)"/>
<path d="M0 0 C0 0.33 0 0.66 0 1 C-4.95 1 -9.9 1 -15 1 C-10.44681731 -3.55318269 -5.5545304 -1.60045791 0 0 Z " fill="#1B0578" transform="translate(130,12)"/>
<path d="M0 0 C0 1.65 0 3.3 0 5 C-3.465 6.485 -3.465 6.485 -7 8 C-5.9363919 4.72054168 -4.1945074 0 0 0 Z " fill="#1D76E0" transform="translate(174,201)"/>
<path d="M0 0 C0.99 0.495 0.99 0.495 2 1 C2.484375 2.99609375 2.484375 2.99609375 2.75 5.4375 C2.84796875 6.24058594 2.9459375 7.04367188 3.046875 7.87109375 C3 10 3 10 1 12 C-0.26237731 9.47524538 -0.09856404 7.68799534 -0.0625 4.875 C-0.05347656 3.96492187 -0.04445312 3.05484375 -0.03515625 2.1171875 C-0.02355469 1.41851562 -0.01195312 0.71984375 0 0 Z " fill="#0C0E81" transform="translate(134,191)"/>
<path d="M0 0 C0.66 0.33 1.32 0.66 2 1 C1.88487847 2.72985242 1.75744323 4.45888751 1.625 6.1875 C1.52058594 7.63189453 1.52058594 7.63189453 1.4140625 9.10546875 C0.99784147 12.01508938 0.20125904 14.32890774 -1 17 C-1.33 17 -1.66 17 -2 17 C-1.4618629 11.30948637 -0.8599867 5.65134116 0 0 Z " fill="#160577" transform="translate(135,45)"/>
<path d="M0 0 C0.6875 1.8125 0.6875 1.8125 1 4 C-0.125 5.75 -0.125 5.75 -2 7 C-4.6875 7.1875 -4.6875 7.1875 -7 7 C-4.78071806 4.09197539 -3.07030857 2.04687238 0 0 Z " fill="#1F72E9" transform="translate(155,159)"/>
<path d="M0 0 C0.33 0.66 0.66 1.32 1 2 C1.66 2 2.32 2 3 2 C3 3.32 3 4.64 3 6 C4.2065625 6.185625 4.2065625 6.185625 5.4375 6.375 C6.7059375 6.684375 6.7059375 6.684375 8 7 C8.33 7.66 8.66 8.32 9 9 C6.69 8.67 4.38 8.34 2 8 C0.74335022 5.09399739 0 3.20395416 0 0 Z " fill="#147BDF" transform="translate(161,144)"/>
<path d="M0 0 C0.33 0 0.66 0 1 0 C0.58846263 4.97093824 0.20399168 9.44508386 -2 14 C-2.33 14 -2.66 14 -3 14 C-3 11.69 -3 9.38 -3 7 C-2.34 7 -1.68 7 -1 7 C-0.67 4.69 -0.34 2.38 0 0 Z " fill="#265FCE" transform="translate(184,180)"/>
<path d="M0 0 C1.32 0.66 2.64 1.32 4 2 C4 2.66 4 3.32 4 4 C3.34 4 2.68 4 2 4 C2.66 6.31 3.32 8.62 4 11 C3.34 10.67 2.68 10.34 2 10 C1.375 7.4375 1.375 7.4375 1 5 C0.01 4.67 -0.98 4.34 -2 4 C-1.34 3.67 -0.68 3.34 0 3 C0 2.01 0 1.02 0 0 Z " fill="#14289C" transform="translate(126,172)"/>
<path d="M0 0 C0.33 0 0.66 0 1 0 C1 3.96 1 7.92 1 12 C2.32 11.67 3.64 11.34 5 11 C3.625 13 3.625 13 2 15 C1.34 15 0.68 15 0 15 C0 10.05 0 5.1 0 0 Z " fill="#2C5CC6" transform="translate(68,132)"/>
<path d="M0 0 C0.99 0 1.98 0 3 0 C3.33 1.65 3.66 3.3 4 5 C2.35 5 0.7 5 -1 5 C-1 1 -1 1 0 0 Z " fill="#21077B" transform="translate(122,131)"/>
<path d="M0 0 C4.92991345 -0.28999491 8.09251769 -0.19703098 12 3 C12 3.99 12 4.98 12 6 C10.02 5.01 8.04 4.02 6 3 C6 2.34 6 1.68 6 1 C4.02 1 2.04 1 0 1 C0 0.67 0 0.34 0 0 Z " fill="#2A61D1" transform="translate(170,108)"/>
<path d="M0 0 C0.66 0 1.32 0 2 0 C1.34 5.94 0.68 11.88 0 18 C-0.33 18 -0.66 18 -1 18 C-1.02690844 15.37493198 -1.04679404 12.75013827 -1.0625 10.125 C-1.07087891 9.37863281 -1.07925781 8.63226563 -1.08789062 7.86328125 C-1.11328125 2.2265625 -1.11328125 2.2265625 0 0 Z " fill="#140778" transform="translate(108,17)"/>
<path d="M0 0 C1.98 0 3.96 0 6 0 C6 0.66 6 1.32 6 2 C7.65 2.33 9.3 2.66 11 3 C11 3.33 11 3.66 11 4 C6.35108046 4.32434322 3.77593392 3.776422 0 1 C0 0.67 0 0.34 0 0 Z " fill="#2176E2" transform="translate(101,220)"/>
<path d="M0 0 C0.33 0.66 0.66 1.32 1 2 C-0.27984466 5.83953399 -2.81501296 7.65316744 -6 10 C-5.67 8.35 -5.34 6.7 -5 5 C-4.01 4.67 -3.02 4.34 -2 4 C-2 3.01 -2 2.02 -2 1 C-1.34 0.67 -0.68 0.34 0 0 Z " fill="#2560CC" transform="translate(180,194)"/>
<path d="M0 0 C0 3 0 3 -1.25 4.625 C-3.17415516 6.1368362 -4.60989418 6.58791279 -7 7 C-3.86206897 0 -3.86206897 0 0 0 Z " fill="#2552C5" transform="translate(167,109)"/>
<path d="M0 0 C0.33 0.66 0.66 1.32 1 2 C0.00390625 4.3828125 0.00390625 4.3828125 -1.4375 7.125 C-1.91058594 8.03507813 -2.38367188 8.94515625 -2.87109375 9.8828125 C-3.24363281 10.58148438 -3.61617188 11.28015625 -4 12 C-4.65234375 10.265625 -4.65234375 10.265625 -5 8 C-4.00390625 5.859375 -4.00390625 5.859375 -2.5625 3.75 C-2.08941406 3.04359375 -1.61632812 2.3371875 -1.12890625 1.609375 C-0.75636719 1.07828125 -0.38382812 0.5471875 0 0 Z " fill="#2A61CC" transform="translate(74,149)"/>
<path d="M0 0 C0.99 0 1.98 0 3 0 C4.5625 2.3125 4.5625 2.3125 6 5 C6.99 6.485 6.99 6.485 8 8 C4.63820226 6.55922954 2.40843732 4.75249979 0 2 C0 1.34 0 0.68 0 0 Z " fill="#2452BF" transform="translate(83,208)"/>
<path d="M0 0 C0.99 0 1.98 0 3 0 C2.67 2.31 2.34 4.62 2 7 C1.34 7 0.68 7 0 7 C0 4.69 0 2.38 0 0 Z " fill="#1B0572" transform="translate(155,134)"/>
<path d="M0 0 C2.1519437 3.22791555 2.20086443 4.28400809 2 8 C1.01 8 0.02 8 -1 8 C-0.67 5.36 -0.34 2.72 0 0 Z " fill="#0D0987" transform="translate(123,123)"/>
<path d="M0 0 C0.33 0 0.66 0 1 0 C1.33 3.63 1.66 7.26 2 11 C1.01 11 0.02 11 -1 11 C-0.67 7.37 -0.34 3.74 0 0 Z " fill="#160775" transform="translate(61,94)"/>
<path d="M0 0 C-0.33 0.66 -0.66 1.32 -1 2 C-4.3 1.67 -7.6 1.34 -11 1 C-11 0.67 -11 0.34 -11 0 C-3.57142857 -1.28571429 -3.57142857 -1.28571429 0 0 Z " fill="#1D6EDC" transform="translate(141,170)"/>
<path d="M0 0 C0 1.98 0 3.96 0 6 C-0.99 6.33 -1.98 6.66 -3 7 C-3 5.02 -3 3.04 -3 1 C-1 0 -1 0 0 0 Z " fill="#190672" transform="translate(63,132)"/>
<path d="M0 0 C1.485 0.99 1.485 0.99 3 2 C2.67 3.65 2.34 5.3 2 7 C1.34 7 0.68 7 0 7 C0 4.69 0 2.38 0 0 Z " fill="#121384" transform="translate(134,16)"/>
</svg>
