<?xml version="1.0" encoding="UTF-8"?>
<svg version="1.1" xmlns="http://www.w3.org/2000/svg" width="201" height="213">
<path d="M0 0 C66.33 0 132.66 0 201 0 C201 70.29 201 140.58 201 213 C134.67 213 68.34 213 0 213 C0 142.71 0 72.42 0 0 Z " fill="#260071" transform="translate(0,0)"/>
<path d="M0 0 C1.03930664 0.02030273 1.03930664 0.02030273 2.09960938 0.04101562 C3.79591265 0.07611155 5.49181136 0.12991057 7.1875 0.1875 C7.1875 0.8475 7.1875 1.5075 7.1875 2.1875 C8.1775 2.5175 9.1675 2.8475 10.1875 3.1875 C11.91838382 4.91838382 12.1875 6.82789008 12.1875 9.1875 C14.1475281 10.82426257 14.1475281 10.82426257 16.1875 12.1875 C16.765 11.218125 17.3425 10.24875 17.9375 9.25 C20.1875 6.1875 20.1875 6.1875 22.4375 5.3125 C23.015 5.27125 23.5925 5.23 24.1875 5.1875 C24.1875 4.5275 24.1875 3.8675 24.1875 3.1875 C29.54896742 0.50676629 38.51979673 1.64072014 44.375 2.625 C48.13526908 4.71403838 48.38112972 6.59636014 49.60522461 10.57397461 C50.58528717 14.97295561 50.50332253 19.26529199 50.375 23.75 C50.35469727 25.11995117 50.35469727 25.11995117 50.33398438 26.51757812 C50.29905315 28.74153259 50.25001586 30.96417952 50.1875 33.1875 C50.8475 33.1875 51.5075 33.1875 52.1875 33.1875 C52.1875 32.5275 52.1875 31.8675 52.1875 31.1875 C52.8475 31.1875 53.5075 31.1875 54.1875 31.1875 C54.1875 29.5375 54.1875 27.8875 54.1875 26.1875 C61.61986473 24.83616096 69.74089316 23.61536355 76.75 26.8125 C80.23925465 30.21228658 81.98281602 33.46104097 82.55981445 38.32788086 C82.5568335 39.42495361 82.55385254 40.52202637 82.55078125 41.65234375 C82.54981445 43.47088867 82.54981445 43.47088867 82.54882812 45.32617188 C82.53271484 46.57978516 82.51660156 47.83339844 82.5 49.125 C82.50322266 50.37474609 82.50644531 51.62449219 82.50976562 52.91210938 C82.42848413 66.82602381 82.42848413 66.82602381 78.1875 73.1875 C79.5075 73.1875 80.8275 73.1875 82.1875 73.1875 C82.1875 83.0875 82.1875 92.9875 82.1875 103.1875 C81.5275 103.1875 80.8675 103.1875 80.1875 103.1875 C80.17332031 103.79335937 80.15914062 104.39921875 80.14453125 105.0234375 C79.74327232 112.07258087 77.72897121 117.1299985 74.1875 123.1875 C73.61 124.198125 73.0325 125.20875 72.4375 126.25 C66.23658359 134.34564087 58.76820816 141.0950957 49.6875 145.75 C48.03234375 146.61818359 48.03234375 146.61818359 46.34375 147.50390625 C36.28764822 151.96298671 25.79102013 152.66867574 14.9375 152.5625 C13.73609375 152.57410156 12.5346875 152.58570313 11.296875 152.59765625 C1.73889483 152.56621553 -5.33528841 150.63020731 -13.70703125 146.21875 C-16.06874169 145.06199387 -18.4722175 144.16388649 -20.9375 143.25 C-27.98228558 140.46435196 -32.33270455 135.76588276 -37.1484375 130.1015625 C-38.92090417 128.01034629 -38.92090417 128.01034629 -41.5 125.5625 C-47.8125 119.07939189 -47.8125 119.07939189 -47.8125 115.1875 C-48.4725 115.1875 -49.1325 115.1875 -49.8125 115.1875 C-54.67010574 104.67921004 -57.5 95.22511879 -57.5 83.5625 C-57.50644531 82.56863281 -57.51289062 81.57476562 -57.51953125 80.55078125 C-57.35421529 73.72690567 -56.29424585 66.64598733 -51.2409668 61.62646484 C-49.5480525 60.13405084 -49.5480525 60.13405084 -48.8125 57.1875 C-48.1525 57.1875 -47.4925 57.1875 -46.8125 57.1875 C-46.8125 56.5275 -46.8125 55.8675 -46.8125 55.1875 C-48.1325 55.1875 -49.4525 55.1875 -50.8125 55.1875 C-50.88674697 49.15521935 -50.9411483 43.12320568 -50.97729492 37.09057617 C-50.99236622 35.03909674 -51.01282682 32.98764944 -51.03881836 30.9362793 C-51.07527424 27.98478252 -51.09224306 25.03371237 -51.10546875 22.08203125 C-51.12095261 21.16726517 -51.13643646 20.25249908 -51.15238953 19.31001282 C-51.15366305 14.47365075 -51.06546004 11.05956714 -47.8125 7.1875 C-45.125 5.875 -45.125 5.875 -42.8125 5.1875 C-42.8125 4.5275 -42.8125 3.8675 -42.8125 3.1875 C-40.39553128 3.13338876 -37.97978213 3.09377722 -35.5625 3.0625 C-34.88058594 3.04574219 -34.19867188 3.02898438 -33.49609375 3.01171875 C-29.79147171 2.97575155 -26.88274552 2.97692323 -23.8125 5.1875 C-23.0625 7.3125 -23.0625 7.3125 -22.8125 9.1875 C-21.4925 9.5175 -20.1725 9.8475 -18.8125 10.1875 C-18.43738281 9.71699219 -18.06226563 9.24648438 -17.67578125 8.76171875 C-17.16402344 8.13910156 -16.65226562 7.51648437 -16.125 6.875 C-15.62613281 6.26011719 -15.12726563 5.64523438 -14.61328125 5.01171875 C-10.11937716 0.45932567 -6.22691278 -0.23239196 0 0 Z " fill="#FC2CF0" transform="translate(87.8125,27.8125)"/>
<path d="M0 0 C1.03930664 0.02030273 1.03930664 0.02030273 2.09960938 0.04101562 C3.79591265 0.07611155 5.49181136 0.12991057 7.1875 0.1875 C7.1875 0.8475 7.1875 1.5075 7.1875 2.1875 C8.1775 2.5175 9.1675 2.8475 10.1875 3.1875 C11.91838382 4.91838382 12.1875 6.82789008 12.1875 9.1875 C14.1475281 10.82426257 14.1475281 10.82426257 16.1875 12.1875 C16.765 11.218125 17.3425 10.24875 17.9375 9.25 C20.1875 6.1875 20.1875 6.1875 22.4375 5.3125 C23.015 5.27125 23.5925 5.23 24.1875 5.1875 C24.1875 4.5275 24.1875 3.8675 24.1875 3.1875 C29.54896742 0.50676629 38.51979673 1.64072014 44.375 2.625 C48.13526908 4.71403838 48.38112972 6.59636014 49.60522461 10.57397461 C50.58528717 14.97295561 50.50332253 19.26529199 50.375 23.75 C50.35469727 25.11995117 50.35469727 25.11995117 50.33398438 26.51757812 C50.29905315 28.74153259 50.25001586 30.96417952 50.1875 33.1875 C50.8475 33.1875 51.5075 33.1875 52.1875 33.1875 C52.1875 32.5275 52.1875 31.8675 52.1875 31.1875 C52.8475 31.1875 53.5075 31.1875 54.1875 31.1875 C54.1875 29.5375 54.1875 27.8875 54.1875 26.1875 C61.61986473 24.83616096 69.74089316 23.61536355 76.75 26.8125 C80.23925465 30.21228658 81.98281602 33.46104097 82.55981445 38.32788086 C82.5568335 39.42495361 82.55385254 40.52202637 82.55078125 41.65234375 C82.54981445 43.47088867 82.54981445 43.47088867 82.54882812 45.32617188 C82.53271484 46.57978516 82.51660156 47.83339844 82.5 49.125 C82.50322266 50.37474609 82.50644531 51.62449219 82.50976562 52.91210938 C82.42848413 66.82602381 82.42848413 66.82602381 78.1875 73.1875 C79.5075 73.1875 80.8275 73.1875 82.1875 73.1875 C82.1875 83.0875 82.1875 92.9875 82.1875 103.1875 C81.8575 103.1875 81.5275 103.1875 81.1875 103.1875 C81.1875 93.9475 81.1875 84.7075 81.1875 75.1875 C78.2175 76.8375 75.2475 78.4875 72.1875 80.1875 C66.77826314 80.76120694 62.24794221 80.19258088 57.1875 78.1875 C54.25 75.5625 54.25 75.5625 52.1875 73.1875 C49.02904996 74.54890088 47.29368229 75.98609228 45.1875 78.6875 C43.05113934 81.42761476 41.2976615 82.68425527 38.1875 84.1875 C37.8575 84.8475 37.5275 85.5075 37.1875 86.1875 C27.87147278 90.50855092 17.17428308 89.46692295 7.1875 89.1875 C7.1875 89.8475 7.1875 90.5075 7.1875 91.1875 C8.0228125 91.496875 8.0228125 91.496875 8.875 91.8125 C13.8861516 94.79210366 16.26902057 98.63277678 18 104.0625 C19.79453638 111.35154385 19.43980373 118.73986776 19.1875 126.1875 C17.8675 126.1875 16.5475 126.1875 15.1875 126.1875 C15.17332031 124.99253906 15.15914063 123.79757813 15.14453125 122.56640625 C14.90116554 112.66953413 14.67388647 104.82117202 7.44140625 97.39453125 C4.54489096 94.77209483 1.72751256 92.8529326 -1.8125 91.1875 C-1.8125 90.5275 -1.8125 89.8675 -1.8125 89.1875 C-2.42738281 89.19910156 -3.04226562 89.21070312 -3.67578125 89.22265625 C-4.48402344 89.23167969 -5.29226562 89.24070312 -6.125 89.25 C-6.92550781 89.26160156 -7.72601563 89.27320312 -8.55078125 89.28515625 C-10.8125 89.1875 -10.8125 89.1875 -13.8125 88.1875 C-13.8125 86.8675 -13.8125 85.5475 -13.8125 84.1875 C-12.61238281 84.16244385 -11.41226563 84.1373877 -10.17578125 84.11157227 C-5.69537882 84.01693466 -1.21511121 83.91685475 3.26513672 83.81518555 C5.19902376 83.77204872 7.13294369 83.73036004 9.06689453 83.69018555 C11.85719691 83.6319644 14.64733693 83.5684233 17.4375 83.50390625 C18.29303467 83.48719376 19.14856934 83.47048126 20.0300293 83.45326233 C25.14959877 83.32877422 30.11615741 82.90576979 35.1875 82.1875 C35.1875 81.5275 35.1875 80.8675 35.1875 80.1875 C36.39489046 79.076818 37.65484831 78.02284451 38.9375 77 C43.77694453 72.8126792 46.88220379 69.66964666 47.45703125 63.11328125 C47.49614925 60.10830764 47.47532527 57.17899544 47.1875 54.1875 C45.23088161 52.23088161 41.45378454 53.03040615 38.78125 53.02636719 C38.00552139 53.02140228 37.22979279 53.01643738 36.43055725 53.01132202 C33.84952927 52.99665212 31.26856292 52.98988744 28.6875 52.984375 C26.89444985 52.97862378 25.10139972 52.97286604 23.30834961 52.96710205 C19.53873406 52.95657581 15.76913991 52.95074502 11.99951172 52.94726562 C7.18559469 52.9418032 2.37196373 52.91783062 -2.44186401 52.88929367 C-6.15151774 52.87059328 -9.86110392 52.86545758 -13.57080078 52.86392975 C-15.34409128 52.86091508 -17.11738093 52.85292688 -18.890625 52.83974457 C-31.68213889 52.59040933 -31.68213889 52.59040933 -43.8125 56.1875 C-44.33900146 56.71688171 -44.86550293 57.24626343 -45.40795898 57.79168701 C-46.8125 59.1875 -46.8125 59.1875 -48.8125 59.1875 C-48.8125 58.5275 -48.8125 57.8675 -48.8125 57.1875 C-48.1525 57.1875 -47.4925 57.1875 -46.8125 57.1875 C-46.8125 56.5275 -46.8125 55.8675 -46.8125 55.1875 C-48.1325 55.1875 -49.4525 55.1875 -50.8125 55.1875 C-50.88674697 49.15521935 -50.9411483 43.12320568 -50.97729492 37.09057617 C-50.99236622 35.03909674 -51.01282682 32.98764944 -51.03881836 30.9362793 C-51.07527424 27.98478252 -51.09224306 25.03371237 -51.10546875 22.08203125 C-51.12095261 21.16726517 -51.13643646 20.25249908 -51.15238953 19.31001282 C-51.15366305 14.47365075 -51.06546004 11.05956714 -47.8125 7.1875 C-45.125 5.875 -45.125 5.875 -42.8125 5.1875 C-42.8125 4.5275 -42.8125 3.8675 -42.8125 3.1875 C-40.39553128 3.13338876 -37.97978213 3.09377722 -35.5625 3.0625 C-34.88058594 3.04574219 -34.19867188 3.02898438 -33.49609375 3.01171875 C-29.79147171 2.97575155 -26.88274552 2.97692323 -23.8125 5.1875 C-23.0625 7.3125 -23.0625 7.3125 -22.8125 9.1875 C-21.4925 9.5175 -20.1725 9.8475 -18.8125 10.1875 C-18.43738281 9.71699219 -18.06226563 9.24648438 -17.67578125 8.76171875 C-17.16402344 8.13910156 -16.65226562 7.51648437 -16.125 6.875 C-15.62613281 6.26011719 -15.12726563 5.64523438 -14.61328125 5.01171875 C-10.11937716 0.45932567 -6.22691278 -0.23239196 0 0 Z " fill="#4C0383" transform="translate(87.8125,27.8125)"/>
<path d="M0 0 C1.88138672 -0.10248047 1.88138672 -0.10248047 3.80078125 -0.20703125 C8.46029814 0.4954235 11.23575085 3.061987 14.14135742 6.64135742 C17.50093581 13.53186171 16.48830852 21.3909691 16.1875 28.875 C16.14731384 30.61645443 16.1108221 32.35799824 16.078125 34.09960938 C15.9973699 38.34127109 15.84090646 42.57038524 15.6875 46.8125 C5.4575 46.8125 -4.7725 46.8125 -15.3125 46.8125 C-15.3815497 41.7948883 -15.44122743 36.77893955 -15.47729492 31.76123047 C-15.49233738 30.05609537 -15.51277653 28.35099868 -15.53881836 26.64599609 C-15.57540284 24.18837988 -15.59227173 21.73127731 -15.60546875 19.2734375 C-15.62095261 18.51694916 -15.63643646 17.76046082 -15.65238953 16.98104858 C-15.65426427 11.02160845 -14.31597667 6.90018585 -10.08203125 2.48828125 C-6.5682437 0.3621672 -4.09440075 0.11292014 0 0 Z " fill="#FA2CEF" transform="translate(84.3125,29.1875)"/>
<path d="M0 0 C2.66246735 1.03268495 3.88613361 2.00357063 6 4 C6 4.66 6 5.32 6 6 C6.66 6 7.32 6 8 6 C8 7.32 8 8.64 8 10 C8.66 10 9.32 10 10 10 C10 21.88 10 33.76 10 46 C5.070625 46.020625 0.14125 46.04125 -4.9375 46.0625 C-7.2731604 46.07615601 -7.2731604 46.07615601 -9.65600586 46.09008789 C-11.47950562 46.09383423 -11.47950562 46.09383423 -13.33984375 46.09765625 C-14.59144287 46.10289307 -15.84304199 46.10812988 -17.13256836 46.11352539 C-20 46 -20 46 -21 45 C-21.22031557 40.72846986 -21.18578663 36.45096464 -21.18530273 32.17431641 C-21.18746304 30.03657328 -21.20553649 27.89936862 -21.22460938 25.76171875 C-21.25543218 18.60459117 -21.19766269 11.8611774 -19 5 C-16.375 3.4375 -16.375 3.4375 -14 3 C-14 2.34 -14 1.68 -14 1 C-9.82273825 -1.08863088 -4.548654 -0.44420449 0 0 Z " fill="#FC2CF0" transform="translate(126,30)"/>
<path d="M0 0 C5.12304004 2.33682528 6.85651932 4.90078433 9 10 C9.37231445 13.17211914 9.37231445 13.17211914 9.36328125 16.53515625 C9.36263672 17.75654297 9.36199219 18.97792969 9.36132812 20.23632812 C9.34521484 21.49896484 9.32910156 22.76160156 9.3125 24.0625 C9.31733398 25.96225586 9.31733398 25.96225586 9.32226562 27.90039062 C9.24845188 40.60306545 9.24845188 40.60306545 5.34375 44.765625 C4.43109375 45.50039062 4.43109375 45.50039062 3.5 46.25 C2.8915625 46.75015625 2.283125 47.2503125 1.65625 47.765625 C-2.49273644 50.85779414 -7.00326222 50.58831293 -12 50 C-15.125 48.125 -15.125 48.125 -17 46 C-17 45.34 -17 44.68 -17 44 C-17.66 44 -18.32 44 -19 44 C-19 43.01 -19 42.02 -19 41 C-19.66 41 -20.32 41 -21 41 C-21.1743253 36.58937831 -21.30065049 32.18063016 -21.38452148 27.76757812 C-21.41951417 26.26982662 -21.46712827 24.7723106 -21.52807617 23.27539062 C-22.08469226 9.24305226 -22.08469226 9.24305226 -17.59765625 4.03125 C-12.2935623 -0.92756645 -7.03707297 -0.65311396 0 0 Z " fill="#FB2BF1" transform="translate(161,53)"/>
<path d="M0 0 C1.74965358 -0.05429959 3.49979787 -0.09292823 5.25 -0.125 C6.22453125 -0.14820312 7.1990625 -0.17140625 8.203125 -0.1953125 C12.34634141 0.09401825 14.13875916 1.15874364 17.09375 4.04516602 C19.58128275 7.90103292 19.50743559 11.14884158 19.390625 15.58203125 C19.38496521 16.39621017 19.37930542 17.2103891 19.37347412 18.04924011 C19.35116774 20.63760353 19.30098445 23.2245584 19.25 25.8125 C19.22992747 27.57224556 19.21167802 29.33201293 19.1953125 31.09179688 C19.15132207 35.39507005 19.08233627 39.6972966 19 44 C14.71 44 10.42 44 6 44 C6 44.66 6 45.32 6 46 C2.7 46.99 -0.6 47.98 -4 49 C-4 49.66 -4 50.32 -4 51 C-4.99 51 -5.98 51 -7 51 C-7.09924533 45.28919484 -7.17164621 39.57889719 -7.21972656 33.86743164 C-7.23978028 31.92658742 -7.26703045 29.98580315 -7.30175781 28.04516602 C-7.35055175 25.24740768 -7.37303127 22.45045155 -7.390625 19.65234375 C-7.41127014 18.7916478 -7.43191528 17.93095184 -7.45318604 17.04417419 C-7.45533454 11.21060234 -6.46833594 7.74488712 -3 3 C-2.01 2.67 -1.02 2.34 0 2 C0 1.34 0 0.68 0 0 Z " fill="#FA2CEF" transform="translate(45,31)"/>
<path d="M0 0 C1.79838562 0.00051925 3.5967718 -0.00000096 5.39515686 -0.00151062 C9.14641902 -0.0014213 12.89746446 0.00893321 16.64868164 0.02709961 C21.46302476 0.04990041 26.27705494 0.05030601 31.09143734 0.04358196 C34.796522 0.0402479 38.50153485 0.04685951 42.20660591 0.0567112 C43.98287137 0.06056462 45.75914481 0.06171082 47.53541374 0.06012535 C50.00805931 0.05975596 52.48029647 0.07233535 54.95288086 0.08862305 C56.05700066 0.08490692 56.05700066 0.08490692 57.1834259 0.08111572 C62.24389911 0.13452411 62.24389911 0.13452411 64.47265625 2.36328125 C64.73828125 5.078125 64.73828125 5.078125 64.72265625 8.30078125 C64.73039062 9.89212891 64.73039062 9.89212891 64.73828125 11.515625 C64.47265625 14.36328125 64.47265625 14.36328125 62.47265625 17.36328125 C61.97765625 9.93828125 61.97765625 9.93828125 61.47265625 2.36328125 C51.22395669 2.42614392 40.97555976 2.50150576 30.72712994 2.59899616 C25.96857578 2.64376061 21.21010845 2.68300319 16.45141602 2.7097168 C11.86065329 2.73568937 7.27022359 2.77604845 2.67966652 2.82646751 C0.92659453 2.84317728 -0.82653512 2.8546659 -2.57967567 2.86089516 C-5.03174539 2.87049184 -7.48295517 2.89849645 -9.93481445 2.9309082 C-10.66273697 2.92947311 -11.39065948 2.92803802 -12.14064026 2.92655945 C-16.03722261 2.95570498 -16.03722261 2.95570498 -19.32218933 4.83561707 C-19.71989029 5.33974625 -20.11759125 5.84387543 -20.52734375 6.36328125 C-21.47609375 6.65203125 -22.42484375 6.94078125 -23.40234375 7.23828125 C-27.11230342 8.57386673 -28.84709111 10.53412569 -31.52734375 13.36328125 C-32.18734375 13.36328125 -32.84734375 13.36328125 -33.52734375 13.36328125 C-33.68203125 15.00296875 -33.68203125 15.00296875 -33.83984375 16.67578125 C-34.52734375 20.36328125 -34.52734375 20.36328125 -36.04296875 21.65234375 C-39.01341416 25.07617294 -38.01855992 30.15643037 -37.890625 34.484375 C-37.40212521 39.70029208 -35.83851435 43.72407019 -33.52734375 48.36328125 C-32.99753906 49.70519531 -32.99753906 49.70519531 -32.45703125 51.07421875 C-31.72982006 53.2904904 -31.72982006 53.2904904 -30.52734375 54.36328125 C-30.29447367 56.04512073 -30.11470209 57.73452285 -29.96484375 59.42578125 C-29.88105469 60.34488281 -29.79726563 61.26398438 -29.7109375 62.2109375 C-29.65035156 62.92121094 -29.58976562 63.63148438 -29.52734375 64.36328125 C-28.86734375 64.36328125 -28.20734375 64.36328125 -27.52734375 64.36328125 C-27.19734375 66.67328125 -26.86734375 68.98328125 -26.52734375 71.36328125 C-29.30977865 69.9720638 -30.0794444 68.06163913 -31.52734375 65.36328125 C-31.52734375 64.70328125 -31.52734375 64.04328125 -31.52734375 63.36328125 C-32.18734375 63.36328125 -32.84734375 63.36328125 -33.52734375 63.36328125 C-38.38494949 52.85499129 -41.21484375 43.40090004 -41.21484375 31.73828125 C-41.22128906 30.74441406 -41.22773437 29.75054687 -41.234375 28.7265625 C-41.04801887 21.03419546 -39.37186228 14.87677833 -34.484375 8.83984375 C-33.77667969 8.22882813 -33.06898437 7.6178125 -32.33984375 6.98828125 C-31.64503906 6.36179687 -30.95023438 5.7353125 -30.234375 5.08984375 C-20.88674262 -0.87213823 -10.64424718 -0.06072894 0 0 Z " fill="#C62ED4" transform="translate(71.52734375,79.63671875)"/>
<path d="M0 0 C5.12304004 2.33682528 6.85651932 4.90078433 9 10 C9.37231445 13.17211914 9.37231445 13.17211914 9.36328125 16.53515625 C9.36263672 17.75654297 9.36199219 18.97792969 9.36132812 20.23632812 C9.34521484 21.49896484 9.32910156 22.76160156 9.3125 24.0625 C9.31733398 25.96225586 9.31733398 25.96225586 9.32226562 27.90039062 C9.26266153 38.1577129 9.26266153 38.1577129 7 43 C6.67 43 6.34 43 6 43 C5.94465088 41.9805127 5.88930176 40.96102539 5.83227539 39.91064453 C5.62610878 36.1346738 5.41415701 32.35904635 5.20043945 28.58349609 C5.10868567 26.94816756 5.01850919 25.31274974 4.92993164 23.67724609 C4.80247168 21.32884973 4.66937591 18.98083099 4.53515625 16.6328125 C4.47727684 15.53273361 4.47727684 15.53273361 4.41822815 14.41043091 C4.24516575 10.57844911 4.24516575 10.57844911 3 7 C-1.34178783 5.4676043 -5.45008851 4.03193373 -10 5 C-14.03220222 8.46694023 -16.26194428 12.41176695 -16.875 17.6875 C-16.94851466 19.45729728 -16.9875262 21.22872046 -17 23 C-17.05607422 24.58941406 -17.05607422 24.58941406 -17.11328125 26.2109375 C-17.25974776 32.82505656 -16.73121777 38.61613449 -15 45 C-9.39 45.66 -3.78 46.32 2 47 C-2.54794722 50.41096041 -4.18969982 50.51461699 -9.58203125 50.36328125 C-12.97151222 49.85403774 -14.75644906 48.54269107 -17 46 C-17 45.34 -17 44.68 -17 44 C-17.66 44 -18.32 44 -19 44 C-19 43.01 -19 42.02 -19 41 C-19.66 41 -20.32 41 -21 41 C-21.1743253 36.58937831 -21.30065049 32.18063016 -21.38452148 27.76757812 C-21.41951417 26.26982662 -21.46712827 24.7723106 -21.52807617 23.27539062 C-22.08469226 9.24305226 -22.08469226 9.24305226 -17.59765625 4.03125 C-12.2935623 -0.92756645 -7.03707297 -0.65311396 0 0 Z " fill="#C82FD6" transform="translate(161,53)"/>
<path d="M0 0 C1.88138672 -0.10248047 1.88138672 -0.10248047 3.80078125 -0.20703125 C8.46029814 0.4954235 11.23575085 3.061987 14.14135742 6.64135742 C17.50093581 13.53186171 16.48830852 21.3909691 16.1875 28.875 C16.14731384 30.61645443 16.1108221 32.35799824 16.078125 34.09960938 C15.9973699 38.34127109 15.84090646 42.57038524 15.6875 46.8125 C5.4575 46.8125 -4.7725 46.8125 -15.3125 46.8125 C-15.3815497 41.7948883 -15.44122743 36.77893955 -15.47729492 31.76123047 C-15.49233738 30.05609537 -15.51277653 28.35099868 -15.53881836 26.64599609 C-15.57540284 24.18837988 -15.59227173 21.73127731 -15.60546875 19.2734375 C-15.62095261 18.51694916 -15.63643646 17.76046082 -15.65238953 16.98104858 C-15.65426427 11.02160845 -14.31597667 6.90018585 -10.08203125 2.48828125 C-6.5682437 0.3621672 -4.09440075 0.11292014 0 0 Z M-6.3125 6.8125 C-6.9725 7.4725 -7.6325 8.1325 -8.3125 8.8125 C-8.3125 10.1325 -8.3125 11.4525 -8.3125 12.8125 C-8.9725 12.8125 -9.6325 12.8125 -10.3125 12.8125 C-10.6425 12.1525 -10.9725 11.4925 -11.3125 10.8125 C-13.76536296 14.49179445 -13.54478878 16.28627907 -13.5078125 20.66796875 C-13.5049826 21.32960526 -13.50215271 21.99124176 -13.49923706 22.67292786 C-13.48805918 24.78213737 -13.46295981 26.89091925 -13.4375 29 C-13.42746707 30.43163448 -13.41834176 31.86327564 -13.41015625 33.29492188 C-13.38812795 36.80091977 -13.35361485 40.30666813 -13.3125 43.8125 C-9.7500173 43.84163821 -6.18756546 43.85934529 -2.625 43.875 C-1.61759766 43.88337891 -0.61019531 43.89175781 0.42773438 43.90039062 C1.40419922 43.90361328 2.38066406 43.90683594 3.38671875 43.91015625 C4.28221436 43.91539307 5.17770996 43.92062988 6.1003418 43.92602539 C8.72391759 43.81090198 11.13043053 43.39484285 13.6875 42.8125 C13.73703687 38.61329763 13.77328411 34.41425131 13.79736328 30.21484375 C13.80740427 28.78707922 13.82103981 27.35933517 13.83837891 25.93164062 C13.86271152 23.87625059 13.87400202 21.82113308 13.8828125 19.765625 C13.89328613 18.52973633 13.90375977 17.29384766 13.91455078 16.02050781 C13.70048081 12.99590629 13.28403159 11.34264349 11.6875 8.8125 C10.6975 8.8125 9.7075 8.8125 8.6875 8.8125 C8.3575 7.4925 8.0275 6.1725 7.6875 4.8125 C1.87969286 3.71101934 -1.13917057 3.48678822 -6.3125 6.8125 Z " fill="#DE37E2" transform="translate(84.3125,29.1875)"/>
<path d="M0 0 C1.44183672 0.09370427 2.87952966 0.25237943 4.3125 0.4375 C5.11300781 0.51871094 5.91351563 0.59992187 6.73828125 0.68359375 C10.00377915 2.58423761 10.46696567 4.84171059 11.48364258 8.38647461 C12.35415546 12.79254575 12.31551175 17.08865331 12.1875 21.5625 C12.16719727 22.93245117 12.16719727 22.93245117 12.14648438 24.33007812 C12.11155315 26.55403259 12.06251586 28.77667952 12 31 C12.66 31 13.32 31 14 31 C14 30.34 14 29.68 14 29 C14.66 29 15.32 29 16 29 C16 27.35 16 25.7 16 24 C17.65 24 19.3 24 21 24 C18.27901288 28.79412017 18.27901288 28.79412017 16.4128418 30.17114258 C14.14278002 33.10963105 14.63360157 36.39199869 14.70703125 39.94921875 C14.71339851 41.10814384 14.71339851 41.10814384 14.71989441 42.29048157 C14.73667817 44.75650992 14.77432853 47.22171896 14.8125 49.6875 C14.82754729 51.36001423 14.84123562 53.03254128 14.85351562 54.70507812 C14.88658054 58.80370078 14.93835972 62.90171151 15 67 C13.02 67.495 13.02 67.495 11 68 C11 68.66 11 69.32 11 70 C10.34 70 9.68 70 9 70 C9.01160156 68.73542969 9.02320313 67.47085938 9.03515625 66.16796875 C9.04453566 64.50781398 9.0536357 62.84765761 9.0625 61.1875 C9.07506836 59.93743164 9.07506836 59.93743164 9.08789062 58.66210938 C9.09111328 57.85966797 9.09433594 57.05722656 9.09765625 56.23046875 C9.10289307 55.49207764 9.10812988 54.75368652 9.11352539 53.99291992 C9.07523213 51.78942591 9.07523213 51.78942591 8 49 C-3.22 49 -14.44 49 -26 49 C-24.02 48.505 -24.02 48.505 -22 48 C-22 47.34 -22 46.68 -22 46 C-11.44 46 -0.88 46 10 46 C10 34.12 10 22.24 10 10 C9.34 10 8.68 10 8 10 C8 8.68 8 7.36 8 6 C7.34 6 6.68 6 6 6 C6 5.34 6 4.68 6 4 C5.195625 3.71125 4.39125 3.4225 3.5625 3.125 C1 2 1 2 0 0 Z " fill="#4A027F" transform="translate(126,30)"/>
<path d="M0 0 C1.125 3.75 1.125 3.75 0 6 C0.66 6 1.32 6 2 6 C2 5.34 2 4.68 2 4 C2.99 3.67 3.98 3.34 5 3 C5.66 2.01 6.32 1.02 7 0 C7 0.99 7 1.98 7 3 C7.66 3 8.32 3 9 3 C9.66 3.825 10.32 4.65 11 5.5 C14.74251721 8.61876434 16.82989352 8.6689764 21.56640625 8.4296875 C25.09394213 7.8068481 27.27560533 6.27032889 30 4 C30.78375 3.4225 31.5675 2.845 32.375 2.25 C32.91125 1.8375 33.4475 1.425 34 1 C33 3 32 5 31 7 C32.32 7 33.64 7 35 7 C35 16.9 35 26.8 35 37 C34.67 37 34.34 37 34 37 C34 27.76 34 18.52 34 9 C31.03 10.65 28.06 12.3 25 14 C19.59076314 14.57370694 15.06044221 14.00508088 10 12 C7.0625 9.375 7.0625 9.375 5 7 C1.84154996 8.36140088 0.10618229 9.79859228 -2 12.5 C-4.13636066 15.24011476 -5.8898385 16.49675527 -9 18 C-9.33 18.66 -9.66 19.32 -10 20 C-13.0625 20.625 -13.0625 20.625 -16 21 C-15.67 20.01 -15.34 19.02 -15 18 C-16.65 18 -18.3 18 -20 18 C-20 17.67 -20 17.34 -20 17 C-16.04 16.505 -16.04 16.505 -12 16 C-12 15.34 -12 14.68 -12 14 C-10.79260954 12.889318 -9.53265169 11.83534451 -8.25 10.8125 C-4.36651275 7.53494693 -2.22452039 4.54172912 0 0 Z " fill="#59108D" transform="translate(135,94)"/>
<path d="M0 0 C1.74965358 -0.05429959 3.49979787 -0.09292823 5.25 -0.125 C6.22453125 -0.14820312 7.1990625 -0.17140625 8.203125 -0.1953125 C12.34634141 0.09401825 14.13875916 1.15874364 17.09375 4.04516602 C19.58128275 7.90103292 19.50743559 11.14884158 19.390625 15.58203125 C19.38496521 16.39621017 19.37930542 17.2103891 19.37347412 18.04924011 C19.35116774 20.63760353 19.30098445 23.2245584 19.25 25.8125 C19.22992747 27.57224556 19.21167802 29.33201293 19.1953125 31.09179688 C19.15132207 35.39507005 19.08233627 39.6972966 19 44 C16.69 44 14.38 44 12 44 C12 43.67 12 43.34 12 43 C13.98 43 15.96 43 18 43 C17.93072101 38.71274024 17.8425654 34.42639105 17.73754883 30.13989258 C17.70447017 28.68427006 17.67638603 27.22852453 17.65356445 25.77270508 C17.61970079 23.66955564 17.5673764 21.56751625 17.51171875 19.46484375 C17.48553467 18.202771 17.45935059 16.94069824 17.43237305 15.64038086 C16.93262813 11.43276008 15.96386789 8.73852199 14 5 C11.13487957 3.92557984 9.05533672 4 6 4 C4.824375 3.814375 4.824375 3.814375 3.625 3.625 C0.28932461 4.10152506 -0.88844213 5.56989453 -2.9324646 8.15411377 C-4.84095558 11.45410478 -4.72644183 14.72709831 -4.70703125 18.4609375 C-4.72215256 19.25150543 -4.73727386 20.04207336 -4.75285339 20.8565979 C-4.79558346 23.36302539 -4.80455352 25.86824524 -4.8125 28.375 C-4.83565595 30.08206303 -4.86102358 31.78909757 -4.88867188 33.49609375 C-4.95137825 37.66416855 -4.98382826 41.83149543 -5 46 C0.445 45.505 0.445 45.505 6 45 C2.71536341 47.18975773 -0.20696275 47.99806563 -4 49 C-4 49.66 -4 50.32 -4 51 C-4.99 51 -5.98 51 -7 51 C-7.09924533 45.28919484 -7.17164621 39.57889719 -7.21972656 33.86743164 C-7.23978028 31.92658742 -7.26703045 29.98580315 -7.30175781 28.04516602 C-7.35055175 25.24740768 -7.37303127 22.45045155 -7.390625 19.65234375 C-7.41127014 18.7916478 -7.43191528 17.93095184 -7.45318604 17.04417419 C-7.45533454 11.21060234 -6.46833594 7.74488712 -3 3 C-2.01 2.67 -1.02 2.34 0 2 C0 1.34 0 0.68 0 0 Z " fill="#BB34D4" transform="translate(45,31)"/>
<path d="M0 0 C1.98 0 3.96 0 6 0 C6 0.66 6 1.32 6 2 C6.845625 2.185625 7.69125 2.37125 8.5625 2.5625 C15.16970482 5.32551292 19.15353191 10.40675862 22.21044922 16.75732422 C23.58180455 20.65258398 23.42283133 24.41852178 23.25 28.5 C23.23195313 29.32242188 23.21390625 30.14484375 23.1953125 30.9921875 C23.1487283 32.99530804 23.07700699 34.99781821 23 37 C24.32 37 25.64 37 27 37 C26.64335748 27.30916177 25.81640482 18.35258961 23 9 C23.66 9 24.32 9 25 9 C25.268125 9.639375 25.53625 10.27875 25.8125 10.9375 C26.88667752 13.33131686 26.88667752 13.33131686 30 14 C29.88995839 17.58395685 29.75936703 21.16687917 29.625 24.75 C29.57859375 26.27367187 29.57859375 26.27367187 29.53125 27.828125 C29.49257812 28.8078125 29.45390625 29.7875 29.4140625 30.796875 C29.3826416 31.69760742 29.3512207 32.59833984 29.31884766 33.52636719 C28.98862744 36.08822875 28.29048327 37.78127437 27 40 C22.25 39.125 22.25 39.125 20 38 C19.98541748 37.38479492 19.97083496 36.76958984 19.95581055 36.13574219 C19.88119423 33.33987146 19.7845802 30.54517713 19.6875 27.75 C19.66494141 26.78191406 19.64238281 25.81382812 19.61914062 24.81640625 C19.5659668 23.41455078 19.5659668 23.41455078 19.51171875 21.984375 C19.48553467 21.12553711 19.45935059 20.26669922 19.43237305 19.38183594 C18.92041884 16.56160711 17.78124901 15.2004187 16 13 C16 12.34 16 11.68 16 11 C13.69 10.67 11.38 10.34 9 10 C8.79375 9.21625 8.5875 8.4325 8.375 7.625 C7.21128486 4.68861556 7.21128486 4.68861556 3.9375 3.875 C2.968125 3.58625 1.99875 3.2975 1 3 C0.67 2.01 0.34 1.02 0 0 Z " fill="#BF30D1" transform="translate(80,117)"/>
<path d="M0 0 C0 0.66 0 1.32 0 2 C1.093125 2.04125 2.18625 2.0825 3.3125 2.125 C7 3 7 3 8.70776367 5.64624023 C10.08011653 9.20792761 10.3734886 11.73498663 10.36328125 15.53515625 C10.36263672 16.75654297 10.36199219 17.97792969 10.36132812 19.23632812 C10.34521484 20.49896484 10.32910156 21.76160156 10.3125 23.0625 C10.31733398 24.96225586 10.31733398 24.96225586 10.32226562 26.90039062 C10.26266153 37.1577129 10.26266153 37.1577129 8 42 C7.67 42 7.34 42 7 42 C6.94465088 40.9805127 6.88930176 39.96102539 6.83227539 38.91064453 C6.62610878 35.1346738 6.41415701 31.35904635 6.20043945 27.58349609 C6.10868567 25.94816756 6.01850919 24.31274974 5.92993164 22.67724609 C5.80247168 20.32884973 5.66937591 17.98083099 5.53515625 15.6328125 C5.47727684 14.53273361 5.47727684 14.53273361 5.41822815 13.41043091 C5.24516575 9.57844911 5.24516575 9.57844911 4 6 C-0.34178783 4.4676043 -4.45008851 3.03193373 -9 4 C-13.37743255 7.76377378 -15.29874577 11.80238779 -15.875 17.5 C-15.94272813 18.99904937 -15.99385014 20.49943401 -16 22 C-16.33 22 -16.66 22 -17 22 C-17.78818607 10.03708694 -17.78818607 10.03708694 -14.625 5.875 C-13.75875 5.25625 -12.8925 4.6375 -12 4 C-11.34 3.01 -10.68 2.02 -10 1 C-6.64574405 0.00278877 -3.48292433 -0.09951212 0 0 Z " fill="#C834D8" transform="translate(160,54)"/>
<path d="M0 0 C2.76276177 0.52268466 5.3260876 1.10869587 8 2 C8.6875 4.0625 8.6875 4.0625 9 6 C12.04913228 7.01111093 12.04913228 7.01111093 15 6 C14.67 6.99 14.34 7.98 14 9 C13.84653047 11.65606301 13.74282102 14.29095095 13.68359375 16.94921875 C13.66281265 17.72183548 13.64203156 18.49445221 13.62062073 19.29048157 C13.55528962 21.7560648 13.49631685 24.22175361 13.4375 26.6875 C13.39429913 28.36003691 13.35068434 30.03256319 13.30664062 31.70507812 C13.1996251 35.8032775 13.09831143 39.90158296 13 44 C12.67 44 12.34 44 12 44 C11.505 31.13 11.505 31.13 11 18 C10.67 26.91 10.34 35.82 10 45 C4.555 45.495 4.555 45.495 -1 46 C-4.08143623 46.70745584 -4.08143623 46.70745584 -6.5625 47.625 C-9.00390625 48.4765625 -9.00390625 48.4765625 -11 49 C-11.66 48.67 -12.32 48.34 -13 48 C-10.09399739 46.74335022 -8.20395416 46 -5 46 C-5 45.34 -5 44.68 -5 44 C-0.71 44 3.58 44 8 44 C7.95578871 38.82156227 7.88589534 33.64433706 7.79248047 28.46655273 C7.76430501 26.70623439 7.74307341 24.94579033 7.72900391 23.18530273 C7.70752627 20.65022589 7.66085408 18.1166549 7.609375 15.58203125 C7.60814636 14.79850784 7.60691772 14.01498444 7.60565186 13.2077179 C7.47310815 8.23099967 6.71890541 5.6137251 3 2 C2.01 1.34 1.02 0.68 0 0 Z " fill="#650E93" transform="translate(56,31)"/>
<path d="M0 0 C15.18 0 30.36 0 46 0 C45.67 0.99 45.34 1.98 45 3 C36.42 3 27.84 3 19 3 C19 4.32 19 5.64 19 7 C16.39533457 6.69127671 13.79132309 6.37818277 11.1875 6.0625 C10.44951172 5.97548828 9.71152344 5.88847656 8.95117188 5.79882812 C5.83266879 5.41783454 2.98891878 4.99630626 0 4 C0 2.68 0 1.36 0 0 Z " fill="#530784" transform="translate(74,112)"/>
<path d="M0 0 C0.66 0 1.32 0 2 0 C2 1.32 2 2.64 2 4 C2.66 4 3.32 4 4 4 C4 15.88 4 27.76 4 40 C-0.929375 40.020625 -5.85875 40.04125 -10.9375 40.0625 C-13.2731604 40.07615601 -13.2731604 40.07615601 -15.65600586 40.09008789 C-17.47950562 40.09383423 -17.47950562 40.09383423 -19.33984375 40.09765625 C-20.59144287 40.10289307 -21.84304199 40.10812988 -23.13256836 40.11352539 C-26 40 -26 40 -27 39 C-27.08790975 36.70848583 -27.10694038 34.41427476 -27.09765625 32.12109375 C-27.0962413 31.4344313 -27.09482635 30.74776886 -27.09336853 30.04029846 C-27.08775479 27.83932199 -27.07520007 25.63844591 -27.0625 23.4375 C-27.05748676 21.94856917 -27.05292355 20.45963676 -27.04882812 18.97070312 C-27.03778093 15.31376925 -27.02050713 11.65689442 -27 8 C-26.67 8 -26.34 8 -26 8 C-26 17.9 -26 27.8 -26 38 C-16.76 38 -7.52 38 2 38 C1.87987186 33.39167989 1.75711695 28.78358375 1.62768555 24.17553711 C1.58447661 22.60917264 1.54279209 21.04276533 1.50268555 19.47631836 C1.44464129 17.2197582 1.38104698 14.96341092 1.31640625 12.70703125 C1.29969376 12.01100296 1.28298126 11.31497467 1.26576233 10.59785461 C1.15591581 6.96127203 0.84278009 3.54207573 0 0 Z " fill="#BB33CF" transform="translate(132,36)"/>
<path d="M0 0 C1.59134766 -0.03867187 1.59134766 -0.03867187 3.21484375 -0.078125 C6.0625 0.25 6.0625 0.25 7.94140625 1.765625 C8.31136719 2.25546875 8.68132812 2.7453125 9.0625 3.25 C4.68315881 2.73041715 0.37446609 2.19324258 -3.9375 1.25 C-3.9375 2.24 -3.9375 3.23 -3.9375 4.25 C-6.84350261 5.50664978 -8.73354584 6.25 -11.9375 6.25 C-11.9375 18.13 -11.9375 30.01 -11.9375 42.25 C-3.6875 42.58 4.5625 42.91 13.0625 43.25 C13.0625 32.69 13.0625 22.13 13.0625 11.25 C13.3925 11.25 13.7225 11.25 14.0625 11.25 C14.0625 22.14 14.0625 33.03 14.0625 44.25 C4.8225 44.25 -4.4175 44.25 -13.9375 44.25 C-13.98349373 39.35677814 -14.02329409 34.46431096 -14.04736328 29.57104492 C-14.05740057 27.90760756 -14.07103331 26.24418775 -14.08837891 24.58081055 C-14.11272749 22.18533995 -14.12400588 19.79010332 -14.1328125 17.39453125 C-14.14313507 16.6547554 -14.15345764 15.91497955 -14.16409302 15.15278625 C-14.16496836 11.09453043 -13.90892027 7.84193632 -11.9375 4.25 C-9.8125 3.4375 -9.8125 3.4375 -7.9375 3.25 C-7.9375 2.59 -7.9375 1.93 -7.9375 1.25 C-5.23187257 -0.10281371 -3.01856345 0.04390638 0 0 Z " fill="#ED35E9" transform="translate(119.9375,29.75)"/>
<path d="M0 0 C3.32635882 1.52572656 4.95563002 2.93344504 7 6 C4.03 5.67 1.06 5.34 -2 5 C-3.94679922 10.47621693 -3.94679922 10.47621693 -3 16 C-3.99 16.495 -3.99 16.495 -5 17 C-7.625 16.0625 -7.625 16.0625 -10 15 C-10 15.66 -10 16.32 -10 17 C-10.94875 16.979375 -11.8975 16.95875 -12.875 16.9375 C-15.90666283 16.77448174 -15.90666283 16.77448174 -18 18 C-19.52148326 18.08372659 -21.04655778 18.10730027 -22.5703125 18.09765625 C-23.46621094 18.09443359 -24.36210938 18.09121094 -25.28515625 18.08789062 C-26.22230469 18.07951172 -27.15945312 18.07113281 -28.125 18.0625 C-29.06988281 18.05798828 -30.01476562 18.05347656 -30.98828125 18.04882812 C-33.32558387 18.03702357 -35.66276061 18.02055759 -38 18 C-37.484375 18.94875 -36.96875 19.8975 -36.4375 20.875 C-35.963125 21.90625 -35.48875 22.9375 -35 24 C-35.33 24.66 -35.66 25.32 -36 26 C-37.23697917 24.47005208 -38.47395833 22.94010417 -39.7109375 21.41015625 C-40.9666391 19.86733563 -40.9666391 19.86733563 -43 19 C-43 18.34 -43 17.68 -43 17 C-41.70964844 16.95101562 -40.41929688 16.90203125 -39.08984375 16.8515625 C-37.37237653 16.77648197 -35.65492959 16.70093646 -33.9375 16.625 C-33.08994141 16.5940625 -32.24238281 16.563125 -31.36914062 16.53125 C-26.23523706 16.29338574 -21.90222691 15.50555284 -17 14 C-15.68 14 -14.36 14 -13 14 C-12.67 13.01 -12.34 12.02 -12 11 C-10.57405599 10.07147832 -9.14551382 9.14649283 -7.69921875 8.25 C-4.62628233 5.98944907 -2.3558611 2.97406578 0 0 Z " fill="#CA3ADA" transform="translate(138,100)"/>
<path d="M0 0 C4.95 0 9.9 0 15 0 C15 0.66 15 1.32 15 2 C15.99 2.33 16.98 2.66 18 3 C19.73088382 4.73088382 20 6.64039008 20 9 C20.65194336 9.54430664 21.30388672 10.08861328 21.97558594 10.64941406 C24.72892401 13.84636763 24.50889854 16.59234395 24.390625 20.609375 C24.38496521 21.33618469 24.37930542 22.06299438 24.37347412 22.81182861 C24.35114553 25.12523245 24.30096048 27.4370672 24.25 29.75 C24.22993023 31.32159216 24.21168029 32.89320868 24.1953125 34.46484375 C24.15129293 38.31049717 24.08229375 42.15498289 24 46 C23.34 46 22.68 46 22 46 C22.00636475 45.07775635 22.01272949 44.1555127 22.01928711 43.20532227 C22.02645952 39.74322142 22.00213425 36.28418121 21.95727539 32.82250977 C21.94423329 31.33200679 21.9433113 29.84134172 21.95532227 28.35083008 C22.01563119 19.78409132 21.85727686 13.19060125 15.69360352 6.58178711 C15.13471436 6.05979736 14.5758252 5.53780762 14 5 C13.34 4.34 12.68 3.68 12 3 C8.87803664 2.53513282 8.87803664 2.53513282 5.375 2.375 C4.18648438 2.30023437 2.99796875 2.22546875 1.7734375 2.1484375 C0.85820313 2.09945313 -0.05703125 2.05046875 -1 2 C-0.67 1.34 -0.34 0.68 0 0 Z " fill="#3C0076" transform="translate(80,28)"/>
<path d="M0 0 C0.08834886 4.41653692 0.14083987 8.83284148 0.1875 13.25 C0.21263672 14.48492187 0.23777344 15.71984375 0.26367188 16.9921875 C0.32778359 25.11300508 -0.60514805 32.23495578 -3 40 C-3.33 40 -3.66 40 -4 40 C-3.9278125 39.21238281 -3.855625 38.42476562 -3.78125 37.61328125 C-2.41465924 24.42248252 -2.41465924 24.42248252 -3.5703125 11.3125 C-4 9 -4 9 -3 6 C-8.61 6 -14.22 6 -20 6 C-20.33 5.34 -20.66 4.68 -21 4 C-20.21496094 4.04640625 -19.42992187 4.0928125 -18.62109375 4.140625 C-11.40718219 4.38846491 -5.96405869 0 0 0 Z " fill="#DF36E3" transform="translate(169,103)"/>
<path d="M0 0 C1.44183672 0.09370427 2.87952966 0.25237943 4.3125 0.4375 C5.11300781 0.51871094 5.91351563 0.59992187 6.73828125 0.68359375 C10.00377915 2.58423761 10.46696567 4.84171059 11.48364258 8.38647461 C12.35415546 12.79254575 12.31551175 17.08865331 12.1875 21.5625 C12.17396484 22.47580078 12.16042969 23.38910156 12.14648438 24.33007812 C12.11155315 26.55403259 12.06251586 28.77667952 12 31 C12.66 31 13.32 31 14 31 C14 30.34 14 29.68 14 29 C14.66 29 15.32 29 16 29 C16 27.35 16 25.7 16 24 C17.65 24 19.3 24 21 24 C19.27624207 27.35175153 18.0745385 28.95080459 14.875 31.0625 C12.4095075 32.9421329 12.02625592 33.87141331 11.390625 36.984375 C11.15004584 39.99869036 11.00964389 42.9766409 11 46 C10.67 46 10.34 46 10 46 C10 34.12 10 22.24 10 10 C9.34 10 8.68 10 8 10 C8 8.68 8 7.36 8 6 C7.34 6 6.68 6 6 6 C6 5.34 6 4.68 6 4 C5.195625 3.71125 4.39125 3.4225 3.5625 3.125 C1 2 1 2 0 0 Z " fill="#64088D" transform="translate(126,30)"/>
<path d="M0 0 C3.28452224 0.56629694 5.01011587 1.28652164 7 4 C9.09456251 9.93591111 9.52081986 15.67694509 9.8125 21.9375 C9.87630859 22.88818359 9.94011719 23.83886719 10.00585938 24.81835938 C10.31133958 31.06134219 9.53824012 35.29214847 7 41 C6.62033354 42.65672637 6.26239024 44.32070245 6 46 C4.68 46 3.36 46 2 46 C2.309375 45.46375 2.61875 44.9275 2.9375 44.375 C6.02502584 37.47347166 5.18371322 29.39178852 5.1875 22 C5.19974609 20.741875 5.21199219 19.48375 5.22460938 18.1875 C5.22654297 16.970625 5.22847656 15.75375 5.23046875 14.5 C5.23457764 13.3965625 5.23868652 12.293125 5.24291992 11.15625 C4.98199523 7.76606471 4.37369256 5.11046306 3 2 C2.01 1.67 1.02 1.34 0 1 C0 0.67 0 0.34 0 0 Z " fill="#410278" transform="translate(164,55)"/>
<path d="M0 0 C0.66 0 1.32 0 2 0 C-0.3463362 11.26241374 -9.79454742 20.5561832 -19 27 C-26.15277778 31 -26.15277778 31 -29 31 C-27.79665187 27.3899556 -26.75648072 26.89171412 -23.625 24.875 C-22.83351562 24.35679687 -22.04203125 23.83859375 -21.2265625 23.3046875 C-19 22 -19 22 -16 21 C-16 20.34 -16 19.68 -16 19 C-15.34 19 -14.68 19 -14 19 C-14 18.34 -14 17.68 -14 17 C-13.01 17 -12.02 17 -11 17 C-11 16.34 -11 15.68 -11 15 C-10.34 15 -9.68 15 -9 15 C-9 14.34 -9 13.68 -9 13 C-8.34 13 -7.68 13 -7 13 C-6.938125 11.948125 -6.87625 10.89625 -6.8125 9.8125 C-5.86112524 5.3483569 -4.41897929 3.9061324 -1 1 C-0.67 0.67 -0.34 0.34 0 0 Z " fill="#D237DF" transform="translate(163,143)"/>
<path d="M0 0 C0.66 0.99 1.32 1.98 2 3 C0.5484451 4.67257355 -0.91144409 6.33791758 -2.375 8 C-3.18710938 8.928125 -3.99921875 9.85625 -4.8359375 10.8125 C-5.55007812 11.534375 -6.26421875 12.25625 -7 13 C-7.66 13 -8.32 13 -9 13 C-9 13.66 -9 14.32 -9 15 C-15.06970164 16.76829009 -20.44746755 17.27135657 -26.75 17.1953125 C-27.64871826 17.1924826 -28.54743652 17.18965271 -29.47338867 17.18673706 C-32.31573365 17.17563125 -35.15775186 17.15054505 -38 17.125 C-39.9387975 17.11495777 -41.87759999 17.10583411 -43.81640625 17.09765625 C-48.54439482 17.07572345 -53.2721422 17.04126084 -58 17 C-58 18.32 -58 19.64 -58 21 C-57.01 21.33 -56.02 21.66 -55 22 C-56.32 22 -57.64 22 -59 22 C-59 20.02 -59 18.04 -59 16 C-57.9805127 15.98018066 -56.96102539 15.96036133 -55.91064453 15.93994141 C-52.13467352 15.86397192 -48.35909227 15.77524191 -44.58349609 15.68261719 C-42.9481576 15.64429148 -41.31273376 15.60944493 -39.67724609 15.578125 C-37.3287909 15.53255158 -34.98092505 15.47454633 -32.6328125 15.4140625 C-31.89942657 15.40251129 -31.16604065 15.39096008 -30.41043091 15.37905884 C-26.25022895 15.38131903 -26.25022895 15.38131903 -23 13 C-20.22308229 12.85895021 -17.50355761 13.00523741 -14.7265625 13.125 C-11.8804348 12.9945185 -10.36348462 12.55407208 -8 11 C-7.67 10.34 -7.34 9.68 -7 9 C-5.75491604 6.50983207 -4.53283204 6.01313282 -2 5 C-2 4.01 -2 3.02 -2 2 C-1.34 2 -0.68 2 0 2 C0 1.34 0 0.68 0 0 Z " fill="#C52FD1" transform="translate(132,95)"/>
<path d="M0 0 C17.82 0 35.64 0 54 0 C55.44207941 2.88415883 55.09394887 5.41721528 55.0625 8.625 C55.05347656 9.81351563 55.04445312 11.00203125 55.03515625 12.2265625 C55.02355469 13.14179687 55.01195312 14.05703125 55 15 C54.67 15 54.34 15 54 15 C54 11.04 54 7.08 54 3 C49.70857306 2.80383773 45.417098 2.61782154 41.125 2.4375 C39.92101562 2.38142578 38.71703125 2.32535156 37.4765625 2.26757812 C31.20619445 2.01199247 25.20530953 1.98325886 18.98388672 2.86352539 C17 3 17 3 14 2 C11.42734182 1.92970879 8.88358569 1.90629168 6.3125 1.9375 C5.61060547 1.94201172 4.90871094 1.94652344 4.18554688 1.95117188 C2.45699462 1.96293073 0.72848635 1.98086546 -1 2 C-0.67 1.34 -0.34 0.68 0 0 Z " fill="#F132E9" transform="translate(79,82)"/>
<path d="M0 0 C1.35490659 2.70981319 0.59281631 4.03591843 0 7 C-0.08080894 9.49499771 -0.10760161 11.99199506 -0.09765625 14.48828125 C-0.0962413 15.19147995 -0.09482635 15.89467865 -0.09336853 16.6191864 C-0.08780109 18.85033544 -0.07525475 21.08138164 -0.0625 23.3125 C-0.05748079 24.83137875 -0.05291862 26.35025909 -0.04882812 27.86914062 C-0.03784236 31.57946012 -0.02060034 35.28972001 0 39 C-1.98 39 -3.96 39 -6 39 C-6 27.12 -6 15.24 -6 3 C-4 5 -4 5 -3.77294922 8.16455078 C-3.77326611 9.50817963 -3.78457819 10.8518341 -3.8046875 12.1953125 C-3.8075174 12.90275604 -3.81034729 13.61019958 -3.81326294 14.33908081 C-3.82446863 16.6012251 -3.84957321 18.86297515 -3.875 21.125 C-3.88502933 22.65754637 -3.89415526 24.19009894 -3.90234375 25.72265625 C-3.92440914 29.48192301 -3.95894104 33.24089464 -4 37 C-3.34 37 -2.68 37 -2 37 C-2.01047363 35.98574951 -2.02094727 34.97149902 -2.03173828 33.92651367 C-2.06793589 30.16385426 -2.09089956 26.40121024 -2.10986328 22.63842773 C-2.11992142 21.00982068 -2.13356958 19.38123168 -2.15087891 17.75268555 C-2.17513574 15.41190128 -2.18648483 13.07135576 -2.1953125 10.73046875 C-2.20563507 10.00224411 -2.21595764 9.27401947 -2.22659302 8.52372742 C-2.22742249 4.78724931 -2.12883296 3.19324944 0 0 Z " fill="#6C0F97" transform="translate(106,37)"/>
<path d="M0 0 C0.67611328 -0.00708984 1.35222656 -0.01417969 2.04882812 -0.02148438 C4.01171875 0.00390625 4.01171875 0.00390625 7.3125 0.4375 C7.9725 1.4275 8.6325 2.4175 9.3125 3.4375 C8.45527344 3.33050781 7.59804687 3.22351562 6.71484375 3.11328125 C-2.50620212 1.94411552 -2.50620212 1.94411552 -10.6875 5.4375 C-14.73212842 13.02473037 -14.02565315 21.08619896 -13.875 29.4375 C-13.85992741 30.89451743 -13.84624355 32.35154993 -13.83398438 33.80859375 C-13.80374845 37.35224384 -13.74500039 40.89377232 -13.6875 44.4375 C-4.1175 44.7675 5.4525 45.0975 15.3125 45.4375 C15.3125 45.7675 15.3125 46.0975 15.3125 46.4375 C5.0825 46.4375 -5.1475 46.4375 -15.6875 46.4375 C-15.7565497 41.4198883 -15.81622743 36.40393955 -15.85229492 31.38623047 C-15.86733738 29.68109537 -15.88777653 27.97599868 -15.91381836 26.27099609 C-15.95040284 23.81337988 -15.96727173 21.35627731 -15.98046875 18.8984375 C-15.99595261 18.14194916 -16.01143646 17.38546082 -16.02738953 16.60604858 C-16.02926589 10.64146901 -14.66634447 6.54243013 -10.48046875 2.08984375 C-6.82156876 -0.07479219 -4.22694652 -0.0621001 0 0 Z " fill="#AD2FC6" transform="translate(84.6875,29.5625)"/>
<path d="M0 0 C0 3 0 3 -2 6 C-0.68 6 0.64 6 2 6 C2 15.9 2 25.8 2 36 C1.67 36 1.34 36 1 36 C1 26.76 1 17.52 1 8 C-1.97 9.65 -4.94 11.3 -8 13 C-13.47439243 13.58061738 -17.89939415 12.87369195 -23 11 C-23.33 10.34 -23.66 9.68 -24 9 C-23.38125 9.165 -22.7625 9.33 -22.125 9.5 C-17.74529271 10.20075317 -13.42571011 10.07734251 -9 10 C-11.64 9.67 -14.28 9.34 -17 9 C-17 8.67 -17 8.34 -17 8 C-16.03900391 7.88785156 -16.03900391 7.88785156 -15.05859375 7.7734375 C-8.43147127 6.76603587 -4.61329397 4.85770689 0 0 Z " fill="#70139B" transform="translate(168,95)"/>
<path d="M0 0 C10.54381312 -0.02312343 21.08762025 -0.04091509 31.63145351 -0.05181217 C36.52685374 -0.057041 41.42223668 -0.06413864 46.31762695 -0.07543945 C51.03787978 -0.08626834 55.75811592 -0.09227684 60.4783802 -0.09487724 C62.28338954 -0.09673149 64.08839792 -0.10035209 65.89340019 -0.10573006 C68.41259644 -0.11294052 70.9317229 -0.11399094 73.45092773 -0.11352539 C74.20474228 -0.11712067 74.95855682 -0.12071594 75.73521423 -0.12442017 C80.88594784 -0.11405216 80.88594784 -0.11405216 82 1 C82.12548989 2.95530764 82.17575363 4.91570479 82.1875 6.875 C82.20167969 7.94492188 82.21585937 9.01484375 82.23046875 10.1171875 C82 13 82 13 80 16 C79.505 8.575 79.505 8.575 79 1 C52.93 1 26.86 1 0 1 C0 0.67 0 0.34 0 0 Z " fill="#E234E4" transform="translate(54,81)"/>
<path d="M0 0 C4.06962402 1.23035145 7.38325151 2.78976481 11 5 C11.66 5 12.32 5 13 5 C13.268125 5.969375 13.53625 6.93875 13.8125 7.9375 C14.204375 8.948125 14.59625 9.95875 15 11 C15.99 11.33 16.98 11.66 18 12 C19.0725 12.495 20.145 12.99 21.25 13.5 C24.7746506 15.04062553 28.16673021 15.60885002 32 16 C32 16.66 32 17.32 32 18 C33.32 18.66 34.64 19.32 36 20 C30.6201034 19.61572167 26.85720442 18.68268273 22.140625 16.1015625 C19.77296542 14.88316834 17.37285624 13.98236921 14.875 13.0625 C7.90059672 10.31338705 3.85867041 6.38164721 0 0 Z " fill="#BC31D0" transform="translate(52,158)"/>
<path d="M0 0 C-8.46907904 7.22291997 -21.3261437 6.40240693 -31.8125 6.1875 C-33.08931641 6.17396484 -34.36613281 6.16042969 -35.68164062 6.14648438 C-38.78822548 6.11157893 -41.89387016 6.06255244 -45 6 C-45.33 5.34 -45.66 4.68 -46 4 C-44.96069336 3.9498877 -43.92138672 3.89977539 -42.85058594 3.84814453 C-38.98860767 3.65956364 -35.12731271 3.4592303 -31.26611328 3.25537109 C-29.59602868 3.16883653 -27.9257765 3.0854747 -26.25537109 3.00537109 C-23.85202574 2.88956445 -21.44951746 2.76229754 -19.046875 2.6328125 C-18.30193787 2.59938751 -17.55700073 2.56596252 -16.78948975 2.53152466 C-10.66611454 2.18278721 -6.22654135 -0.23948236 0 0 Z " fill="#B02DCB" transform="translate(134,174)"/>
<path d="M0 0 C0.33 0.99 0.66 1.98 1 3 C-0.14453125 4.82421875 -0.14453125 4.82421875 -1.8125 6.6875 C-2.35519531 7.31011719 -2.89789063 7.93273437 -3.45703125 8.57421875 C-5 10 -5 10 -7 10 C-7 10.66 -7 11.32 -7 12 C-8.8125 14.125 -8.8125 14.125 -11 16 C-11.99 16 -12.98 16 -14 16 C-14.33 16.99 -14.66 17.98 -15 19 C-18.44847383 21.52003857 -21.86573995 21.15901 -26 21 C-26.33 21.66 -26.66 22.32 -27 23 C-27.66 22.34 -28.32 21.68 -29 21 C-28.05640625 20.55011719 -27.1128125 20.10023438 -26.140625 19.63671875 C-16.68641086 14.95969614 -9.39894578 9.48717852 -2 2 C-1.34 1.34 -0.68 0.68 0 0 Z " fill="#550989" transform="translate(159,155)"/>
<path d="M0 0 C8.58 0 17.16 0 26 0 C26 0.33 26 0.66 26 1 C21.08497242 2.29235715 16.22709898 2.11135517 11.1875 2.0625 C10.30384766 2.05798828 9.42019531 2.05347656 8.50976562 2.04882812 C6.33981441 2.03709866 4.16989828 2.01916495 2 2 C2 2.66 2 3.32 2 4 C3.32 4.66 4.64 5.32 6 6 C6 6.99 6 7.98 6 9 C5.34 8.34 4.68 7.68 4 7 C3.67 8.32 3.34 9.64 3 11 C2.0925 10.236875 1.185 9.47375 0.25 8.6875 C-2.114556 6.71516893 -4.51305942 4.81737966 -7 3 C-4.69 3.33 -2.38 3.66 0 4 C0 2.68 0 1.36 0 0 Z " fill="#6C1295" transform="translate(93,115)"/>
<path d="M0 0 C-0.99 0.33 -1.98 0.66 -3 1 C-4.20882096 3.00016466 -4.20882096 3.00016466 -5 5 C-9.36032391 4.90640959 -13.72010939 4.80030419 -18.07983398 4.68261719 C-19.56282212 4.64434653 -21.04590248 4.60949022 -22.52905273 4.578125 C-24.66163072 4.532432 -26.79357491 4.47444662 -28.92578125 4.4140625 C-30.85031128 4.36693115 -30.85031128 4.36693115 -32.8137207 4.31884766 C-36 4 -36 4 -39 2 C-38.19892822 1.98018066 -37.39785645 1.96036133 -36.57250977 1.93994141 C-32.90220652 1.84400309 -29.23241955 1.73460437 -25.5625 1.625 C-24.30244141 1.5940625 -23.04238281 1.563125 -21.74414062 1.53125 C-16.35489409 1.36239632 -4.40813123 -2.20406561 0 0 Z " fill="#430381" transform="translate(128,178)"/>
<path d="M0 0 C0 0.33 0 0.66 0 1 C-0.8353125 1.00386719 -0.8353125 1.00386719 -1.6875 1.0078125 C-10.24769356 1.44160609 -15.32593921 5.85310081 -21 12 C-22.32 11.34 -23.64 10.68 -25 10 C-25 8.68 -25 7.36 -25 6 C-26.32 5.67 -27.64 5.34 -29 5 C-25.37673261 3.7922442 -24.35853631 4.45688872 -21 6 C-21 5.34 -21 4.68 -21 4 C-14.60428047 -0.70273495 -7.58557742 -0.13492134 0 0 Z " fill="#360176" transform="translate(89,27)"/>
<path d="M0 0 C1.74965358 -0.05429959 3.49979787 -0.09292823 5.25 -0.125 C6.22453125 -0.14820312 7.1990625 -0.17140625 8.203125 -0.1953125 C12.34634141 0.09401825 14.13875916 1.15874364 17.09375 4.04516602 C19.58128275 7.90103292 19.50743559 11.14884158 19.390625 15.58203125 C19.38496521 16.39621017 19.37930542 17.2103891 19.37347412 18.04924011 C19.35116774 20.63760353 19.30098445 23.2245584 19.25 25.8125 C19.22992747 27.57224556 19.21167802 29.33201293 19.1953125 31.09179688 C19.15132207 35.39507005 19.08233627 39.6972966 19 44 C16.69 44 14.38 44 12 44 C12 43.67 12 43.34 12 43 C13.98 43 15.96 43 18 43 C17.93072101 38.71274024 17.8425654 34.42639105 17.73754883 30.13989258 C17.70447017 28.68427006 17.67638603 27.22852453 17.65356445 25.77270508 C17.61970079 23.66955564 17.5673764 21.56751625 17.51171875 19.46484375 C17.48553467 18.202771 17.45935059 16.94069824 17.43237305 15.64038086 C16.93435204 11.4472746 15.924314 8.73980473 14 5 C13.34 4.67 12.68 4.34 12 4 C12 3.34 12 2.68 12 2 C8.04 2 4.08 2 0 2 C0 1.34 0 0.68 0 0 Z " fill="#C43BDB" transform="translate(45,31)"/>
<path d="M0 0 C6.93 0 13.86 0 21 0 C21.33 0.66 21.66 1.32 22 2 C20.68 2 19.36 2 18 2 C18 3.32 18 4.64 18 6 C5.33029613 4.07289294 5.33029613 4.07289294 0 2 C0 1.34 0 0.68 0 0 Z " fill="#320376" transform="translate(75,113)"/>
<path d="M0 0 C0.33 0.66 0.66 1.32 1 2 C0.69755371 2.59216309 0.39510742 3.18432617 0.08349609 3.79443359 C-2.00678419 8.04941153 -1.36936962 12.96867953 -1.375 17.625 C-1.39949219 18.66785156 -1.42398437 19.71070313 -1.44921875 20.78515625 C-1.47323671 27.19795186 -0.63458239 32.05270729 2.13818359 37.85693359 C3 40 3 40 3 44 C1.515 44.495 1.515 44.495 0 45 C-0.13277344 44.28972656 -0.26554687 43.57945312 -0.40234375 42.84765625 C-0.66724609 41.46900391 -0.66724609 41.46900391 -0.9375 40.0625 C-1.11152344 39.14597656 -1.28554688 38.22945312 -1.46484375 37.28515625 C-1.77714988 35.04710156 -1.77714988 35.04710156 -3 34 C-3.17121863 31.73390442 -3.27526759 29.46267992 -3.3515625 27.19140625 C-3.37471527 26.50948715 -3.39786804 25.82756805 -3.42172241 25.12498474 C-3.46941936 23.67999865 -3.51464637 22.23492928 -3.55761719 20.78979492 C-3.62462062 18.57504008 -3.70240327 16.36084551 -3.78125 14.14648438 C-3.82617352 12.74481243 -3.87046534 11.34312007 -3.9140625 9.94140625 C-3.9548291 8.65951416 -3.9955957 7.37762207 -4.03759766 6.05688477 C-4 3 -4 3 -3 1 C-2.01 0.67 -1.02 0.34 0 0 Z " fill="#5B0C8E" transform="translate(33,94)"/>
<path d="M0 0 C0 0.66 0 1.32 0 2 C-0.97839844 1.83951172 -0.97839844 1.83951172 -1.9765625 1.67578125 C-7.49052832 0.91944081 -11.31537917 0.48653438 -16 4 C-16.67349161 5.66392045 -17.3409159 7.33032028 -18 9 C-20.625 9.8125 -20.625 9.8125 -23 10 C-22.30221788 6.83007549 -21.45901649 3.90772192 -20 1 C-13.36905582 -3.20809919 -7.11830181 -2.77787388 0 0 Z " fill="#E338E6" transform="translate(94,33)"/>
<path d="M0 0 C1.21914597 0.03753891 1.21914597 0.03753891 2.46292114 0.07583618 C5.04084072 0.15754446 7.61793681 0.25432121 10.1953125 0.3515625 C11.95048796 0.40985246 13.70569653 0.46715461 15.4609375 0.5234375 C19.74786341 0.66304934 24.03411579 0.81617088 28.3203125 0.9765625 C28.3203125 1.3065625 28.3203125 1.6365625 28.3203125 1.9765625 C15.1203125 1.9765625 1.9203125 1.9765625 -11.6796875 1.9765625 C-11.6796875 3.9565625 -11.6796875 5.9365625 -11.6796875 7.9765625 C-12.9996875 7.9765625 -14.3196875 7.9765625 -15.6796875 7.9765625 C-15.3496875 5.9965625 -15.0196875 4.0165625 -14.6796875 1.9765625 C-9.57762427 -0.10258149 -5.38980772 -0.22294525 0 0 Z " fill="#E938E8" transform="translate(84.6796875,109.0234375)"/>
<path d="M0 0 C0 3 0 3 -1 6 C-1.11265547 7.36515314 -1.17582586 8.73477212 -1.20532227 10.10424805 C-1.22526749 10.92487228 -1.24521271 11.74549652 -1.26576233 12.59098816 C-1.28247482 13.47232925 -1.29918732 14.35367035 -1.31640625 15.26171875 C-1.33718735 16.16751175 -1.35796844 17.07330475 -1.37937927 18.00654602 C-1.44476558 20.90012016 -1.50370904 23.79378507 -1.5625 26.6875 C-1.6056956 28.64909793 -1.64931023 30.61068668 -1.69335938 32.57226562 C-1.80043582 37.38141739 -1.90173414 42.19066046 -2 47 C-1.01 47 -0.02 47 1 47 C1 46.34 1 45.68 1 45 C1.66 45 2.32 45 3 45 C3 45.66 3 46.32 3 47 C4.32 47.33 5.64 47.66 7 48 C4.32521756 49.6627026 2.0004856 50.99983813 -1 52 C-1 51.34 -1 50.68 -1 50 C-0.34 50 0.32 50 1 50 C1 49.34 1 48.68 1 48 C-0.32 48 -1.64 48 -3 48 C-3.07424697 41.96771935 -3.1286483 35.93570568 -3.16479492 29.90307617 C-3.17986622 27.85159674 -3.20032682 25.80014944 -3.22631836 23.7487793 C-3.26277424 20.79728252 -3.27974306 17.84621237 -3.29296875 14.89453125 C-3.30845261 13.97976517 -3.32393646 13.06499908 -3.33988953 12.12251282 C-3.34117753 7.23116989 -3.15360018 4.00474487 0 0 Z " fill="#630A92" transform="translate(40,35)"/>
<path d="M0 0 C1.98 0.99 1.98 0.99 4 2 C3.58440013 10.8150919 3.13031092 19.39602581 1 28 C0.67 28 0.34 28 0 28 C0 18.76 0 9.52 0 0 Z " fill="#43017C" transform="translate(170,102)"/>
<path d="M0 0 C3.36720387 1.39332574 4.9859524 2.9789286 7 6 C4.03 5.67 1.06 5.34 -2 5 C-3.94679922 10.47621693 -3.94679922 10.47621693 -3 16 C-3.66 16.33 -4.32 16.66 -5 17 C-7.625 16.0625 -7.625 16.0625 -10 15 C-10 15.66 -10 16.32 -10 17 C-11.65 16.67 -13.3 16.34 -15 16 C-14.01 15.67 -13.02 15.34 -12 15 C-12 14.34 -12 13.68 -12 13 C-10.35 13 -8.7 13 -7 13 C-6.82984375 12.39671875 -6.6596875 11.7934375 -6.484375 11.171875 C-5.06451752 6.48936628 -3.96781594 3.14688851 0 0 Z " fill="#ED33E9" transform="translate(138,100)"/>
<path d="M0 0 C0.33 0 0.66 0 1 0 C1.04942365 5.072007 1.08573068 10.14387394 1.10986328 15.21606445 C1.11992326 16.94167523 1.13357276 18.66726895 1.15087891 20.39282227 C1.17512754 22.8726014 1.18648301 25.35215523 1.1953125 27.83203125 C1.20563507 28.60400345 1.21595764 29.37597565 1.22659302 30.17134094 C1.22739422 33.99281476 1.17242595 35.74136107 -1 39 C-1.99 38.67 -2.98 38.34 -4 38 C-3.67 37.34 -3.34 36.68 -3 36 C-2.34 36 -1.68 36 -1 36 C-1.00523682 35.26475098 -1.01047363 34.52950195 -1.01586914 33.77197266 C-1.03685916 30.38965739 -1.04972951 27.0073559 -1.0625 23.625 C-1.07506836 21.89056641 -1.07506836 21.89056641 -1.08789062 20.12109375 C-1.10702932 13.34599441 -0.85222001 6.72360274 0 0 Z " fill="#340074" transform="translate(36,41)"/>
<path d="M0 0 C3 1 3 1 4.16796875 2.92578125 C4.50441406 3.71339844 4.84085938 4.50101563 5.1875 5.3125 C5.53167969 6.09238281 5.87585937 6.87226563 6.23046875 7.67578125 C7 10 7 10 7 14 C7.66 14 8.32 14 9 14 C9 14.99 9 15.98 9 17 C9.66 17 10.32 17 11 17 C11.33 19.31 11.66 21.62 12 24 C9.2175651 22.60878255 8.44789935 20.69835788 7 18 C7 17.34 7 16.68 7 16 C6.34 16 5.68 16 5 16 C4.16280617 13.70967689 3.3301071 11.41789043 2.5 9.125 C2.14228516 8.14853516 2.14228516 8.14853516 1.77734375 7.15234375 C0 2.2265625 0 2.2265625 0 0 Z " fill="#C736D7" transform="translate(33,127)"/>
<path d="M0 0 C0.08834886 4.41653692 0.14083987 8.83284148 0.1875 13.25 C0.21263672 14.48492187 0.23777344 15.71984375 0.26367188 16.9921875 C0.32778359 25.11300508 -0.60514805 32.23495578 -3 40 C-3.33 40 -3.66 40 -4 40 C-3.67 35.71 -3.34 31.42 -3 27 C-2.34 27 -1.68 27 -1 27 C-1.33 19.41 -1.66 11.82 -2 4 C-3.65 4 -5.3 4 -7 4 C-3.17391304 0 -3.17391304 0 0 0 Z " fill="#BE32D2" transform="translate(169,103)"/>
<path d="M0 0 C0.66 0.33 1.32 0.66 2 1 C2 11.23 2 21.46 2 32 C-2.95 32.495 -2.95 32.495 -8 33 C-8 32.34 -8 31.68 -8 31 C-5.03 31 -2.06 31 1 31 C0.85912627 27.58306261 0.71250529 24.1665383 0.5625 20.75 C0.52318359 19.78191406 0.48386719 18.81382813 0.44335938 17.81640625 C0.40146484 16.88183594 0.35957031 15.94726562 0.31640625 14.984375 C0.27974854 14.12553711 0.24309082 13.26669922 0.20532227 12.38183594 C0.06890034 10.02397447 0.06890034 10.02397447 -0.54711914 7.89160156 C-1.20978988 5.12374557 -0.56306403 2.75275747 0 0 Z " fill="#E739EA" transform="translate(61,42)"/>
<path d="M0 0 C4.16521052 3.4047086 7.6567178 6.76517589 11 11 C15.325037 15.19783003 20.43351863 16.96796408 26 19 C23.13822943 20.43088528 21.06624227 19.59991697 18 19 C18 18.34 18 17.68 18 17 C16.35 17 14.7 17 13 17 C12.67 15.68 12.34 14.36 12 13 C10.824375 12.9071875 10.824375 12.9071875 9.625 12.8125 C8.75875 12.544375 7.8925 12.27625 7 12 C6.27095914 10.35965807 5.61344757 8.68698082 5 7 C3.35305515 5.31384218 1.68873879 3.64429829 0 2 C0 1.34 0 0.68 0 0 Z " fill="#5E0C8F" transform="translate(47,154)"/>
<path d="M0 0 C-1.52505728 1.52505728 -3.06864111 1.26359031 -5.1875 1.4375 C-9.02775269 1.81784452 -12.37967498 2.6075673 -16 4 C-16.33 3.67 -16.66 3.34 -17 3 C-17.33 4.65 -17.66 6.3 -18 8 C-22 3.375 -22 3.375 -22 0 C-18.70880065 -0.1964031 -15.41703066 -0.38060745 -12.125 -0.5625 C-11.18785156 -0.61857422 -10.25070313 -0.67464844 -9.28515625 -0.73242188 C-8.38925781 -0.78076172 -7.49335937 -0.82910156 -6.5703125 -0.87890625 C-5.74289551 -0.9260376 -4.91547852 -0.97316895 -4.06298828 -1.02172852 C-2 -1 -2 -1 0 0 Z " fill="#EF32ED" transform="translate(122,118)"/>
<path d="M0 0 C4.95 0 9.9 0 15 0 C15 0.66 15 1.32 15 2 C15.99 2.33 16.98 2.66 18 3 C19 4 19 4 20 7 C19.5625 9.1875 19.5625 9.1875 19 11 C18.64550781 10.43410156 18.29101562 9.86820313 17.92578125 9.28515625 C15.16701445 5.4843371 13.34448277 3.30172695 8.640625 2.24609375 C5.40930868 2.02385256 2.23730423 1.92210997 -1 2 C-0.67 1.34 -0.34 0.68 0 0 Z " fill="#4E0889" transform="translate(80,28)"/>
<path d="M0 0 C4.14581887 -0.02886751 8.29161216 -0.04675327 12.4375 -0.0625 C14.21350586 -0.07506836 14.21350586 -0.07506836 16.02539062 -0.08789062 C17.15009766 -0.09111328 18.27480469 -0.09433594 19.43359375 -0.09765625 C20.47572021 -0.10289307 21.51784668 -0.10812988 22.59155273 -0.11352539 C25 0 25 0 26 1 C26.12548989 2.95530764 26.17575363 4.91570479 26.1875 6.875 C26.20167969 7.94492188 26.21585938 9.01484375 26.23046875 10.1171875 C26 13 26 13 24 16 C23.67 11.05 23.34 6.1 23 1 C15.41 1 7.82 1 0 1 C0 0.67 0 0.34 0 0 Z " fill="#CA35D6" transform="translate(110,81)"/>
<path d="M0 0 C1.59134766 -0.03867187 1.59134766 -0.03867187 3.21484375 -0.078125 C6.0625 0.25 6.0625 0.25 7.94140625 1.765625 C8.31136719 2.25546875 8.68132812 2.7453125 9.0625 3.25 C4.68315881 2.73041715 0.37446609 2.19324258 -3.9375 1.25 C-3.9375 2.24 -3.9375 3.23 -3.9375 4.25 C-6.84350261 5.50664978 -8.73354584 6.25 -11.9375 6.25 C-11.9375 7.9 -11.9375 9.55 -11.9375 11.25 C-12.5975 11.25 -13.2575 11.25 -13.9375 11.25 C-13.2775 8.94 -12.6175 6.63 -11.9375 4.25 C-10.6175 3.92 -9.2975 3.59 -7.9375 3.25 C-7.9375 2.59 -7.9375 1.93 -7.9375 1.25 C-5.23187257 -0.10281371 -3.01856345 0.04390638 0 0 Z " fill="#C033D4" transform="translate(119.9375,29.75)"/>
<path d="M0 0 C4.06962402 1.23035145 7.38325151 2.78976481 11 5 C11.66 5 12.32 5 13 5 C13.66 6.98 14.32 8.96 15 11 C7.71868272 8.72370469 3.85280276 6.67819144 0 0 Z " fill="#E636E7" transform="translate(52,158)"/>
<path d="M0 0 C2.1875 2.5625 2.1875 2.5625 3 5 C2.01 4.67 1.02 4.34 0 4 C-2.39490986 3.93029948 -4.79167691 3.91551997 -7.1875 3.9375 C-8.45980469 3.94652344 -9.73210937 3.95554687 -11.04296875 3.96484375 C-12.01878906 3.97644531 -12.99460938 3.98804688 -14 4 C-14.33 3.01 -14.66 2.02 -15 1 C-10.20620184 -1.91254404 -5.29941866 -1.32072739 0 0 Z " fill="#58078B" transform="translate(161,50)"/>
<path d="M0 0 C1.98 0 3.96 0 6 0 C6 0.66 6 1.32 6 2 C6.94875 2.226875 7.8975 2.45375 8.875 2.6875 C12 4 12 4 13.375 6.625 C13.58125 7.40875 13.7875 8.1925 14 9 C12.35 9.33 10.7 9.66 9 10 C8.79375 9.21625 8.5875 8.4325 8.375 7.625 C7.21128486 4.68861556 7.21128486 4.68861556 3.9375 3.875 C2.968125 3.58625 1.99875 3.2975 1 3 C0.67 2.01 0.34 1.02 0 0 Z " fill="#D231DD" transform="translate(80,117)"/>
<path d="M0 0 C2.50109193 0.41684865 4.62611996 0.80059731 6.875 2 C9.24409729 3.11486931 11.15096669 3.39567353 13.75 3.625 C14.54921875 3.69976562 15.3484375 3.77453125 16.171875 3.8515625 C16.77515625 3.90054688 17.3784375 3.94953125 18 4 C17.67 4.66 17.34 5.32 17 6 C10.48208608 6.3540919 5.82478551 6.03901852 0 3 C0 2.01 0 1.02 0 0 Z " fill="#3D0173" transform="translate(142,100)"/>
<path d="M0 0 C6.93 0 13.86 0 21 0 C21 0.66 21 1.32 21 2 C16.73383684 3.13764351 13.43513689 4 9 4 C8.67 3.34 8.34 2.68 8 2 C6.10466658 1.53476937 6.10466658 1.53476937 3.9375 1.375 C2.638125 1.25125 1.33875 1.1275 0 1 C0 0.67 0 0.34 0 0 Z " fill="#F031EB" transform="translate(54,82)"/>
<path d="M0 0 C0.33 0 0.66 0 1 0 C1 5.94 1 11.88 1 18 C1.66 18 2.32 18 3 18 C3 17.34 3 16.68 3 16 C3.66 16 4.32 16 5 16 C5 14.35 5 12.7 5 11 C6.65 11 8.3 11 10 11 C7.67991637 15.51127372 4.97499121 17.97555016 1 21 C0.67 21 0.34 21 0 21 C0 14.07 0 7.14 0 0 Z " fill="#41017A" transform="translate(137,43)"/>
<path d="M0 0 C0.33 0 0.66 0 1 0 C1.37328905 6.5947733 0.64822067 12.88340077 -2 19 C-4.109375 20.82421875 -4.109375 20.82421875 -6 22 C-6.66 21.67 -7.32 21.34 -8 21 C-7.566875 20.29875 -7.13375 19.5975 -6.6875 18.875 C-3.00816812 12.60650864 -1.19830342 7.13342979 0 0 Z " fill="#540785" transform="translate(168,131)"/>
<path d="M0 0 C0 0.66 0 1.32 0 2 C0.99 2.33 1.98 2.66 3 3 C2.02160156 2.86078125 2.02160156 2.86078125 1.0234375 2.71875 C-4.28336843 2.25394729 -4.28336843 2.25394729 -8.96484375 4.4296875 C-13.14940851 9.52482993 -13.9734854 14.53043873 -14 21 C-14.33 21 -14.66 21 -15 21 C-15.78693051 9.05614358 -15.78693051 9.05614358 -12.625 4.8125 C-11.325625 3.9153125 -11.325625 3.9153125 -10 3 C-9.34 2.34 -8.68 1.68 -8 1 C-5.29913367 0.43731951 -2.7611525 0 0 0 Z " fill="#F030EA" transform="translate(158,55)"/>
<path d="M0 0 C0 3 0 3 -1.3125 4.60546875 C-1.869375 5.12753906 -2.42625 5.64960937 -3 6.1875 C-3.556875 6.71730469 -4.11375 7.24710937 -4.6875 7.79296875 C-5.120625 8.19128906 -5.55375 8.58960937 -6 9 C-5.67 9.66 -5.34 10.32 -5 11 C-5.33 11.66 -5.66 12.32 -6 13 C-9.0625 13.625 -9.0625 13.625 -12 14 C-11.67 13.01 -11.34 12.02 -11 11 C-12.65 11 -14.3 11 -16 11 C-16 10.67 -16 10.34 -16 10 C-13.36 9.67 -10.72 9.34 -8 9 C-8 8.34 -8 7.68 -8 7 C-6.25 5.2734375 -6.25 5.2734375 -4 3.375 C-3.2575 2.74335937 -2.515 2.11171875 -1.75 1.4609375 C-1.1725 0.97882813 -0.595 0.49671875 0 0 Z " fill="#6E0F93" transform="translate(131,101)"/>
<path d="M0 0 C0.66 0 1.32 0 2 0 C2.268125 0.639375 2.53625 1.27875 2.8125 1.9375 C3.88667752 4.33131686 3.88667752 4.33131686 7 5 C6.67 12.26 6.34 19.52 6 27 C5.67 27 5.34 27 5 27 C4.90912109 25.24623047 4.90912109 25.24623047 4.81640625 23.45703125 C4.73195966 21.90884386 4.64731375 20.36066732 4.5625 18.8125 C4.52318359 18.04357422 4.48386719 17.27464844 4.44335938 16.48242188 C4.22492966 12.56748925 3.91307892 8.82879312 3 5 C2.34 5 1.68 5 1 5 C0.67 3.35 0.34 1.7 0 0 Z " fill="#D534DF" transform="translate(103,126)"/>
<path d="M0 0 C5.50808397 0.59015185 10.64878069 1.56663769 16 3 C16 4.32 16 5.64 16 7 C14.35 6.67 12.7 6.34 11 6 C11 5.01 11 4.02 11 3 C7.37 3 3.74 3 0 3 C0 2.01 0 1.02 0 0 Z M12 7 C12.33 7.66 12.66 8.32 13 9 C12.34 8.67 11.68 8.34 11 8 C11.33 7.67 11.66 7.34 12 7 Z " fill="#E037E7" transform="translate(116,31)"/>
<path d="M0 0 C2.64 0.33 5.28 0.66 8 1 C8 1.66 8 2.32 8 3 C6.68 3 5.36 3 4 3 C4 4.98 4 6.96 4 9 C5.32 9.33 6.64 9.66 8 10 C8 10.99 8 11.98 8 13 C8.66 13 9.32 13 10 13 C9.67 13.99 9.34 14.98 9 16 C3.33615222 12.26427061 3.33615222 12.26427061 2.37890625 8.6640625 C2.15007416 6.43206945 2.00977395 4.24312155 2 2 C1.34 2 0.68 2 0 2 C0 1.34 0 0.68 0 0 Z " fill="#ED31EB" transform="translate(42,142)"/>
<path d="M0 0 C0.66 0.33 1.32 0.66 2 1 C0.6875 3.5 0.6875 3.5 -1 6 C-1.99 6 -2.98 6 -4 6 C-4.33 6.99 -4.66 7.98 -5 9 C-5.66 9 -6.32 9 -7 9 C-7.66 10.98 -8.32 12.96 -9 15 C-9.66 15 -10.32 15 -11 15 C-9.9272481 7.643987 -5.65545015 4.48014055 0 0 Z " fill="#B02AC7" transform="translate(44,83)"/>
<path d="M0 0 C0.66 0.33 1.32 0.66 2 1 C2 5.29 2 9.58 2 14 C1.01 14 0.02 14 -1 14 C-1.02685938 11.85423363 -1.04633088 9.70837355 -1.0625 7.5625 C-1.07410156 6.36753906 -1.08570312 5.17257813 -1.09765625 3.94140625 C-1 1 -1 1 0 0 Z " fill="#47007C" transform="translate(105,139)"/>
<path d="M0 0 C2.56616632 3.84924948 2.55097676 6.4349304 3 11 C1.68 11.33 0.36 11.66 -1 12 C-1 12.66 -1 13.32 -1 14 C-1.66 14 -2.32 14 -3 14 C-2.01 9.38 -1.02 4.76 0 0 Z " fill="#350174" transform="translate(138,86)"/>
<path d="M0 0 C1.51566056 2.94939352 2.86290106 5.93356701 4.125 9 C4.47820313 9.845625 4.83140625 10.69125 5.1953125 11.5625 C6 14 6 14 6 18 C5.01 18.33 4.02 18.66 3 19 C2.86722656 18.28972656 2.73445313 17.57945312 2.59765625 16.84765625 C2.42105469 15.92855469 2.24445312 15.00945312 2.0625 14.0625 C1.88847656 13.14597656 1.71445312 12.22945312 1.53515625 11.28515625 C1.22285012 9.04710156 1.22285012 9.04710156 0 8 C-0.14115161 5.32941149 -0.04247107 2.67567762 0 0 Z " fill="#4B0481" transform="translate(30,120)"/>
<path d="M0 0 C-1 2 -1 2 -3 2.6875 C-3.66 2.790625 -4.32 2.89375 -5 3 C-5.33 2.67 -5.66 2.34 -6 2 C-11.74970861 2.19202611 -11.74970861 2.19202611 -16.5 5.0625 C-17.2425 6.0215625 -17.2425 6.0215625 -18 7 C-16.92598892 4.08482708 -16.22189824 2.22189824 -14 0 C-9.91933213 -1.56948764 -3.88465904 -1.94232952 0 0 Z " fill="#D037DC" transform="translate(57,33)"/>
<path d="M0 0 C1.0209375 -0.01740234 1.0209375 -0.01740234 2.0625 -0.03515625 C4.0390625 -0.0234375 4.0390625 -0.0234375 7.375 0.375 C8.035 1.365 8.695 2.355 9.375 3.375 C8.51777344 3.26800781 7.66054687 3.16101562 6.77734375 3.05078125 C-1.9457752 2.13618141 -6.32148243 2.50598828 -13.625 7.375 C-10.88667738 0.757387 -6.76140081 -0.11657588 0 0 Z " fill="#A028BE" transform="translate(84.625,29.625)"/>
<path d="M0 0 C1.59134766 -0.03867187 1.59134766 -0.03867187 3.21484375 -0.078125 C6.0625 0.25 6.0625 0.25 7.94140625 1.765625 C8.31136719 2.25546875 8.68132812 2.7453125 9.0625 3.25 C7.7425 3.25 6.4225 3.25 5.0625 3.25 C5.0625 2.59 5.0625 1.93 5.0625 1.25 C3.12204312 1.6741929 1.18518239 2.11485995 -0.75 2.5625 C-2.36841797 2.92794922 -2.36841797 2.92794922 -4.01953125 3.30078125 C-6.8822156 4.23201592 -8.09147066 4.93760535 -9.9375 7.25 C-10.5975 6.92 -11.2575 6.59 -11.9375 6.25 C-7.9859145 1.11293884 -6.4669135 0.0940642 0 0 Z " fill="#C53ADC" transform="translate(154.9375,52.75)"/>
<path d="M0 0 C-5.06699482 4.16217431 -9.34540028 4.14119546 -15.75 4.0625 C-16.44738281 4.05798828 -17.14476563 4.05347656 -17.86328125 4.04882812 C-19.57555803 4.0371002 -21.28779033 4.01916653 -23 4 C-23 3.67 -23 3.34 -23 3 C-22.18015625 2.95101562 -21.3603125 2.90203125 -20.515625 2.8515625 C-19.43796875 2.77679688 -18.3603125 2.70203125 -17.25 2.625 C-16.18265625 2.55539063 -15.1153125 2.48578125 -14.015625 2.4140625 C-8.82521442 1.70138954 -5.54921855 -0.21343148 0 0 Z " fill="#CE3CDF" transform="translate(134,174)"/>
<path d="M0 0 C0.33 1.32 0.66 2.64 1 4 C-3.296875 8.00390625 -3.296875 8.00390625 -5 9 C-7.203125 8.65234375 -7.203125 8.65234375 -9 8 C-7.87811441 6.85111717 -6.75238316 5.70598863 -5.625 4.5625 C-4.99851563 3.92441406 -4.37203125 3.28632812 -3.7265625 2.62890625 C-2 1 -2 1 0 0 Z " fill="#4B037B" transform="translate(133,102)"/>
<path d="M0 0 C3.36720387 1.39332574 4.9859524 2.9789286 7 6 C4.03 5.67 1.06 5.34 -2 5 C-2.33 5.66 -2.66 6.32 -3 7 C-3.66 6.67 -4.32 6.34 -5 6 C-3.35 4.02 -1.7 2.04 0 0 Z " fill="#BD35D3" transform="translate(138,100)"/>
<path d="M0 0 C-2.36768996 3.94614993 -4.64092474 4.79429833 -9 6 C-9.99 6.495 -9.99 6.495 -11 7 C-10.8125 5.1875 -10.8125 5.1875 -10 3 C-6.62712264 0.37665094 -4.24348127 -0.36372697 0 0 Z " fill="#E635E6" transform="translate(54,82)"/>
<path d="M0 0 C1.09570312 0.00902344 2.19140625 0.01804687 3.3203125 0.02734375 C4.16335937 0.03894531 5.00640625 0.05054687 5.875 0.0625 C6.205 0.7225 6.535 1.3825 6.875 2.0625 C2.255 2.3925 -2.365 2.7225 -7.125 3.0625 C-7.125 3.7225 -7.125 4.3825 -7.125 5.0625 C-7.785 4.7325 -8.445 4.4025 -9.125 4.0625 C-8.795 3.0725 -8.465 2.0825 -8.125 1.0625 C-5.36047967 -0.31976016 -3.0788637 -0.03275387 0 0 Z " fill="#5B078B" transform="translate(119.125,27.9375)"/>
<path d="M0 0 C1.74965358 -0.05429959 3.49979787 -0.09292823 5.25 -0.125 C6.22453125 -0.14820312 7.1990625 -0.17140625 8.203125 -0.1953125 C11.07883169 0.00550501 12.60289919 0.44398719 15 2 C17.25 4.625 17.25 4.625 19 7 C18.67 7.66 18.34 8.32 18 9 C15.95880212 7.38405168 13.95927063 5.7143618 12 4 C12 3.34 12 2.68 12 2 C8.04 2 4.08 2 0 2 C0 1.34 0 0.68 0 0 Z " fill="#A027BF" transform="translate(45,31)"/>
<path d="M0 0 C0.66 0 1.32 0 2 0 C0.70677932 5.7607103 -1.37988643 9.33195882 -5 14 C-5 11.12180874 -4.6315796 9.63105954 -3.625 7 C-3.36976563 6.319375 -3.11453125 5.63875 -2.8515625 4.9375 C-2 3 -2 3 0 0 Z " fill="#B330CA" transform="translate(163,143)"/>
<path d="M0 0 C4.51290803 3.33562767 6.68206814 5.33289301 8 11 C7.34 11 6.68 11 6 11 C3 7.53846154 3 7.53846154 3 5 C1.68 4.67 0.36 4.34 -1 4 C-0.67 2.68 -0.34 1.36 0 0 Z " fill="#C934D5" transform="translate(93,123)"/>
<path d="M0 0 C0.33 0.66 0.66 1.32 1 2 C0.0625 4.125 0.0625 4.125 -1 6 C-2.65 6 -4.3 6 -6 6 C-6 6.66 -6 7.32 -6 8 C-8.31 8.33 -10.62 8.66 -13 9 C-12.34 8.34 -11.68 7.68 -11 7 C-9.68 7 -8.36 7 -7 7 C-6.67 6.01 -6.34 5.02 -6 4 C-4.04402816 2.60287726 -2.04563599 1.26220093 0 0 Z " fill="#B528C5" transform="translate(132,107)"/>
<path d="M0 0 C0 0.66 0 1.32 0 2 C-1.99330842 3.34331654 -3.99384866 4.67594012 -6 6 C-6.66 6.99 -7.32 7.98 -8 9 C-8.1875 5.625 -8.1875 5.625 -8 2 C-4.77208445 -0.1519437 -3.71599191 -0.20086443 0 0 Z " fill="#3D027B" transform="translate(45,31)"/>
<path d="M0 0 C1.1124494 3.33734821 1.16809985 5.66257186 0 9 C-2.5625 11.3125 -2.5625 11.3125 -5 13 C-5.33 10.69 -5.66 8.38 -6 6 C-3.525 6.495 -3.525 6.495 -1 7 C-0.67 4.69 -0.34 2.38 0 0 Z " fill="#ED32E9" transform="translate(165,134)"/>
<path d="M0 0 C3.63 0.66 7.26 1.32 11 2 C11 1.34 11 0.68 11 0 C12.98 0 14.96 0 17 0 C13.93756084 2.68585151 12.00164341 3.41177958 7.9375 3.375 C7.08027344 3.38273437 6.22304687 3.39046875 5.33984375 3.3984375 C3 3 3 3 0 0 Z " fill="#AE35CF" transform="translate(146,100)"/>
<path d="M0 0 C1.5 1.3125 1.5 1.3125 3 3 C3 3.99 3 4.98 3 6 C3.66 6 4.32 6 5 6 C5 6.66 5 7.32 5 8 C5.99 8 6.98 8 8 8 C8.33 10.31 8.66 12.62 9 15 C6.2175651 13.60878255 5.44789935 11.69835788 4 9 C4 8.34 4 7.68 4 7 C3.34 7 2.68 7 2 7 C1.34 4.69 0.68 2.38 0 0 Z " fill="#AB29C3" transform="translate(36,136)"/>
<path d="M0 0 C1.14144924 2.2013664 2.14982023 4.37895705 3.0625 6.6875 C3.79447966 8.92435966 3.79447966 8.92435966 5 10 C5.04092937 12.33297433 5.04241723 14.66705225 5 17 C4 15 4 15 3 13 C2.46375 12.071875 1.9275 11.14375 1.375 10.1875 C-0.19100906 6.55720626 -0.23477595 3.91293257 0 0 Z " fill="#EE31E6" transform="translate(36,124)"/>
<path d="M0 0 C-2.6860286 1.79068573 -4.6626589 2.66055791 -7.6875 3.625 C-8.49574219 3.88539062 -9.30398437 4.14578125 -10.13671875 4.4140625 C-10.75160156 4.60742188 -11.36648437 4.80078125 -12 5 C-12 3.68 -12 2.36 -12 1 C-7.93631321 0.22596442 -4.13574827 -0.0984702 0 0 Z " fill="#C43BD7" transform="translate(51,76)"/>
<path d="M0 0 C1.9375 1.125 1.9375 1.125 4 3 C4.75 6.1875 4.75 6.1875 5 9 C4.34 9 3.68 9 3 9 C2.67 8.01 2.34 7.02 2 6 C1.01 5.67 0.02 5.34 -1 5 C-1.33 4.01 -1.66 3.02 -2 2 C-1.34 2 -0.68 2 0 2 C0 1.34 0 0.68 0 0 Z " fill="#D530DE" transform="translate(94,33)"/>
<path d="M0 0 C1.125 3.75 1.125 3.75 0 6 C0.66 6 1.32 6 2 6 C1.34 7.32 0.68 8.64 0 10 C-0.99 9.67 -1.98 9.34 -3 9 C-2.44271087 5.65626525 -1.64826111 2.96687001 0 0 Z " fill="#5E0789" transform="translate(135,94)"/>
<path d="M0 0 C0.66 0 1.32 0 2 0 C2 0.66 2 1.32 2 2 C3.32 2.33 4.64 2.66 6 3 C3.32521756 4.6627026 1.0004856 5.99983813 -2 7 C-2 6.34 -2 5.68 -2 5 C-1.34 5 -0.68 5 0 5 C0 4.34 0 3.68 0 3 C-1.32 2.67 -2.64 2.34 -4 2 C-2.68 2 -1.36 2 0 2 C0 1.34 0 0.68 0 0 Z " fill="#550A88" transform="translate(41,80)"/>
<path d="M0 0 C4.455 0.99 4.455 0.99 9 2 C9.33 3.65 9.66 5.3 10 7 C9.67 6.34 9.34 5.68 9 5 C8.05125 4.690625 7.1025 4.38125 6.125 4.0625 C3 3 3 3 0 0 Z " fill="#510884" transform="translate(126,30)"/>
<path d="M0 0 C1.32 0.33 2.64 0.66 4 1 C4 3 4 3 2.125 5 C1.42375 5.66 0.7225 6.32 0 7 C-0.66 7.66 -1.32 8.32 -2 9 C-2.20140476 5.37471432 -1.85776765 3.13498292 0 0 Z " fill="#3D0277" transform="translate(106,31)"/>
<path d="M0 0 C0.99 0.33 1.98 0.66 3 1 C2.34 1 1.68 1 1 1 C1 1.99 1 2.98 1 4 C1.99 3.34 2.98 2.68 4 2 C3.34 3.32 2.68 4.64 2 6 C0.68 6 -0.64 6 -2 6 C-1.125 1.125 -1.125 1.125 0 0 Z " fill="#1B066D" transform="translate(156,162)"/>
<path d="M0 0 C0.33 0 0.66 0 1 0 C1 2.97 1 5.94 1 9 C0.01 8.67 -0.98 8.34 -2 8 C-2.125 5.125 -2.125 5.125 -2 2 C-1.34 1.34 -0.68 0.68 0 0 Z " fill="#340274" transform="translate(138,74)"/>
<path d="M0 0 C0.33 1.32 0.66 2.64 1 4 C-0.96466413 5.06775224 -2.96855359 6.06553465 -5 7 C-5.66 6.67 -6.32 6.34 -7 6 C-4.69 4.02 -2.38 2.04 0 0 Z " fill="#650990" transform="translate(151,163)"/>
<path d="M0 0 C3.48331435 3.01887244 4.79157144 5.56909529 6 10 C3 9 3 9 1.3125 6.6875 C0 4 0 4 0 0 Z " fill="#620889" transform="translate(39,143)"/>
<path d="M0 0 C1.65 0 3.3 0 5 0 C3.19587357 3.26460973 2.16605307 4.88929795 -1 7 C-0.67 4.69 -0.34 2.38 0 0 Z " fill="#660F93" transform="translate(142,54)"/>
<path d="M0 0 C-3.75 3 -3.75 3 -6 3 C-6 3.66 -6 4.32 -6 5 C-6.66 5 -7.32 5 -8 5 C-8 3.68 -8 2.36 -8 1 C-4.93251126 -0.86240388 -3.40254489 -1.2151946 0 0 Z " fill="#ED31EC" transform="translate(116,35)"/>
<path d="M0 0 C5.75 0.75 5.75 0.75 8 3 C8.125 5.625 8.125 5.625 8 8 C7.67 6.68 7.34 5.36 7 4 C5.68 4 4.36 4 3 4 C3 3.34 3 2.68 3 2 C2.01 1.67 1.02 1.34 0 1 C0 0.67 0 0.34 0 0 Z " fill="#EA32E5" transform="translate(53,34)"/>
<path d="M0 0 C0.33 0 0.66 0 1 0 C1 1.65 1 3.3 1 5 C-1.31 5.66 -3.62 6.32 -6 7 C-5.34 6.01 -4.68 5.02 -4 4 C-3.34 4 -2.68 4 -2 4 C-2 3.34 -2 2.68 -2 2 C-1.34 2 -0.68 2 0 2 C0 1.34 0 0.68 0 0 Z " fill="#E231E4" transform="translate(149,160)"/>
<path d="M0 0 C2.475 0.495 2.475 0.495 5 1 C5 1.99 5 2.98 5 4 C5.66 4 6.32 4 7 4 C6.67 4.99 6.34 5.98 6 7 C3.95880212 5.38405168 1.95927063 3.7143618 0 2 C0 1.34 0 0.68 0 0 Z " fill="#CD33D9" transform="translate(45,151)"/>
<path d="M0 0 C1.39195915 4.17587745 -0.17676781 6.13474776 -2 10 C-2.33 10 -2.66 10 -3 10 C-2.25 2.25 -2.25 2.25 0 0 Z " fill="#E338E7" transform="translate(159,147)"/>
<path d="M0 0 C4.75 0.75 4.75 0.75 7 3 C5.02 3.33 3.04 3.66 1 4 C0.67 2.68 0.34 1.36 0 0 Z " fill="#480584" transform="translate(142,100)"/>
<path d="M0 0 C1.70884005 1.62339805 3.37446717 3.29319053 5 5 C5 5.66 5 6.32 5 7 C3.68 6.67 2.36 6.34 1 6 C0.67 4.02 0.34 2.04 0 0 Z " fill="#420277" transform="translate(96,121)"/>
<path d="M0 0 C1.32 0.66 2.64 1.32 4 2 C2.875 3.5 2.875 3.5 1 5 C-2.1875 5.1875 -2.1875 5.1875 -5 5 C-3.35 3.35 -1.7 1.7 0 0 Z " fill="#E135E5" transform="translate(163,95)"/>
<path d="M0 0 C2.9375 0.75 2.9375 0.75 6 2 C6.8125 4 6.8125 4 7 6 C7.33 6.66 7.66 7.32 8 8 C3.79373966 6.49776416 2.26099979 3.71449966 0 0 Z " fill="#C82BD5" transform="translate(52,158)"/>
<path d="M0 0 C2.475 0.99 2.475 0.99 5 2 C5 2.66 5 3.32 5 4 C3.35 3.67 1.7 3.34 0 3 C0 2.01 0 1.02 0 0 Z M1 4 C1.33 4.66 1.66 5.32 2 6 C1.34 5.67 0.68 5.34 0 5 C0.33 4.67 0.66 4.34 1 4 Z " fill="#E932EB" transform="translate(127,34)"/>
</svg>
